<svg xmlns="http://www.w3.org/2000/svg" width="230" height="48" viewBox="0 0 230 48" fill="none"><mask id="mask0_1236_5976" style="mask-type:luminance" maskUnits="userSpaceOnUse" x="0" y="0" width="230" height="48"><path d="M229.667 0H0.333374V48H229.667V0Z" fill="white"/></mask><g mask="url(#mask0_1236_5976)"><path d="M0.470026 47.9638H33.9909V37.8016H20.2975L29.534 24.8334C29.534 24.8334 32.4433 20.9969 32.4433 16.0114C32.4433 8.21498 26.1748 0.036377 16.7452 0.036377C6.79965 0.036377 0.342896 7.64168 0.342896 15.8203H10.7382C10.7382 12.6272 13.2588 10.1308 16.3589 10.1308C19.7792 10.1308 22.1042 13.1981 22.1042 15.6292C22.1042 17.4821 21.202 19.0787 19.9748 20.5494L0.470026 47.9638Z" fill="#31566D"/><path d="M37.9563 0.00427246V12.5298H50.5471V47.9946H63.2699V12.5298H76.1247V0.00427246H37.9563Z" fill="#31566D"/><path d="M80.093 47.9975H98.0453C111.418 47.9975 122.269 37.2378 122.269 24.0011C122.269 10.7644 111.418 0.00231934 98.0453 0.00231934H80.093V47.9975ZM92.7523 12.8713H98.1113C104.443 12.8713 109.607 17.9851 109.607 24.1898C109.607 30.4622 104.443 35.576 98.1113 35.576H92.7523V12.8713Z" fill="#8CBF3A"/></g><path d="M155.23 0.00476074L138.954 16.2144V0.00476074H126.232V47.9951H138.954V34.0424L141.991 30.9799L159.234 47.9951H177.191L150.966 21.9547L173.057 0.00476074H155.23Z" fill="#8CBF3A"/><path d="M229.664 0H181.154V47.9952H229.664V0Z" fill="#8CBF3A"/><path d="M195.454 0H194.307V47.9952H195.454V0Z" fill="#578275"/><path d="M200.715 0H199.569V47.9952H200.715V0Z" fill="#578275"/><path d="M211.238 0H210.091V47.9952H211.238V0Z" fill="#578275"/><path d="M205.973 0.00231934H204.829V47.9975H205.973V0.00231934Z" fill="#578275"/><path d="M213.871 16.7999H212.727V31.1929H213.871V16.7999Z" fill="#31566D"/><path d="M192.825 16.7994H191.676V31.1924H192.825V16.7994Z" fill="#31566D"/><path d="M187.558 16.7994H186.414V31.1924H187.558V16.7994Z" fill="#31566D"/><path d="M182.301 16.7999H181.154V31.1929H182.301V16.7999Z" fill="#31566D"/><path d="M203.349 16.8007H202.205V31.1936H203.349V16.8007Z" fill="#31566D"/><path d="M198.085 16.7999H196.936V31.1929H198.085V16.7999Z" fill="#31566D"/><path d="M219.133 16.8007H217.986V31.1936H219.133V16.8007Z" fill="#31566D"/><path d="M224.39 16.8007H223.246V31.1936H224.39V16.8007Z" fill="#31566D"/><path d="M208.606 16.8007H207.462V31.1936H208.606V16.8007Z" fill="#31566D"/><path d="M229.664 16.7999H228.515V31.1929H229.664V16.7999Z" fill="#31566D"/></svg>