<svg width="73" height="88" viewBox="0 0 73 88" fill="none" xmlns="http://www.w3.org/2000/svg">
<path fill-rule="evenodd" clip-rule="evenodd" d="M73 52.3905V36.5888C73 26.8143 69.2025 17.6273 62.3081 10.7168C55.4136 3.80632 46.2481 0 36.5 0C16.3734 0 0 16.4115 0 36.5851V52.3868V88H72.9816L73 52.3905Z" fill="white"/>
<path fill-rule="evenodd" clip-rule="evenodd" d="M69.3138 53.5914H3.6875V36.5849C3.6875 18.418 18.376 3.69531 36.5006 3.69531C54.6216 3.69531 69.3138 18.4217 69.3138 36.5886V53.5914Z" fill="#009247"/>
<path fill-rule="evenodd" clip-rule="evenodd" d="M17.5867 15.7014C17.5867 15.7014 17.6309 15.9897 17.6936 16.1929C17.7563 16.3962 17.9074 16.7288 17.9517 16.8064C17.9959 16.884 18.2503 17.2905 18.2835 17.3533C18.3204 17.4161 18.4125 17.4974 18.4273 17.5824C18.442 17.6674 18.4568 17.7266 18.442 17.7894C18.4273 17.8522 18.2171 18.425 18.1839 18.5248C18.1508 18.6245 17.4503 20.1286 17.3876 20.3171C17.2512 20.7125 17.0816 21.459 17.0041 21.7842C16.9267 22.1094 16.7461 22.9076 16.6686 23.1811C16.5912 23.4545 16.3958 24.1825 16.3958 24.2786C16.3958 24.3747 16.3 25.1249 16.3 25.1249C16.3 25.1249 16.2557 26.167 16.2815 26.2705C16.3331 26.4848 16.4179 26.5439 16.5728 26.6991C16.7276 26.8543 16.9931 27.1463 17.1184 27.2461C17.2438 27.3421 17.2438 27.3791 17.4576 27.3976C17.6715 27.416 17.7452 27.3754 17.7931 27.4345C17.8706 27.5306 17.889 27.5454 18.1286 27.6415C18.3941 27.7449 18.8107 27.623 18.855 27.6156C18.8992 27.6045 19.3232 27.3865 19.3932 27.3348C19.4633 27.283 19.773 27.1167 19.9241 26.2852C20.079 25.4538 20.4219 25.1988 20.5878 25.0657C20.7537 24.9327 21.6975 23.9386 21.8155 23.9571C21.8598 23.9645 21.8819 24.3562 21.8966 24.4745C21.9151 24.5964 21.9999 25.1433 21.9999 25.1729C21.9999 25.2025 22.1289 26.3998 22.1768 26.4663C22.2211 26.5328 22.4238 27.2424 22.5492 27.49C22.6709 27.7339 22.6377 27.8041 22.7188 28.1514C22.7962 28.4988 22.8294 28.8795 22.8441 28.994C22.8552 29.1049 22.8626 30.4315 22.9105 30.8676C22.9548 31.3074 23.0912 31.688 23.2128 32.0576C23.3382 32.4271 23.7142 33.0147 23.9281 33.2475C24.1419 33.4803 24.3779 33.7168 24.3779 33.7168C24.3779 33.7168 24.4885 33.7833 24.5032 33.8277C24.5143 33.872 24.5364 33.9053 24.5475 33.9533C24.5585 33.9977 24.5254 34.0901 24.5254 34.0901C24.5254 34.0901 24.5143 34.1011 24.4258 34.1566C24.3373 34.212 23.7106 34.6259 23.6516 34.6813C23.5963 34.7368 22.7778 35.2061 22.6782 35.2652C22.5787 35.3206 21.9077 35.6828 21.7934 35.7161C21.6791 35.7493 21.3399 35.886 21.1519 36.0523C20.9638 36.2186 20.8274 36.4219 20.7389 36.6584C20.6505 36.8949 20.5583 37.3088 20.5362 37.5121C20.514 37.7153 20.4809 37.7744 20.514 37.974C20.5472 38.1735 20.6247 38.2733 20.6947 38.41C20.7611 38.5468 20.9933 39.0161 21.0634 39.1602C21.1298 39.308 21.2662 39.685 21.3325 39.8771C21.3989 40.0693 21.421 40.1691 21.48 40.4278C21.5353 40.6865 21.6828 41.2703 21.716 41.4255C21.7491 41.5844 21.7418 41.8394 21.8413 42.0205C21.9409 42.2016 22.1068 42.4159 22.2211 42.4603C22.3317 42.5046 22.8147 42.6487 22.9253 42.7485C23.0359 42.8483 23.3751 43.1107 23.4635 43.2326C23.552 43.3583 23.6958 43.6243 23.8101 43.8054C23.9207 43.9865 23.9576 44.1084 24.0903 44.1787C24.2267 44.2452 24.3705 44.3967 24.529 44.5741C24.6876 44.7515 24.7945 44.9547 24.8867 45.0323C24.9752 45.1099 25.1669 45.2245 25.2812 45.121C25.3955 45.0212 25.6167 44.7847 25.7273 44.2563C25.8379 43.7278 25.8748 42.6413 25.7936 42.549C25.7162 42.4603 25.6056 42.1868 25.4471 42.1203C25.2885 42.0538 25.1964 41.8912 24.8646 41.8283C24.529 41.7655 24.4184 41.7507 24.3041 41.7286C24.1935 41.7064 24.1456 41.6953 24.0682 41.6288C23.9908 41.5623 23.9023 41.4366 23.7437 41.2556C23.5852 41.0745 23.3382 40.9082 23.2055 40.4795C23.069 40.0508 22.6819 39.0087 22.6672 38.8535C22.6561 38.6946 22.5086 38.3583 22.5418 38.2216C22.575 38.0848 22.4091 37.8409 22.8331 37.6968C23.2571 37.549 23.6479 37.3458 23.9945 37.2792C24.341 37.2127 24.7208 37.1314 25.0378 37.076C25.3512 37.0243 25.6204 36.9762 25.978 36.8653C26.3393 36.7545 26.5642 36.6954 26.6306 36.6732C26.6932 36.651 26.6932 36.651 26.7633 36.651C26.8297 36.651 26.8297 36.6067 26.8997 36.6621C26.9661 36.7175 27.2721 37.1868 27.3937 37.4012C27.5154 37.6155 27.9873 38.4913 28.1201 38.7057C28.2565 38.92 28.6215 39.5519 28.7026 39.7626C28.78 39.9732 29.086 40.7123 29.1413 40.9045C29.1966 41.0966 29.5764 41.9725 29.6759 42.209C29.7755 42.4455 29.9782 42.9037 30.0704 43.0737C30.1589 43.2437 30.5055 44.0271 30.5497 44.1417C30.5939 44.2563 30.7304 44.7034 30.8188 45.073C30.9073 45.4462 31.0327 45.8453 31.0548 46.0597C31.0769 46.274 31.0659 46.3479 31.0659 46.5511C31.0659 46.7544 30.9774 47.0574 30.9073 47.1831C30.841 47.3087 30.7488 47.5194 30.6161 47.6413C30.4797 47.7633 30.3617 47.8667 30.2142 47.9665C30.0667 48.0663 29.9561 48.1254 29.8197 48.1808C29.6833 48.2363 29.5063 48.4358 29.3847 48.5504C29.2593 48.6613 29.2851 48.6982 29.1487 48.9125C29.0123 49.1269 28.957 49.3819 28.9017 49.5629C28.8464 49.744 28.8759 49.7921 28.8759 49.7921C28.8759 49.7921 28.9054 49.8586 28.9975 49.8734C29.086 49.8881 29.639 49.9399 29.8418 49.9399C30.0446 49.9399 31.2318 49.9399 31.2945 49.9251C31.3571 49.9103 31.4309 49.8881 31.464 49.8512C31.4972 49.8142 31.5599 49.5962 31.5599 49.5371C31.5599 49.478 31.5378 49.3597 31.5747 49.319C31.6115 49.2784 31.6889 49.0678 31.7701 49.053C31.8512 49.0382 31.8991 49.016 31.8991 48.9458C31.8991 48.8793 31.9065 48.8017 31.8475 48.7056C31.7885 48.6095 31.6963 48.5652 31.7258 48.458C31.7553 48.3508 31.7701 48.2584 31.8401 48.1624C31.9065 48.0663 32.2936 47.6376 32.3378 47.56C32.3821 47.4861 32.7803 47.1868 32.548 46.1483C32.3157 45.1062 31.8991 43.5357 31.8917 43.4839C31.8844 43.4322 31.6226 42.7079 31.63 42.294C31.6373 41.8801 31.6595 41.3849 31.5341 41.0486C31.4051 40.716 31.0806 40.0545 31.0364 39.2674C30.9921 38.4803 30.7119 38.3805 30.6677 37.9001C30.6234 37.4197 30.5866 36.9725 30.7414 36.7693C30.9 36.566 30.9516 36.3923 31.088 36.3702C31.2244 36.348 31.2797 36.2889 31.4419 36.3184C31.6078 36.348 32.3341 36.4441 32.5922 36.4588C32.8503 36.4736 33.5914 36.4884 34.1333 36.4588C34.6753 36.4293 35.4901 36.3295 35.7851 36.2741C36.0837 36.2186 36.8395 36.0486 37.2229 35.96C37.6101 35.875 38.5392 35.6163 38.8341 35.5165C39.1327 35.4167 39.7448 35.1174 39.9733 35.0324C40.2019 34.9474 40.884 34.515 40.9725 34.5039C41.0573 34.4892 41.2896 34.2637 41.4002 34.685C41.4186 34.7478 41.6214 35.0841 41.6693 35.1617C41.7209 35.243 42.1191 35.7198 42.156 35.753C42.1891 35.7863 42.5615 36.1263 42.6279 36.1632C42.6943 36.2002 43.1809 36.5401 43.3616 36.6288C43.5422 36.7175 43.9367 36.9023 44.0031 36.9319C44.0695 36.9614 44.4713 37.161 44.5451 37.1942C44.6151 37.2275 45.017 37.416 45.1018 37.4677C45.1866 37.5231 45.3783 37.6192 45.4668 37.6894C45.5553 37.756 45.7654 37.8631 45.8355 37.9222C45.9018 37.9814 46.3074 38.2844 46.3111 38.4729C46.3148 38.6576 46.2041 38.7352 46.1783 38.787C46.1525 38.8387 45.6364 39.4891 45.6216 39.5113C45.6032 39.5335 45.087 40.1469 45.0428 40.1876C44.9985 40.2282 43.8851 41.4071 43.8482 41.4403C43.8114 41.4736 43.4206 41.8764 43.3726 41.9355C43.321 41.9946 43.1477 42.1757 43.074 42.5268C43.0003 42.8779 43.0224 43.1181 43.0371 43.1957C43.0482 43.2733 43.0777 43.4359 43.1072 43.5985C43.1367 43.7574 43.2583 44.1011 43.2805 44.2119C43.3026 44.3228 43.3358 44.5963 43.3358 44.7182C43.3358 44.8402 43.3358 45.1321 43.3395 45.1912C43.3431 45.2503 43.3431 45.4314 43.3763 45.5497C43.4095 45.6679 43.4464 45.7936 43.4943 45.8749C43.5385 45.9562 43.7008 46.1077 43.7339 46.1631C43.7671 46.2186 43.9183 46.3922 43.9404 46.4255C43.9625 46.4588 44.0658 46.5807 44.1137 46.6805C44.1616 46.7766 44.1801 46.8874 44.2575 46.9466C44.3349 47.0057 44.4234 47.0168 44.4566 47.0131C44.4898 47.0094 44.5451 46.9872 44.593 46.9577C44.6409 46.9281 44.7073 46.8579 44.7368 46.8098C44.7663 46.7618 44.8806 46.6066 44.9174 46.5438C44.9543 46.4809 45.1792 46.1336 45.2087 46.0781C45.2382 46.0227 45.4778 45.7271 45.5036 45.6642C45.5294 45.6014 45.6253 45.4351 45.629 45.4093C45.6327 45.3834 45.688 45.3021 45.6917 45.243C45.6954 45.1838 45.6843 45.0286 45.6032 44.8882C45.5221 44.7478 45.3193 44.5852 45.264 44.5076C45.2087 44.43 45.087 44.308 45.028 44.2858C44.969 44.2637 44.9396 44.26 44.9027 44.223C44.8658 44.1861 44.8437 44.1676 44.8621 44.1011C44.8806 44.0345 44.8842 44.0419 44.9137 44.0124C44.9432 43.9828 44.9506 44.0013 44.9912 43.92C45.028 43.8387 45.0243 43.7093 45.028 43.6761C45.0317 43.6428 45.0096 43.0035 45.0244 42.9813C45.0354 42.9592 45.0502 42.8816 45.0723 42.8594C45.0944 42.8372 45.2308 42.6155 45.2529 42.5896C45.2751 42.5637 45.57 42.1499 45.5921 42.1203C45.6143 42.0907 45.9055 41.7286 45.9387 41.6916C45.9719 41.6584 46.2779 41.3221 46.2926 41.3036C46.3074 41.2814 46.794 40.7677 46.8272 40.7419C46.8604 40.716 47.948 39.8217 47.9923 39.7811C48.0365 39.7441 48.6559 39.3154 48.6928 39.297C48.7297 39.2785 48.9988 39.0826 49.0393 39.0568C49.0762 39.0309 49.2163 38.9015 49.2458 38.8757C49.2753 38.8498 49.3085 38.7907 49.3454 38.7907C49.3822 38.7907 49.4818 38.7537 49.5002 38.7796C49.5223 38.8055 49.644 38.8905 49.6661 38.9237C49.6882 38.957 49.8984 39.1418 49.9537 39.1898C50.009 39.2378 50.3076 39.5593 50.3445 39.5926C50.3814 39.6259 50.7206 40.025 50.7427 40.0545C50.7648 40.0841 51.1999 40.6569 51.2109 40.6901C51.222 40.7234 51.4469 41.0523 51.4837 41.1262C51.5206 41.2001 51.7418 41.5734 51.7787 41.6473C51.8156 41.7212 51.9778 42.1277 51.9962 42.1868C52.0183 42.2459 52.2137 42.9518 52.2285 43.0183C52.2432 43.0848 52.5861 43.9865 52.5787 44.7589C52.5714 45.5349 52.6045 46.2666 52.6045 46.3553C52.6045 46.444 52.5824 46.8579 52.5824 46.9613C52.5824 47.0611 52.5824 47.2126 52.5271 47.3568C52.4718 47.5009 52.2912 47.8039 52.2359 47.8483C52.1806 47.8926 51.9114 47.9887 51.6976 48.2991C51.4837 48.6095 51.2699 48.9828 51.2257 49.0493C51.1814 49.1158 51.1224 49.1712 51.0893 49.3153C51.0598 49.4632 51.0303 49.404 51.0819 49.5075C51.1335 49.6073 51.1003 49.5851 51.2035 49.6073C51.3031 49.6295 54.0166 49.6073 54.0166 49.6073C54.0166 49.6073 54.1272 49.5519 54.1641 49.4816C54.1973 49.4151 54.2636 49.0234 54.2526 48.9347C54.2415 48.846 54.1752 48.6539 54.1272 48.5947C54.083 48.5393 53.9539 48.4321 53.9134 48.3915C53.8728 48.3508 53.7917 48.2695 53.8028 48.1919C53.8138 48.1143 53.8655 47.9443 53.9134 47.9222C53.9576 47.9 54.3964 47.3863 54.4406 47.1498C54.4849 46.9133 54.5402 46.5992 54.3742 45.7566C54.2047 44.9141 53.9798 43.9237 53.9687 43.7241C53.9576 43.5246 53.8028 42.7707 53.8138 42.0759C53.8249 41.3812 53.8138 39.4928 53.8138 39.4152C53.8138 39.3376 53.8249 39.1972 53.6664 38.9865C53.5078 38.7759 52.8258 37.9444 52.7705 37.8557C52.7152 37.767 52.0663 37.0243 52.022 36.9466C51.9778 36.869 51.5059 36.2223 51.4837 36.1336C51.4616 36.045 51.1925 35.5719 51.1482 35.3724C51.104 35.1691 51.0155 34.7294 51.0266 34.4411C51.0376 34.1529 51.0561 33.6983 51.1151 33.362C51.1704 33.0258 51.2957 32.5121 51.3289 32.331C51.3621 32.1499 51.4284 31.6954 51.4542 31.5069C51.4764 31.3185 51.5427 30.7087 51.4653 30.014C51.3879 29.3192 51.163 28.2956 51.1409 28.2291C51.1187 28.1625 50.8385 27.6563 50.8054 27.5232C50.7722 27.3865 50.5915 27.1869 50.5694 27.0613C50.5473 26.9356 50.5252 26.8469 50.5362 26.7915C50.5473 26.7361 50.5362 26.7435 50.6136 26.6917C50.6911 26.64 50.7353 26.64 50.8164 26.6511C50.8938 26.6622 50.9565 26.6474 51.0745 26.6917C51.1962 26.7361 51.716 26.8839 51.904 27.0761C52.0921 27.2682 52.4423 27.7154 52.5419 27.9962C52.6414 28.2771 52.8553 29.1307 52.8811 29.2453C52.9032 29.3562 53.1576 30.9193 53.2387 31.1669C53.3161 31.4108 53.5631 32.076 53.6442 32.2017C53.7217 32.3273 54.1678 33.0295 54.4259 33.2992C54.6839 33.569 55.3402 34.2083 55.9596 34.5816C56.579 34.9548 57.1247 35.5461 57.25 35.7715C57.3717 35.9969 57.8436 36.6658 57.9542 37.0612C58.0648 37.4566 58.3266 38.1625 58.3598 38.3103C58.3929 38.4581 58.5404 38.9385 58.5515 39.0383C58.5625 39.1381 58.592 39.2748 58.6621 39.3524C58.7284 39.43 58.8096 39.4559 58.8427 39.4633C58.8759 39.4743 58.9681 39.4226 58.9791 39.3783C58.9902 39.3339 59.0197 39.2674 59.0308 39.1935C59.0418 39.1196 59.1045 38.0664 59.1008 37.9222C59.0971 37.7744 59.0898 37.1942 59.0713 37.0243C59.0529 36.8543 58.9202 36.0708 58.9017 35.9341C58.8796 35.7974 58.4482 34.5705 58.3745 34.3857C58.3008 34.2046 57.6666 33.2031 57.5708 33.0701C57.4749 32.9334 57.1394 32.2165 57.062 31.9356C56.9882 31.6547 56.7855 30.8159 56.7449 30.5683C56.7044 30.3207 56.4315 29.5299 56.3799 29.3636C56.3246 29.1973 56.0444 28.5986 55.9117 28.399C55.7789 28.2032 55.4987 27.6415 54.7429 27.1278C53.9871 26.6141 53.5447 26.2852 52.8073 25.9416C52.07 25.5979 51.7197 25.3909 50.8865 25.2801C50.0496 25.1692 49.2495 25.2209 49.15 25.1988C49.0504 25.1803 49.1057 25.184 48.9324 25.1249C48.7628 25.0657 48.0734 24.7405 47.8596 24.6592C47.6494 24.5779 47.5462 24.5521 47.2291 24.4782C46.912 24.4042 46.4401 24.2823 46.0567 24.2416C45.6732 24.201 45.3709 24.1714 45.1276 24.1493C44.8806 24.1308 44.663 24.1086 44.4713 24.1049C44.2796 24.1012 44.0178 24.1049 43.9404 24.1086C43.8593 24.1123 43.321 24.1751 43.1588 24.2047C42.9966 24.2343 42.2998 24.4079 42.1818 24.4264C42.0675 24.4449 39.8959 25.099 38.8562 25.1988C37.8165 25.2986 36.3418 25.4944 34.6974 25.2579C33.0531 25.0214 32.2235 24.8292 31.6373 24.3747C31.0511 23.9201 30.4686 23.351 29.2888 21.6253C28.109 19.8958 27.2094 18.9165 26.9919 18.7169C26.7743 18.5174 25.742 17.8115 25.366 17.6748C24.9899 17.5344 24.1751 17.1464 23.6405 17.0281C23.1059 16.9099 21.8966 16.7694 21.6607 16.751C21.4247 16.7325 20.1343 16.7509 19.9352 16.7325C19.7361 16.714 19.2826 16.714 19.2826 16.714H19.0725C19.0725 16.714 19.0319 16.6992 18.9176 16.6253C18.8033 16.5514 18.5932 16.3888 18.5932 16.3888C18.5932 16.3888 18.2724 16.1449 18.2392 16.1153C18.2061 16.0858 18.0697 15.9675 18.0365 15.9306C18.0033 15.8973 17.9296 15.8271 17.9001 15.7938C17.8706 15.7606 17.8484 15.7236 17.7968 15.7014C17.7452 15.6793 17.7268 15.6719 17.7047 15.6719C17.6715 15.6793 17.5867 15.7014 17.5867 15.7014Z" fill="white"/>
<path fill-rule="evenodd" clip-rule="evenodd" d="M4.67102 69.4489C4.67102 69.9958 4.43506 70.1547 3.67556 70.273V70.5464H12.996C13.0144 69.4119 13.055 68.2553 13.1508 67.1208H12.8006C12.6236 68.9426 12.0964 69.4526 10.3009 69.4526H6.5845V59.1127C6.5845 58.6618 6.83889 58.3699 7.83435 58.2886V58.0151C7.17071 58.0151 6.37066 58.1334 5.62592 58.1334C4.88485 58.1334 4.08112 58.0151 3.67188 58.0151V58.2886C4.43506 58.4069 4.66733 58.5621 4.66733 59.1127V69.4489H4.67102Z" fill="black"/>
<path fill-rule="evenodd" clip-rule="evenodd" d="M16.3008 70.6606C16.71 70.6606 17.5138 70.5423 18.2548 70.5423C18.9959 70.5423 19.7996 70.6606 20.2089 70.6606V70.3871C19.4457 70.2689 19.2134 70.1137 19.2134 69.563V59.1049C19.2134 58.5579 19.4494 58.399 20.2089 58.2808V58.0073C19.7996 58.0073 18.9959 58.1256 18.2548 58.1256C17.5138 58.1256 16.71 58.0073 16.3008 58.0073V58.2808C17.064 58.399 17.2962 58.5543 17.2962 59.1049V69.563C17.2962 70.11 17.0603 70.2689 16.3008 70.3871V70.6606Z" fill="black"/>
<path fill-rule="evenodd" clip-rule="evenodd" d="M25.0306 69.5634C25.0306 70.1104 24.7947 70.2693 24.0352 70.3875V70.661C24.4444 70.661 25.2481 70.5427 25.9892 70.5427C26.7303 70.5427 27.534 70.661 27.9432 70.661V70.3875C27.1801 70.2693 26.9478 70.1141 26.9478 69.5634V59.1053H27.4566C30.0927 59.1053 31.8329 59.4785 31.8329 61.984C31.8329 63.8244 30.4245 64.8443 28.5884 64.8443H27.416C27.239 64.8443 27.1432 64.9035 27.1432 64.9995C27.1432 65.0956 27.2022 65.1363 27.2612 65.1954C27.6114 65.528 28.6696 65.7054 29.1378 65.7054C31.7739 65.7054 33.6321 64.1791 33.6321 61.7882C33.6321 59.6152 32.3638 58.126 29.783 58.126H24.0352V58.3994C24.7983 58.5177 25.0306 58.6729 25.0306 59.2235V69.5634Z" fill="black"/>
<path fill-rule="evenodd" clip-rule="evenodd" d="M36.6602 70.6611C37.0694 70.6611 37.8731 70.5428 38.6142 70.5428C39.3553 70.5428 40.159 70.6611 40.5682 70.6611V70.3876C39.8051 70.2694 39.5728 70.1141 39.5728 69.5635V59.1054C39.5728 58.5584 39.8087 58.3995 40.5682 58.2813V58.0078C40.159 58.0078 39.3553 58.1261 38.6142 58.1261C37.8731 58.1261 37.0694 58.0078 36.6602 58.0078V58.2813C37.4233 58.3995 37.6556 58.5547 37.6556 59.1054V69.5635C37.6556 70.1104 37.4197 70.2694 36.6602 70.3876V70.6611Z" fill="black"/>
<path fill-rule="evenodd" clip-rule="evenodd" d="M54.5981 68.2514C53.5031 68.9757 52.1943 69.5226 50.8486 69.5226C48.0945 69.5226 45.9635 66.7621 45.9635 63.7466C45.9635 60.8864 47.9175 59.0275 50.5168 59.0275C51.8846 59.0275 53.5437 59.5745 53.9345 61.3594H54.2073C54.1114 60.3801 54.0303 59.4008 54.0119 58.4215C53.1123 57.9891 52.0394 57.8154 51.044 57.8154C48.3083 57.8154 44.168 59.6373 44.168 64.397C44.168 68.9794 47.6631 70.8604 50.2034 70.8604C51.8625 70.8604 53.4847 70.3726 54.5207 69.3527L54.5981 68.2514Z" fill="black"/>
<path fill-rule="evenodd" clip-rule="evenodd" d="M61.218 64.904L62.9582 60.0481H62.9988L64.739 64.904H61.218ZM57.332 70.6615C57.9182 70.6615 58.5045 70.5432 59.0907 70.5432C59.5995 70.5432 60.1267 70.6615 60.6355 70.6615V70.388C59.8133 70.3695 59.6216 70.1922 59.6216 69.9002C59.6216 69.6268 59.7396 69.1168 59.935 68.5883L60.8935 65.887H65.0929L65.8929 68.0414C66.3022 69.1168 66.4202 69.4531 66.4202 69.8041C66.4202 70.1774 66.2063 70.3326 65.5206 70.3917V70.6652C66.2838 70.6652 67.0433 70.5469 67.8064 70.5469C68.3152 70.5469 68.8019 70.6652 69.3107 70.6652V70.3917C68.6065 70.255 68.5106 70.1183 68.0018 68.8064L64.6984 60.1701C64.3481 59.2499 64.1122 58.5626 64.0348 58.0156C63.7029 58.0748 63.3527 58.1339 63.0172 58.1339C62.5268 58.1339 62.0217 58.0748 61.5314 58.0156V58.2891C61.9627 58.3852 62.1581 58.4443 62.1581 58.8951C62.1581 59.1317 62.0992 59.346 62.0402 59.5418L58.5634 69.0983C58.1726 70.1737 57.9957 70.3695 57.332 70.3917V70.6615Z" fill="black"/>
<path d="M69.3174 74.5039H3.6875V84.308H69.3174V74.5039Z" fill="#009247"/>
<path fill-rule="evenodd" clip-rule="evenodd" d="M19.0522 81.284C19.0522 81.6462 18.9674 81.7386 18.6134 81.7977V81.9566C18.9231 81.9308 19.2254 81.9049 19.5646 81.9049C19.9038 81.9049 20.2061 81.9308 20.4237 81.9566V81.7977C20.1582 81.7386 20.0771 81.6462 20.0771 81.3284V77.4075C20.0771 77.1045 20.1582 76.5612 20.1582 76.4947C20.1582 76.443 20.1361 76.4023 20.1066 76.4023C20.055 76.4023 19.6384 76.6721 18.96 76.8199L18.4844 76.9308V77.0897H18.5987C18.9452 77.0897 19.0522 77.2153 19.0522 77.5664V81.284Z" fill="white"/>
<path fill-rule="evenodd" clip-rule="evenodd" d="M29.1705 82.0897C30.7448 82.0047 32.1532 81.0846 32.1532 79.7062C32.1532 78.8008 31.4527 78.3721 30.6452 78.3721C30.2839 78.3721 29.989 78.4238 29.6866 78.531L29.7788 77.5739H31.9356L32.0352 76.5835H29.2258L29.0156 79.1518C29.2958 79.0188 29.5945 78.9597 29.7936 78.9597C30.5162 78.9597 30.9549 79.2294 30.9549 79.8983C30.9549 80.9294 29.93 81.4171 29.0193 81.5502L29.1705 82.0897Z" fill="white"/>
<path fill-rule="evenodd" clip-rule="evenodd" d="M41.1622 77.6347C41.1622 77.3058 41.3649 77.0877 41.682 77.0877C42.0433 77.0877 42.2608 77.2725 42.2608 77.7086C42.2608 78.0523 42.0876 78.3294 41.87 78.5216C41.5935 78.3294 41.1622 78.0449 41.1622 77.6347ZM41.7594 79.7004C42.2424 80.0183 42.3715 80.3213 42.3715 80.6502C42.3715 81.1047 42.047 81.4041 41.6415 81.4041C41.1806 81.4041 40.8672 81.0086 40.8672 80.5061C40.8672 80.1698 41.0036 79.8335 41.2728 79.6413L41.4829 79.5083L41.7594 79.7004ZM39.8828 80.495C39.8828 81.393 40.5317 82.0877 41.6304 82.0877C42.6111 82.0877 43.4407 81.5075 43.4407 80.3915C43.4407 79.7854 43.1383 79.4011 42.4821 78.9244C42.9577 78.6731 43.2416 78.3627 43.2416 77.7418C43.2416 76.7588 42.4452 76.4004 41.6451 76.4004C40.9004 76.4004 40.093 76.8623 40.093 77.801C40.093 78.4292 40.4395 78.7655 40.8598 79.0759C40.3031 79.2866 39.8828 79.7559 39.8828 80.495Z" fill="white"/>
<path fill-rule="evenodd" clip-rule="evenodd" d="M51.9559 79.2454C51.9559 77.9446 52.1292 77.0873 52.7006 77.0873C53.2721 77.0873 53.4454 77.9446 53.4454 79.2454C53.4454 80.5462 53.2721 81.4036 52.7006 81.4036C52.1292 81.4036 51.9559 80.5462 51.9559 79.2454ZM50.8867 79.2454C50.8867 80.6201 51.3992 82.0909 52.7043 82.0909C54.0095 82.0909 54.5183 80.6238 54.5183 79.2454C54.5183 77.8707 54.0058 76.3999 52.7043 76.3999C51.3992 76.3999 50.8867 77.8707 50.8867 79.2454Z" fill="white"/>
</svg>
