<svg width="1287" height="305" viewBox="0 0 1287 305" fill="none" xmlns="http://www.w3.org/2000/svg">
    <path d="M34.5205 184.744C45.7571 184.744 54.0849 189.759 58.9375 198.978V187.091H83.5967V267.962C83.5966 292.466 67.1045 305 42.1211 305C15.6032 305 2.1821 293.274 1.86035 275.4H26.8398C27.4063 283.409 33.549 287.612 42.2822 287.612C53.0363 287.612 58.6933 281.062 58.6934 269.983V263.755C58.6934 261.734 60.071 260.198 62.0078 260.198H66.5381C71.5479 260.198 75.6707 256.719 75.6709 251.627C75.6709 246.451 72.1949 242.891 67.1045 242.891C62.0913 242.891 59.0989 246.451 57.8857 251.543C56.8334 255.589 55.2182 258.984 53.1172 261.572C49.0722 266.423 43.0901 268.769 34.3604 268.77C13.0165 268.77 8.51203e-05 251.788 0 227.042C0 202.212 13.0963 184.744 34.5205 184.744ZM988.685 184.744C999.921 184.744 1008.25 189.759 1013.1 198.978V187.091H1037.76V267.962C1037.76 292.466 1021.27 305 996.282 305C969.764 305 956.346 293.274 956.021 275.4H981.004C981.567 283.409 987.713 287.612 996.446 287.612C1007.2 287.612 1012.86 281.062 1012.86 269.983V263.755C1012.86 261.734 1014.23 260.198 1016.17 260.198H1020.7C1025.71 260.198 1029.83 256.718 1029.83 251.627C1029.83 246.451 1026.36 242.891 1021.27 242.891C1016.25 242.891 1013.26 246.451 1012.05 251.543C1011 255.589 1009.38 258.984 1007.28 261.572C1003.24 266.423 997.254 268.77 988.521 268.77C967.177 268.77 954.16 251.788 954.16 227.042C954.16 202.212 967.257 184.744 988.685 184.744ZM140.237 184.744C163.927 184.744 180.82 200.191 180.82 228.577C180.82 231.085 180.82 233.512 180.743 235.774H130.616C125.603 235.774 122.208 232.539 122.208 227.85C122.208 223.076 125.603 219.841 130.616 219.841H155.76C154.949 207.388 149.453 201.971 140.237 201.971C131.665 201.971 125.442 207.468 123.582 216.771C123.177 218.792 122.127 219.6 119.862 219.6H118.327C113.478 219.6 109.839 222.835 109.839 227.688C109.839 232.459 113.478 235.693 118.327 235.693H120.106C122.047 235.693 123.099 236.582 123.26 238.688C124.148 250.735 130.777 257.285 140.72 257.285C149.048 257.285 154.547 252.595 155.76 244.185H180.419C178.073 263.188 163.2 274.753 140.237 274.753C114.771 274.753 97.4688 260.117 97.4688 229.79C97.4689 201.079 115.74 184.744 140.237 184.744ZM233.325 184.744C258.791 184.744 275.531 202.051 275.531 229.71C275.531 257.365 258.791 274.753 233.325 274.753C207.776 274.753 191.043 257.365 191.043 229.71C191.043 202.051 207.776 184.744 233.325 184.744ZM370.266 184.744C395.735 184.744 412.468 202.051 412.468 229.71C412.468 257.365 395.735 274.753 370.266 274.753C344.72 274.753 327.983 257.365 327.983 229.71C327.983 202.051 344.719 184.744 370.266 184.744ZM461.043 184.744C485.782 184.744 497.991 197.442 498.802 212.725H473.573C473.332 205.527 468.563 201.243 460.638 201.243C453.282 201.243 448.353 204.8 448.353 210.056C448.353 214.263 451.341 216.69 457.974 217.984L474.062 221.055C492.333 224.534 500.256 232.62 500.256 246.045C500.256 265.454 483.52 274.753 462.096 274.753C437.518 274.753 422.236 264.321 421.67 245.64H447.38C447.625 253.568 453.607 258.097 462.421 258.097C470.343 258.097 475.192 254.777 475.192 249.199C475.192 244.345 471.797 242.163 464.519 240.708L449.24 237.715C431.05 234.158 423.288 225.989 423.288 213.13C423.288 196.634 437.032 184.744 461.043 184.744ZM808.451 184.744C833.917 184.744 850.653 202.051 850.653 229.71C850.653 257.365 833.917 274.753 808.451 274.753C782.905 274.753 766.169 257.365 766.169 229.71C766.169 202.051 782.905 184.744 808.451 184.744ZM1158.21 184.744C1181.9 184.744 1198.8 200.191 1198.8 228.577C1198.8 231.085 1198.8 233.512 1198.72 235.774H1148.59C1143.58 235.774 1140.18 232.539 1140.18 227.85C1140.18 223.076 1143.58 219.841 1148.59 219.841H1173.74C1172.93 207.388 1167.43 201.971 1158.21 201.971C1149.64 201.971 1143.42 207.468 1141.56 216.771C1141.15 218.792 1140.1 219.6 1137.84 219.6H1136.3C1131.45 219.6 1127.81 222.835 1127.81 227.688C1127.81 232.459 1131.45 235.693 1136.3 235.693H1138.08C1140.02 235.693 1141.07 236.582 1141.24 238.688C1142.12 250.735 1148.75 257.285 1158.7 257.285C1167.02 257.285 1172.52 252.595 1173.74 244.185H1198.39C1196.05 263.188 1181.17 274.753 1158.21 274.753C1132.75 274.753 1115.44 260.117 1115.44 229.79C1115.44 201.079 1133.72 184.744 1158.21 184.744ZM1247.79 184.744C1272.53 184.744 1284.74 197.442 1285.55 212.725H1260.32C1260.08 205.527 1255.31 201.243 1247.38 201.243C1240.03 201.243 1235.1 204.8 1235.1 210.056C1235.1 214.263 1238.09 216.69 1244.72 217.984L1260.81 221.055C1279.08 224.534 1287 232.62 1287 246.045C1287 265.454 1270.26 274.753 1248.84 274.753C1224.26 274.753 1208.98 264.321 1208.42 245.64H1234.13C1234.37 253.568 1240.35 258.097 1249.17 258.097C1257.09 258.097 1261.94 254.777 1261.94 249.199C1261.94 244.345 1258.54 242.163 1251.27 240.708L1235.99 237.715C1217.79 234.158 1210.03 225.989 1210.03 213.13C1210.03 196.634 1223.78 184.744 1247.79 184.744ZM313.897 272.41H289.4V156.438H313.897V272.41ZM538.966 208.843C538.966 210.703 537.591 212.161 535.731 212.161H532.903C527.404 212.161 523.442 216.285 523.442 221.3C523.443 226.395 527.404 230.112 532.417 230.112C537.025 230.112 540.986 226.23 540.986 221.135V218.064C540.986 215.312 542.119 213.455 544.301 211.028L565.563 187.09H595.4L564.19 220.572L597.823 272.41H569.039L548.101 237.876L538.965 247.661V272.41H514.468V156.438H538.966V208.843ZM630.788 272.41H606.294V187.09H630.788V272.41ZM707.976 208.843C707.975 210.703 706.602 212.161 704.742 212.161H701.913C696.414 212.161 692.453 216.285 692.453 221.3C692.453 226.395 696.414 230.112 701.428 230.112C706.036 230.112 709.997 226.23 709.997 221.135V218.064C709.997 215.312 711.129 213.455 713.311 211.028L734.574 187.09H764.407L733.2 220.572L766.833 272.41H738.053L717.111 237.876L707.976 247.661V272.41H683.479V156.438H707.976V208.843ZM913.682 184.744C930.823 184.744 940.928 196.715 940.928 214.585V272.41H916.43V216.525C916.43 208.279 912.308 203.506 904.386 203.506C894.684 203.506 889.104 210.948 889.104 224.454V272.41H864.606V187.09H886.517V194.854C886.517 196.955 885.223 198.169 883.202 198.169H878.515C873.501 198.169 869.54 201.81 869.54 206.821C869.54 211.675 873.095 215.477 878.028 215.477C882.797 215.477 885.71 212.322 886.923 206.821C890.237 192.833 898.32 184.744 913.682 184.744ZM1104.13 185.636C1105.75 185.636 1107.36 185.797 1108.49 186.038V209.734C1106.31 209.168 1104.05 208.927 1101.62 208.927C1089.98 208.927 1080.12 216.606 1080.12 232.944V272.41H1055.62V187.09H1077.69V194.935C1077.69 196.715 1076.32 198.169 1074.38 198.169H1070.49C1065.65 198.169 1061.44 201.565 1061.44 206.821C1061.44 211.675 1065.08 215.476 1069.93 215.477C1074.7 215.477 1077.45 212.077 1078.58 206.821C1079.39 202.94 1080.76 199.544 1082.62 196.715C1087.15 189.598 1094.51 185.636 1104.13 185.636ZM233.325 203.506C222.736 203.506 216.268 212.322 216.268 229.71C216.268 247.098 222.736 255.991 233.325 255.991C243.918 255.991 250.303 247.178 250.303 229.71C250.303 212.242 243.919 203.506 233.325 203.506ZM370.266 203.506C359.676 203.506 353.208 212.322 353.208 229.71C353.208 247.098 359.676 255.991 370.266 255.991C380.855 255.991 387.247 247.178 387.247 229.71C387.247 212.242 380.855 203.506 370.266 203.506ZM808.451 203.506C797.862 203.506 791.394 212.322 791.394 229.71C791.394 247.098 797.862 255.991 808.451 255.991C819.044 255.991 825.429 247.178 825.429 229.71C825.429 212.242 819.044 203.506 808.451 203.506ZM42.1211 203.426C31.2869 203.426 25.546 212.724 25.5459 226.877C25.5459 240.949 31.2868 250.333 42.1211 250.333C52.9521 250.333 58.8545 240.949 58.8545 226.877C58.8544 212.724 52.9521 203.426 42.1211 203.426ZM996.282 203.426C985.448 203.426 979.71 212.724 979.71 226.877C979.71 240.949 985.448 250.333 996.282 250.333C1007.12 250.333 1013.02 240.949 1013.02 226.877C1013.02 212.724 1007.12 203.426 996.282 203.426ZM203.895 221.135C199.126 221.135 195.329 225.017 195.329 229.79C195.329 234.56 199.126 238.362 203.895 238.362C208.586 238.362 212.548 234.56 212.548 229.79C212.548 225.017 208.586 221.135 203.895 221.135ZM262.672 221.135C257.903 221.135 254.104 225.017 254.104 229.79C254.104 234.56 257.903 238.362 262.672 238.362C267.444 238.362 271.245 234.56 271.245 229.79C271.245 225.017 267.444 221.135 262.672 221.135ZM340.839 221.135C336.067 221.135 332.267 225.017 332.267 229.79C332.267 234.56 336.067 238.362 340.839 238.362C345.527 238.362 349.488 234.56 349.488 229.79C349.488 225.017 345.527 221.135 340.839 221.135ZM399.616 221.135C394.844 221.135 391.044 225.017 391.044 229.79C391.044 234.56 394.844 238.362 399.616 238.362C404.385 238.362 408.186 234.56 408.186 229.79C408.185 225.017 404.385 221.135 399.616 221.135ZM779.024 221.135C774.252 221.135 770.452 225.017 770.452 229.79C770.452 234.56 774.252 238.362 779.024 238.362C783.713 238.362 787.674 234.56 787.674 229.79C787.674 225.017 783.713 221.135 779.024 221.135ZM837.798 221.135C833.029 221.135 829.23 225.017 829.229 229.79C829.229 234.56 833.029 238.362 837.798 238.362C842.57 238.362 846.371 234.56 846.371 229.79C846.371 225.017 842.57 221.135 837.798 221.135ZM462.176 221.782C457.974 221.782 454.659 225.101 454.659 229.224C454.659 233.347 458.051 236.662 462.257 236.662C466.302 236.662 469.616 233.347 469.616 229.224C469.616 225.101 466.217 221.782 462.176 221.782ZM1248.92 221.782C1244.72 221.782 1241.4 225.101 1241.4 229.224C1241.4 233.347 1244.8 236.662 1249 236.662C1253.05 236.662 1256.36 233.347 1256.36 229.224C1256.36 225.101 1252.97 221.782 1248.92 221.782ZM461.529 165.254L470.099 153.608H492.575L472.686 178.435H450.453L430.242 153.608H452.8L461.529 165.254ZM631.438 176.738H605.728V155.228H631.438V176.738ZM406.699 29.5195C431.438 29.5195 443.647 42.214 444.458 57.5H419.229C418.988 50.303 414.22 46.0157 406.294 46.0156C398.938 46.0156 394.008 49.5758 394.008 54.832C394.008 59.0354 396.998 61.4619 403.63 62.7559L419.719 65.8301C437.99 69.3062 445.912 77.3953 445.912 90.8174C445.912 110.226 429.176 119.529 407.752 119.529C383.174 119.529 367.893 109.097 367.326 90.415H393.036C393.281 98.3396 399.263 102.868 408.077 102.868C415.999 102.868 420.849 99.5531 420.849 93.9717C420.849 89.1213 417.454 86.9353 410.175 85.4805L394.896 82.4902C376.706 78.9301 368.944 70.7608 368.944 57.9053C368.945 41.406 382.688 29.5196 406.699 29.5195ZM540.71 29.5195C566.179 29.5196 582.912 46.8235 582.912 74.4824C582.912 102.141 566.179 119.529 540.71 119.529C515.164 119.529 498.428 102.141 498.428 74.4824C498.428 46.8235 515.164 29.5195 540.71 29.5195ZM717.922 29.5195C741.612 29.5195 758.509 44.9668 758.509 73.3496C758.509 75.8569 758.509 78.2838 758.429 80.5498H708.301C703.288 80.5497 699.893 77.315 699.893 72.6221C699.893 67.852 703.287 64.6173 708.301 64.6172H733.445C732.638 52.1639 727.138 46.7432 717.922 46.7432C709.353 46.7434 703.127 52.2442 701.267 61.543C700.861 63.5641 699.812 64.375 697.547 64.375H696.012C691.163 64.3751 687.523 67.6105 687.523 72.4609C687.523 77.2309 691.163 80.4657 696.012 80.4658H697.792C699.732 80.466 700.781 81.3576 700.945 83.459C701.833 95.5101 708.462 102.06 718.408 102.061C726.733 102.061 732.232 97.3706 733.445 88.96H758.104C755.758 107.963 740.882 119.529 717.923 119.529C692.457 119.529 675.154 104.89 675.154 74.5625C675.154 45.8547 693.425 29.5197 717.922 29.5195ZM901.449 29.5195C926.188 29.5196 938.396 42.2141 939.204 57.5H913.979C913.738 50.3029 908.965 46.0156 901.043 46.0156C893.687 46.0157 888.754 49.5759 888.754 54.832C888.754 59.0354 891.747 61.4619 898.376 62.7559L914.465 65.8301C932.736 69.3062 940.658 77.3953 940.658 90.8174C940.658 110.226 923.922 119.529 902.498 119.529C877.92 119.529 862.642 109.097 862.075 90.415H887.786C888.027 98.3396 894.009 102.868 902.823 102.868C910.745 102.868 915.598 99.5531 915.598 93.9717C915.598 89.1212 912.199 86.9353 904.924 85.4805L889.646 82.4902C871.452 78.9301 863.69 70.7607 863.69 57.9053C863.691 41.406 877.438 29.5195 901.449 29.5195ZM297.977 24.8262C280.678 40.8396 261.435 70.1985 260.222 117.183H233.944C235.479 75.2903 251.652 49.2498 265.231 32.0264C267.577 28.9526 270.406 26.3653 274.286 26.3652H277.601C283.02 26.3652 287.222 22.1579 287.222 16.8213C287.222 11.4042 283.1 7.3584 277.601 7.3584C272.35 7.35847 268.224 11.5649 268.224 16.9014V17.874C268.224 21.2696 266.689 22.8857 262.645 22.8857H216.726V1.21387H297.977V24.8262ZM321.673 117.183H296.609V91.709H321.673V117.183ZM484.342 117.183H459.844V1.21387H484.342V117.183ZM626.285 81.1963C626.61 82.1648 626.77 82.9729 626.771 83.7002C626.771 84.9941 626.369 85.9669 625.316 87.0195L622.81 89.5234C620.869 91.4643 619.978 93.8914 619.978 96.3184C619.978 101.655 624.184 105.942 629.438 105.942C634.774 105.942 638.899 101.655 638.899 96.3184C638.899 93.9718 638.011 91.4643 636.067 89.5234L633.563 87.0195C632.592 86.0474 632.187 85.1587 632.187 83.9453C632.187 83.1375 632.432 82.1652 632.673 81.3574L647.227 31.8623H672.532L643.263 117.183H615.209L585.136 31.8623H611.168L626.285 81.1963ZM821.957 29.5195C839.099 29.5195 849.202 41.4865 849.202 59.3604V117.183H824.705V61.3018C824.705 53.0521 820.583 48.2813 812.661 48.2812C802.959 48.2812 797.379 55.7199 797.379 69.2256V117.183H772.882V31.8623H794.792V39.626C794.792 41.7313 793.498 42.9414 791.478 42.9414H786.789C781.776 42.9416 777.815 46.582 777.814 51.5967C777.814 56.4472 781.371 60.249 786.304 60.249C791.072 60.2489 793.984 57.0941 795.197 51.5967C798.512 37.6047 806.595 29.5196 821.957 29.5195ZM978.924 53.6182C978.924 55.4786 977.549 56.9336 975.689 56.9336H972.861C967.362 56.9336 963.401 61.0565 963.4 66.0713C963.4 71.1666 967.362 74.8876 972.375 74.8877C976.983 74.8877 980.944 71.0063 980.944 65.9111V62.8369C980.944 60.0882 982.077 58.2278 984.259 55.8008L1005.52 31.8623H1035.35L1004.15 65.3438L1037.78 117.183H1009L988.059 82.6514L978.923 92.4365V117.183H954.426V1.21387H978.924V53.6182ZM1070.75 117.183H1046.25V31.8623H1070.75V117.183ZM540.71 48.2812C530.12 48.2812 523.652 57.0946 523.652 74.4824C523.652 91.8701 530.12 100.767 540.71 100.767C551.3 100.767 557.69 91.9505 557.69 74.4824C557.69 57.0142 551.3 48.2813 540.71 48.2812ZM511.283 65.9111C506.511 65.9111 502.71 69.7924 502.71 74.5625C502.71 79.3361 506.511 83.1377 511.283 83.1377C515.971 83.1375 519.933 79.336 519.933 74.5625C519.933 69.7926 515.971 65.9113 511.283 65.9111ZM570.06 65.9111C565.288 65.9114 561.487 69.7926 561.487 74.5625C561.487 79.336 565.288 83.1375 570.06 83.1377C574.828 83.1377 578.629 79.3361 578.629 74.5625C578.629 69.7924 574.828 65.9111 570.06 65.9111ZM407.832 66.5576C403.63 66.5576 400.315 69.8729 400.315 73.9961C400.315 78.1226 403.706 81.4383 407.912 81.4385C411.957 81.4385 415.271 78.1227 415.271 73.9961C415.271 69.873 411.874 66.5576 407.832 66.5576ZM902.582 66.5576C898.376 66.5576 895.062 69.8729 895.062 73.9961C895.062 78.1227 898.456 81.4385 902.662 81.4385C906.704 81.4384 910.018 78.1227 910.018 73.9961C910.018 69.8731 906.623 66.5578 902.582 66.5576ZM1071.4 21.5107H1045.69V0H1071.4V21.5107Z" fill="white"/>
</svg>
