<svg width="1344" height="928" viewBox="0 0 1344 928" fill="none" xmlns="http://www.w3.org/2000/svg">
    <path d="M1191.65 15.9999C1188.74 14.8124 1185.67 14.0312 1182.49 13.6993C1182.19 10.5024 1181.43 7.40255 1180.26 4.47206C1184.97 7.2716 1188.9 11.2497 1191.65 15.9999ZM1145.27 47.2031C1145.27 41.9833 1146.45 36.9464 1148.68 32.3926C1146.25 27.6808 1144.96 22.4226 1144.96 16.9657C1144.96 16.3042 1144.98 15.6473 1145.02 14.9925C1141.59 15.4034 1138.34 16.3584 1135.33 17.765C1133.2 22.0523 1132 26.8861 1132 31.9998C1132 36.9397 1133.12 41.6153 1135.11 45.7921C1138.26 47.3138 1141.69 48.3365 1145.31 48.7519C1145.29 48.2372 1145.27 47.7201 1145.27 47.2031ZM1148.85 13.0698C1154.33 13.0698 1159.6 14.3725 1164.33 16.8267C1168.83 14.6593 1173.79 13.5101 1178.93 13.5101C1179.55 13.5101 1180.17 13.5304 1180.78 13.562C1180.39 9.87294 1179.37 6.37125 1177.84 3.1653C1173.64 1.13789 1168.93 0 1163.96 0C1158.83 0 1153.98 1.21463 1149.68 3.3685C1148.26 6.39157 1147.3 9.67653 1146.88 13.1286C1147.54 13.0902 1148.19 13.0698 1148.85 13.0698ZM1182.65 16.9668C1182.65 22.277 1181.43 27.3974 1179.13 32.0099C1181.34 36.5479 1182.51 41.5645 1182.51 46.7617C1182.51 47.4232 1182.49 48.0802 1182.45 48.735C1186.17 48.2902 1189.69 47.2042 1192.9 45.5945C1194.84 41.4697 1195.93 36.8617 1195.93 32.0009C1195.93 27.1468 1194.84 22.5479 1192.91 18.4276C1189.74 16.8788 1186.27 15.838 1182.62 15.418C1182.64 15.9328 1182.65 16.4498 1182.65 16.9668ZM1147.25 4.71928C1142.94 7.3721 1139.31 11.0205 1136.67 15.344C1139.38 14.2919 1142.23 13.5898 1145.16 13.2715C1145.48 10.3161 1146.19 7.4466 1147.25 4.71928ZM1172.79 40.7906C1170.65 42.9422 1168.26 44.7664 1165.69 46.2384C1169.64 47.9904 1174.01 48.9657 1178.62 48.9657C1179.33 48.9657 1180.04 48.9386 1180.75 48.8935C1180.79 48.1891 1180.82 47.4779 1180.82 46.7622C1180.82 42.1791 1179.85 37.8217 1178.12 33.8775C1176.67 36.3723 1174.89 38.6955 1172.79 40.7906ZM1136.41 48.2241C1139.13 52.8456 1142.98 56.7221 1147.57 59.4742C1146.45 56.6092 1145.73 53.5861 1145.43 50.4727C1142.3 50.1454 1139.28 49.38 1136.41 48.2241ZM1149.7 34.2324C1147.94 38.197 1146.96 42.5859 1146.96 47.2029C1146.96 47.7741 1146.98 48.3408 1147.01 48.903C1147.67 48.9436 1148.33 48.9662 1149 48.9662C1153.6 48.9662 1157.97 47.9909 1161.92 46.2389C1159.36 44.7669 1156.97 42.9427 1154.82 40.7911C1152.82 38.7953 1151.11 36.5917 1149.7 34.2324ZM1191.61 48.0588C1188.66 49.2938 1185.54 50.1065 1182.31 50.4565C1181.96 53.6737 1181.15 56.7848 1179.93 59.7244C1184.77 56.9271 1188.81 52.8948 1191.61 48.0588ZM1178.14 30.1293C1179.95 26.1151 1180.96 21.6584 1180.96 16.9669C1180.96 16.3957 1180.94 15.8312 1180.91 15.2668C1180.26 15.2262 1179.59 15.2059 1178.93 15.2059C1174.39 15.2059 1170.08 16.1518 1166.17 17.8564C1168.5 19.2629 1170.68 20.9607 1172.65 22.9362C1174.82 25.1104 1176.66 27.5284 1178.14 30.1293ZM1155.13 23.3794C1157.34 21.1646 1159.81 19.2975 1162.46 17.8029C1158.33 15.8545 1153.72 14.764 1148.86 14.764C1148.14 14.764 1147.43 14.7888 1146.73 14.8363C1146.68 15.5407 1146.65 16.2496 1146.65 16.9675C1146.65 21.8171 1147.73 26.416 1149.66 30.5341C1151.14 27.949 1152.97 25.5423 1155.13 23.3794ZM1178.62 50.6592C1173.4 50.6592 1168.36 49.4762 1163.81 47.2388C1159.25 49.4762 1154.22 50.6592 1149 50.6592C1148.38 50.6592 1147.76 50.6412 1147.14 50.6073C1147.52 54.2106 1148.5 57.6355 1149.98 60.7805C1154.2 62.8418 1158.95 64 1163.96 64C1168.8 64 1173.38 62.9231 1177.48 60.9995C1179.08 57.8003 1180.15 54.2964 1180.59 50.6005C1179.93 50.6389 1179.28 50.6592 1178.62 50.6592ZM1339.27 41.3198C1338.28 41.909 1337.06 42.2026 1335.61 42.2026C1333.68 42.2026 1332.16 41.9136 1331.04 41.3356C1329.92 40.7554 1329.12 39.92 1328.65 38.8295C1328.18 37.7391 1327.95 36.4319 1327.95 34.9056V24.9153L1326.01 24.6534V22.0774H1333.79V24.6241L1331.73 24.9424V34.8469C1331.73 36.2964 1332.02 37.3778 1332.59 38.0913C1333.16 38.8047 1334.17 39.1614 1335.61 39.1614C1336.38 39.1614 1337.04 39.0124 1337.58 38.7144C1338.12 38.4141 1338.53 37.9423 1338.82 37.2943C1339.11 36.6486 1339.26 35.8223 1339.26 34.8176V24.886L1337.4 24.6241V22.0774H1344V24.7121L1342.29 25.0891V34.9056C1342.29 36.3912 1342.04 37.6848 1341.53 38.7866C1341.01 39.8861 1340.26 40.7305 1339.27 41.3198ZM1310.5 42.0874L1309.95 39.8004L1319.7 25.1162H1313.31L1312.76 28.3019H1310.5V22.0774H1323.81L1324.39 24.7685L1315.07 39.0463H1321.29L1321.81 35.8606H1324.13V42.0874L1310.5 42.0874ZM1297.77 32.7338H1301.27L1299.74 26.1887L1297.77 32.7338ZM1291.41 42.0874L1291.04 39.8274L1292.63 39.3082L1298.35 22.0774H1301.94L1307.76 39.3082L1309.09 39.8274L1308.79 42.0874H1301.27V39.9155L1303.59 39.3082L1302.55 35.7749H1296.88L1295.78 39.4233L1298.32 39.8862V42.0874H1291.41ZM1285.44 41.8842C1284.58 42.0964 1283.72 42.2026 1282.85 42.2026C1281.73 42.2026 1280.66 42.0626 1279.64 41.7826C1278.61 41.5027 1277.72 41.2092 1276.95 40.8999L1277.52 35.3098L1279.96 35.513L1280.19 38.728C1280.44 38.7867 1280.78 38.8725 1281.21 38.9899C1281.65 39.105 1282.13 39.1615 1282.68 39.1615C1283.29 39.1615 1283.86 39.0802 1284.37 38.9154C1284.88 38.7528 1285.29 38.4954 1285.61 38.15C1285.93 37.8023 1286.09 37.3485 1286.09 36.7886C1286.09 36.2671 1285.95 35.8381 1285.68 35.4995C1285.41 35.1608 1285.01 34.8425 1284.48 34.5444C1283.95 34.2442 1283.27 33.9123 1282.44 33.5443C1281.69 33.1966 1281 32.8444 1280.36 32.4877C1279.72 32.1309 1279.17 31.7291 1278.7 31.2866C1278.22 30.8418 1277.85 30.3158 1277.58 29.7062C1277.31 29.0989 1277.18 28.3606 1277.18 27.4914C1277.18 26.3716 1277.48 25.4075 1278.09 24.5948C1278.7 23.7842 1279.52 23.1589 1280.55 22.7141C1281.58 22.2693 1282.71 22.0481 1283.95 22.0481C1284.95 22.0481 1285.93 22.1248 1286.88 22.2783C1287.84 22.4341 1288.69 22.617 1289.44 22.8292L1289.88 28.3312H1287.45L1286.03 25.263C1285.78 25.2224 1285.47 25.184 1285.1 25.1456C1284.74 25.1072 1284.39 25.0892 1284.06 25.0892C1283.39 25.0892 1282.83 25.1885 1282.4 25.3917C1281.97 25.5949 1281.64 25.8613 1281.43 26.1887C1281.22 26.5161 1281.11 26.8841 1281.11 27.2882C1281.11 27.6765 1281.23 28.0174 1281.47 28.3177C1281.71 28.6157 1282.03 28.8866 1282.43 29.1282C1282.82 29.3698 1283.25 29.591 1283.7 29.7942C1284.15 29.9974 1284.59 30.2051 1285.02 30.4174C1286.16 30.9569 1287.1 31.4988 1287.84 32.0384C1288.58 32.5802 1289.13 33.1876 1289.5 33.8626C1289.87 34.5399 1290.05 35.3392 1290.05 36.2671C1290.05 37.3485 1289.84 38.2651 1289.43 39.017C1289.01 39.771 1288.46 40.3829 1287.77 40.857C1287.07 41.3311 1286.3 41.672 1285.44 41.8842ZM1264.83 41.9136C1264.08 42.1055 1263.31 42.2026 1262.54 42.2026C1261.25 42.2026 1260.02 42.0016 1258.84 41.5952C1257.66 41.1889 1256.62 40.577 1255.72 39.7552C1254.81 38.9357 1254.1 37.9129 1253.58 36.687C1253.05 35.4611 1252.79 34.0364 1252.79 32.4154C1252.79 30.7154 1253.06 29.2253 1253.6 27.9407C1254.14 26.656 1254.87 25.5813 1255.79 24.7121C1256.7 23.8429 1257.73 23.1859 1258.87 22.7434C1260.01 22.2987 1261.16 22.0774 1262.34 22.0774C1263.63 22.0774 1264.69 22.1677 1265.52 22.3506C1266.35 22.5357 1266.92 22.6757 1267.23 22.7705L1267.81 28.767H1265.46L1263.76 25.175C1263.62 25.1569 1263.48 25.1411 1263.32 25.1321C1263.17 25.123 1262.94 25.1163 1262.63 25.1163C1261.57 25.1163 1260.59 25.3962 1259.69 25.9561C1258.8 26.516 1258.08 27.3085 1257.54 28.3312C1257 29.3563 1256.71 30.5799 1256.67 32.009C1256.69 33.3998 1256.95 34.6302 1257.45 35.7026C1257.95 36.7728 1258.65 37.6172 1259.55 38.2358C1260.44 38.8544 1261.49 39.1615 1262.69 39.1615C1263.48 39.1615 1264.27 39.017 1265.07 38.728C1265.87 38.439 1266.54 38.0146 1267.08 37.4547L1268.3 40.0307C1267.95 40.4371 1267.47 40.8028 1266.87 41.1325C1266.26 41.4599 1265.58 41.7217 1264.83 41.9136ZM1241.16 32.298H1242.12C1243.26 32.298 1244.18 32.14 1244.88 31.8216C1245.59 31.5033 1246.1 31.0676 1246.43 30.519C1246.76 29.9681 1246.92 29.3563 1246.92 28.6789C1246.92 27.9452 1246.76 27.3175 1246.44 26.796C1246.13 26.2745 1245.58 25.8749 1244.8 25.5949C1244.02 25.315 1242.92 25.166 1241.51 25.1456H1241.17L1241.16 32.298ZM1235.64 42.0874L1235.38 39.6265L1237.38 39.2201V24.9153L1235.41 24.7121V22.0774H1242.5C1244.39 22.0774 1245.95 22.3574 1247.18 22.9173C1248.42 23.4772 1249.33 24.2448 1249.93 25.2179C1250.53 26.1932 1250.83 27.3175 1250.83 28.5931C1250.83 30.002 1250.47 31.194 1249.76 32.1693C1249.04 33.1447 1248.06 33.892 1246.81 34.4135L1249.35 39.2789L1251.17 39.5679V42.0875H1246.29L1243.28 35.2827C1242.95 35.3008 1242.61 35.3211 1242.25 35.3392C1241.89 35.3595 1241.53 35.3685 1241.16 35.3685V39.3353L1242.67 39.5679V42.0875L1235.64 42.0874ZM1219.38 42.0874L1218.83 39.8004L1228.58 25.1162H1222.19L1221.64 28.3019H1219.38V22.0774H1232.69L1233.27 24.7685L1223.95 39.0463H1230.17L1230.69 35.8606H1233.01V42.0874L1219.38 42.0874ZM1163.96 35.5683C1166.01 35.5683 1167.66 33.9089 1167.66 31.8634C1167.66 29.8179 1166.01 28.1585 1163.96 28.1585C1161.92 28.1585 1160.26 29.8179 1160.26 31.8634C1160.26 33.9089 1161.92 35.5683 1163.96 35.5683ZM1164.3 18.7439C1169.8 21.7895 1174.31 26.4111 1177.22 31.9989C1174.19 37.6815 1169.5 42.3391 1163.81 45.3283C1158.23 42.4046 1153.63 37.8869 1150.6 32.3759C1153.65 26.5397 1158.45 21.7624 1164.3 18.7439Z" fill="white"/>
    <path d="M81.3786 6.58749H75.1329V4.24476H83.9241V6.74484C82.0346 8.51061 79.9702 11.6838 79.8478 16.7801H77.0048C77.2148 11.8674 79.2354 8.53685 81.3786 6.58749ZM84.1921 14.0265H86.9038V16.7801H84.1921V14.0265ZM92.6501 12.8464H95.4668C95.5193 14.0527 96.3765 14.8482 97.7849 14.8482C98.9133 14.8482 99.6918 14.2975 99.6918 13.3272C99.6918 12.5579 99.272 12.1471 98.161 11.9023L96.4203 11.5177C93.9885 10.9844 92.86 9.90926 92.86 7.87248C92.86 5.62593 94.7495 4 97.6274 4C100.532 4 102.185 5.64341 102.29 7.78507H99.4994C99.4644 6.84973 98.8083 6.1504 97.5487 6.1504C96.4815 6.1504 95.668 6.73607 95.668 7.63646C95.668 8.34453 96.1316 8.79035 97.3038 9.04385L99.1582 9.44596C101.065 9.8568 102.491 10.8184 102.491 12.9775C102.491 15.5213 100.68 17.0336 97.7411 17.0336C94.7233 17.0336 92.6938 15.5388 92.6501 12.8464ZM104.748 4.24476H107.495V14.4199H112.726V16.7801H104.748V4.24476ZM113.85 10.5124C113.85 6.43888 116.072 4 119.545 4C123.044 4 125.248 6.44762 125.248 10.5124C125.248 14.5859 123.044 17.0336 119.545 17.0336C116.011 17.0336 113.85 14.5859 113.85 10.5124ZM119.545 14.7346C121.355 14.7346 122.414 13.2485 122.414 10.5124C122.414 7.78509 121.347 6.2903 119.545 6.2903C117.76 6.2903 116.684 7.78509 116.684 10.5124C116.684 13.2398 117.743 14.7346 119.545 14.7346ZM126.002 4.24476H128.88L131.6 13.8517L134.391 4.24476H137.155L133.192 16.7801H129.964L126.002 4.24476ZM138.885 4.24476H147.545V6.50882H141.632V9.34106H147.047V11.5264H141.632V14.5073H147.554V16.7801H138.885V4.24476ZM150.035 4.24476H153.718L158.1 13.0125V4.24476H160.69V16.7801H157.366L152.633 7.45288V16.7801H150.035L150.035 4.24476ZM162.929 12.8464H165.746C165.798 14.0527 166.655 14.8482 168.064 14.8482C169.192 14.8482 169.971 14.2975 169.971 13.3272C169.971 12.5579 169.551 12.1471 168.44 11.9023L166.699 11.5177C164.267 10.9844 163.139 9.90926 163.139 7.87248C163.139 5.62593 165.028 4 167.906 4C170.81 4 172.464 5.64341 172.569 7.78507H169.778C169.743 6.84973 169.087 6.1504 167.828 6.1504C166.76 6.1504 165.947 6.73607 165.947 7.63646C165.947 8.34453 166.41 8.79035 167.583 9.04385L169.437 9.44596C171.344 9.8568 172.77 10.8184 172.77 12.9775C172.77 15.5213 170.959 17.0336 168.02 17.0336C165.002 17.0336 162.973 15.5388 162.929 12.8464ZM175.027 4.24476H177.765V9.74315L182.165 4.24476H185.471L181.211 9.31483L185.629 16.7801H182.445L179.409 11.4565L177.765 13.4146V16.7801H175.027L175.027 4.24476ZM187.253 4.24476H190V16.7801H187.253V4.24476ZM75.5353 32.092C75.5353 27.9747 77.8271 25.4834 81.501 25.4834C84.4927 25.4834 86.6795 27.1443 86.8195 30.0465H83.9678C83.8454 28.5954 82.8569 27.765 81.4748 27.765C79.5241 27.765 78.3695 29.2423 78.3695 31.9958C78.3695 34.7673 79.5329 36.2359 81.4748 36.2359C83.0144 36.2359 83.9853 35.2743 84.1253 33.6567H81.501V31.6025H86.7933V38.2639H84.4577V36.7341C83.7404 37.9142 82.577 38.5174 80.915 38.5174C77.6522 38.5174 75.5353 36.2446 75.5353 32.092ZM89.466 25.7282H98.126V27.9922H92.2127V30.8245H97.6274V33.0099H92.2127V35.9911H98.1348V38.2639H89.466V25.7282ZM99.8938 31.9958C99.8938 27.9223 102.116 25.4834 105.588 25.4834C109.087 25.4834 111.292 27.931 111.292 31.9958C111.292 36.0698 109.087 38.5174 105.588 38.5174C102.054 38.5174 99.8938 36.0697 99.8938 31.9958ZM105.588 36.2184C107.399 36.2184 108.458 34.7323 108.458 31.9958C108.458 29.2685 107.39 27.7737 105.588 27.7737C103.804 27.7737 102.728 29.2685 102.728 31.9958C102.728 34.7236 103.786 36.2184 105.588 36.2184ZM113.563 25.7282H116.31V35.9037H121.541V38.2639H113.563V25.7282ZM122.665 31.9958C122.665 27.9223 124.887 25.4834 128.36 25.4834C131.859 25.4834 134.063 27.931 134.063 31.9958C134.063 36.0698 131.859 38.5174 128.36 38.5174C124.826 38.5174 122.665 36.0697 122.665 31.9958ZM128.36 36.2184C130.17 36.2184 131.229 34.7323 131.229 31.9958C131.229 29.2685 130.162 27.7737 128.36 27.7737C126.575 27.7737 125.499 29.2685 125.499 31.9958C125.499 34.7236 126.558 36.2184 128.36 36.2184ZM135.669 34.3302H138.486C138.539 35.5365 139.396 36.332 140.804 36.332C141.933 36.332 142.711 35.7813 142.711 34.811C142.711 34.0413 142.291 33.6305 141.18 33.3857L139.44 33.0011C137.008 32.4678 135.879 31.3927 135.879 29.3559C135.879 27.1093 137.769 25.4834 140.647 25.4834C143.551 25.4834 145.204 27.1268 145.309 29.2685H142.519C142.484 28.3331 141.828 27.6338 140.568 27.6338C139.501 27.6338 138.687 28.2195 138.687 29.1199C138.687 29.8279 139.151 30.2737 140.323 30.5272L142.178 30.9294C144.085 31.3402 145.51 32.3018 145.51 34.4613C145.51 37.0051 143.7 38.5174 140.76 38.5174C137.743 38.5174 135.713 37.0226 135.669 34.3302ZM139.781 22.1092L140.725 23.368L141.653 22.1092H144.085L141.933 24.7928H139.527L137.34 22.1092H139.781ZM147.767 25.7282H150.505V31.2266L154.905 25.7282H158.212L153.952 30.7982L158.369 38.2639H155.185L152.15 32.9399L150.505 34.8984V38.2639H147.767L147.767 25.7282ZM159.995 25.7282H162.741V38.2639H159.995V25.7282ZM76.0601 47.2112H78.7981V52.7096L83.1981 47.2112H86.5046L82.2446 52.2812L86.6621 59.7465H83.478L80.4426 54.4229L78.7981 56.381V59.7465H76.0601L76.0601 47.2112ZM87.1368 53.4788C87.1368 49.4053 89.3587 46.9664 92.8314 46.9664C96.3304 46.9664 98.5348 49.414 98.5348 53.4788C98.5348 57.5524 96.3304 60 92.8314 60C89.2974 60 87.1368 57.5524 87.1368 53.4788ZM92.8314 57.701C94.6421 57.701 95.7006 56.2149 95.7006 53.4789C95.7006 50.7515 94.6334 49.2567 92.8314 49.2567C91.0469 49.2567 89.971 50.7515 89.971 53.4789C89.971 56.2062 91.0294 57.701 92.8314 57.701ZM100.806 47.2112H104.489L108.871 55.9789V47.2112H111.46V59.7465H108.136L103.404 50.4193V59.7465H100.806L100.806 47.2112ZM113.763 53.575C113.763 49.4578 116.055 46.9664 119.729 46.9664C122.721 46.9664 124.908 48.6273 125.048 51.5295H122.196C122.073 50.0784 121.085 49.248 119.703 49.248C117.752 49.248 116.598 50.7253 116.598 53.4789C116.598 56.2499 117.761 57.7185 119.703 57.7185C121.242 57.7185 122.213 56.7569 122.353 55.1397H119.729V53.0855H125.021V59.7465H122.686V58.2167C121.968 59.3969 120.805 60 119.143 60C115.88 60 113.763 57.7272 113.763 53.575ZM127.695 47.2112H133.276C135.786 47.2112 137.37 48.5049 137.37 50.6029C137.37 52.4036 136.407 53.5662 134.772 54.0295C136.206 54.2656 136.993 55.1135 137.221 56.7744L137.632 59.7465H134.833L134.535 57.2377C134.369 55.8303 133.757 55.2446 132.287 55.2446H130.442V59.7465H127.695V47.2112ZM132.445 53.0243C133.774 53.0243 134.64 52.3337 134.64 51.1274C134.64 50.0172 133.914 49.449 132.663 49.449H130.442V53.0243H132.445ZM139.906 47.2112H148.566V49.4752H142.653V52.3075H148.068V54.4929H142.653V57.4737H148.575V59.7465H139.906V47.2112ZM150.3 55.8128H153.117C153.169 57.0191 154.026 57.8146 155.435 57.8146C156.563 57.8146 157.342 57.2639 157.342 56.2936C157.342 55.5243 156.922 55.1135 155.811 54.8687L154.07 54.4841C151.638 53.9509 150.51 52.8757 150.51 50.8389C150.51 48.5924 152.399 46.9664 155.277 46.9664C158.181 46.9664 159.835 48.6098 159.94 50.7515H157.149C157.114 49.8162 156.458 49.1168 155.199 49.1168C154.131 49.1168 153.318 49.7025 153.318 50.6029C153.318 51.3109 153.781 51.7568 154.954 52.0103L156.808 52.4124C158.715 52.8232 160.141 53.7848 160.141 55.944C160.141 58.4877 158.33 60 155.391 60C152.373 60 150.344 58.5052 150.3 55.8128ZM36.3636 59.6815H1.3209C3.29658 55.3714 5.5322 51.2822 7.99925 47.3685C13.1685 39.1992 18.0976 33.7934 27.1139 33.7934H29.3982C36.0099 33.7934 41.1793 28.8677 41.1793 22.0199C41.1793 15.1725 36.2502 10.2468 29.3982 10.2468C22.5457 10.2468 17.3764 15.6527 17.3764 22.2604V23.942C17.3764 30.1891 15.092 32.1113 7.99927 32.1113H0V4.19149H56.6386V31.8949C48.8368 39.021 41.6326 47.8428 36.3636 59.6815ZM57.4256 48.6215C56.201 46.7445 54.1158 45.5425 51.6497 45.5425C47.6208 45.5425 44.6072 48.6494 44.6072 52.6755C44.6072 56.6379 47.6208 59.6816 51.6497 59.6816C54.1158 59.6816 56.201 58.504 57.4256 56.6608C58.1702 55.5402 58.5971 54.1738 58.5971 52.6756C58.5971 51.1532 58.1702 49.7628 57.4256 48.6215Z" fill="white"/>
    <path d="M2.4 914.24C2.048 914.24 1.76 914.176 1.536 914.048C1.312 913.92 1.2 913.776 1.2 913.616C1.2 913.36 1.328 913.168 1.584 913.04C1.84 912.88 2.048 912.784 2.208 912.752C3.424 912.464 4.32 912.096 4.896 911.648C5.504 911.2 5.808 910.448 5.808 909.392V887.264C5.808 886.496 5.728 885.936 5.568 885.584C5.408 885.2 5.104 884.912 4.656 884.72C4.24 884.528 3.632 884.352 2.832 884.192C1.904 884 1.44 883.68 1.44 883.232C1.44 883.008 1.552 882.848 1.776 882.752C2.032 882.656 2.336 882.608 2.688 882.608C3.488 882.608 4.208 882.624 4.848 882.656C5.488 882.688 6.096 882.72 6.672 882.752C7.248 882.784 7.888 882.8 8.592 882.8C9.328 882.8 10.032 882.8 10.704 882.8C11.376 882.768 12.064 882.736 12.768 882.704C13.472 882.672 14.224 882.656 15.024 882.656C15.408 882.656 15.696 882.704 15.888 882.8C16.112 882.864 16.224 883.008 16.224 883.232C16.224 883.488 16.112 883.696 15.888 883.856C15.664 883.984 15.312 884.096 14.832 884.192C13.616 884.48 12.656 884.8 11.952 885.152C11.248 885.472 10.896 886.096 10.896 887.024V909.248C10.896 910.24 11.104 910.96 11.52 911.408C11.968 911.824 12.864 912.032 14.208 912.032H19.776C20.608 912.032 21.328 911.904 21.936 911.648C22.576 911.392 23.072 911.104 23.424 910.784C24.032 910.24 24.496 909.728 24.816 909.248C25.168 908.736 25.536 908.064 25.92 907.232C26.08 906.88 26.256 906.544 26.448 906.224C26.64 905.904 26.848 905.744 27.072 905.744C27.296 905.744 27.456 905.856 27.552 906.08C27.648 906.272 27.696 906.464 27.696 906.656C27.696 906.72 27.68 906.8 27.648 906.896C27.616 906.992 27.6 907.088 27.6 907.184C27.376 908.048 27.168 908.816 26.976 909.488C26.784 910.16 26.624 910.8 26.496 911.408C26.4 912.016 26.32 912.672 26.256 913.376C26.224 913.6 26.16 913.808 26.064 914C25.968 914.16 25.792 914.24 25.536 914.24C24.288 914.24 22.96 914.224 21.552 914.192C20.144 914.16 18.72 914.128 17.28 914.096C15.84 914.096 14.416 914.08 13.008 914.048C11.632 914.016 10.304 914 9.024 914C8.256 914 7.392 914.016 6.432 914.048C5.504 914.08 4.64 914.112 3.84 914.144C3.072 914.208 2.592 914.24 2.4 914.24ZM30.0941 914.144C29.8381 914.144 29.6141 914.096 29.4221 914C29.2621 913.904 29.1821 913.76 29.1821 913.568C29.1821 913.312 29.2781 913.136 29.4701 913.04C29.6941 912.912 29.9341 912.816 30.1901 912.752C30.9261 912.56 31.4701 912.352 31.8221 912.128C32.1741 911.904 32.3501 911.504 32.3501 910.928V900.56C32.3501 899.6 32.1901 898.832 31.8701 898.256C31.5501 897.648 30.9901 897.28 30.1901 897.152C30.0301 897.12 29.9021 897.056 29.8061 896.96C29.7421 896.832 29.7101 896.656 29.7101 896.432C29.7101 896.048 29.8541 895.84 30.1421 895.808C31.5501 895.488 32.7501 895.072 33.7421 894.56C34.7661 894.016 35.5341 893.584 36.0461 893.264C36.3981 893.04 36.6541 892.928 36.8141 892.928C37.0701 892.928 37.1981 893.056 37.1981 893.312C37.1981 893.664 37.1501 894.224 37.0541 894.992C36.9901 895.76 36.9101 896.592 36.8141 897.488C36.7501 898.384 36.7181 899.216 36.7181 899.984V910.928C36.7181 911.44 36.8941 911.824 37.2461 912.08C37.5981 912.336 38.1421 912.56 38.8781 912.752C39.1341 912.816 39.3581 912.912 39.5501 913.04C39.7741 913.136 39.8861 913.312 39.8861 913.568C39.8861 913.952 39.5981 914.144 39.0221 914.144C38.4141 914.144 37.8701 914.112 37.3901 914.048C36.9101 914.016 36.4461 913.984 35.9981 913.952C35.5821 913.92 35.0861 913.904 34.5101 913.904C33.9661 913.904 33.4701 913.92 33.0221 913.952C32.5741 913.984 32.1261 914.016 31.6781 914.048C31.2621 914.112 30.7341 914.144 30.0941 914.144ZM34.4141 889.616C33.6141 889.616 32.9261 889.344 32.3501 888.8C31.8061 888.224 31.5341 887.536 31.5341 886.736C31.5341 885.904 31.8061 885.216 32.3501 884.672C32.9261 884.096 33.6141 883.808 34.4141 883.808C35.2461 883.808 35.9501 884.096 36.5261 884.672C37.1021 885.216 37.3901 885.904 37.3901 886.736C37.3901 887.536 37.1021 888.224 36.5261 888.8C35.9501 889.344 35.2461 889.616 34.4141 889.616ZM42.5595 927.296C42.3675 927.296 42.1435 927.248 41.8875 927.152C41.6635 927.088 41.5515 926.96 41.5515 926.768C41.5515 926.512 41.6635 926.32 41.8875 926.192C42.1115 926.064 42.3675 925.952 42.6555 925.856C43.1995 925.696 43.6635 925.504 44.0475 925.28C44.4315 925.056 44.6235 924.64 44.6235 924.032V900.176C44.6235 899.888 44.5435 899.504 44.3835 899.024C44.2555 898.544 44.0315 898.096 43.7115 897.68C43.3915 897.264 42.9915 897.024 42.5115 896.96C42.3515 896.896 42.2235 896.816 42.1275 896.72C42.0635 896.592 42.0315 896.432 42.0315 896.24C42.0315 896.048 42.0635 895.904 42.1275 895.808C42.2235 895.68 42.3355 895.6 42.4635 895.568C43.6155 895.28 44.7035 894.96 45.7275 894.608C46.7515 894.256 47.6635 893.888 48.4635 893.504C48.5595 893.504 48.6235 893.488 48.6555 893.456C48.7195 893.392 48.7835 893.36 48.8475 893.36C48.9435 893.36 49.0235 893.424 49.0875 893.552C49.1515 893.648 49.1835 893.744 49.1835 893.84C49.1835 894.128 49.1355 894.576 49.0395 895.184C48.9755 895.792 48.9435 896.304 48.9435 896.72C48.9435 896.976 48.9595 897.12 48.9915 897.152C49.3115 896.832 49.8875 896.432 50.7195 895.952C51.5515 895.44 52.5115 894.976 53.5995 894.56C54.6875 894.144 55.7275 893.936 56.7195 893.936C58.3835 893.936 59.8075 894.384 60.9915 895.28C62.1755 896.176 63.0875 897.328 63.7275 898.736C64.3675 900.144 64.6875 901.6 64.6875 903.104C64.6875 904.576 64.3995 906 63.8235 907.376C63.2795 908.752 62.4955 910 61.4715 911.12C60.4795 912.208 59.3275 913.088 58.0155 913.76C56.7035 914.4 55.2795 914.72 53.7435 914.72C53.3275 914.72 52.8315 914.656 52.2555 914.528C51.6795 914.432 51.1035 914.272 50.5275 914.048C49.9835 913.856 49.5515 913.632 49.2315 913.376C49.1995 913.376 49.1675 913.52 49.1355 913.808C49.1035 914.064 49.0715 914.336 49.0395 914.624C49.0395 914.944 49.0395 915.168 49.0395 915.296V923.888C49.0395 924.304 49.1835 924.64 49.4715 924.896C49.7595 925.152 50.0955 925.344 50.4795 925.472C50.8955 925.632 51.3115 925.776 51.7275 925.904C52.0155 926 52.2715 926.096 52.4955 926.192C52.7195 926.32 52.8315 926.512 52.8315 926.768C52.8315 926.96 52.7195 927.088 52.4955 927.152C52.2715 927.248 52.0475 927.296 51.8235 927.296C50.8955 927.296 50.0475 927.248 49.2795 927.152C48.5115 927.088 47.7115 927.056 46.8795 927.056C46.3355 927.056 45.8555 927.072 45.4395 927.104C45.0235 927.136 44.5915 927.168 44.1435 927.2C43.7275 927.264 43.1995 927.296 42.5595 927.296ZM54.1755 912.992C54.6235 912.992 55.1515 912.864 55.7595 912.608C56.3675 912.32 56.9755 911.856 57.5835 911.216C58.2235 910.576 58.7515 909.728 59.1675 908.672C59.5835 907.616 59.7915 906.304 59.7915 904.736C59.7915 902.912 59.5675 901.456 59.1195 900.368C58.7035 899.28 58.1755 898.464 57.5355 897.92C56.8955 897.344 56.2395 896.96 55.5675 896.768C54.9275 896.576 54.3835 896.48 53.9355 896.48C53.2315 896.48 52.4955 896.64 51.7275 896.96C50.9915 897.248 50.3675 897.584 49.8555 897.968C49.3755 898.352 49.1355 898.656 49.1355 898.88C49.1355 899.456 49.1195 900.112 49.0875 900.848C49.0875 901.552 49.0715 902.288 49.0395 903.056C49.0395 903.792 49.0395 904.464 49.0395 905.072C49.0395 905.68 49.0395 906.112 49.0395 906.368C49.0395 907.456 49.2795 908.512 49.7595 909.536C50.2715 910.56 50.9115 911.392 51.6795 912.032C52.4795 912.672 53.3115 912.992 54.1755 912.992ZM68.1566 914.144C67.9006 914.144 67.6766 914.096 67.4846 914C67.3246 913.904 67.2446 913.76 67.2446 913.568C67.2446 913.312 67.3406 913.136 67.5326 913.04C67.7566 912.912 67.9966 912.816 68.2526 912.752C68.9886 912.56 69.5326 912.352 69.8846 912.128C70.2366 911.904 70.4126 911.504 70.4126 910.928V900.56C70.4126 899.6 70.2526 898.832 69.9326 898.256C69.6126 897.648 69.0526 897.28 68.2526 897.152C68.0926 897.12 67.9646 897.056 67.8686 896.96C67.8046 896.832 67.7726 896.656 67.7726 896.432C67.7726 896.048 67.9166 895.84 68.2046 895.808C69.6126 895.488 70.8126 895.072 71.8046 894.56C72.8286 894.016 73.5966 893.584 74.1086 893.264C74.4606 893.04 74.7166 892.928 74.8766 892.928C75.1326 892.928 75.2606 893.056 75.2606 893.312C75.2606 893.664 75.2126 894.224 75.1166 894.992C75.0526 895.76 74.9726 896.592 74.8766 897.488C74.8126 898.384 74.7806 899.216 74.7806 899.984V910.928C74.7806 911.44 74.9566 911.824 75.3086 912.08C75.6606 912.336 76.2046 912.56 76.9406 912.752C77.1966 912.816 77.4206 912.912 77.6126 913.04C77.8366 913.136 77.9486 913.312 77.9486 913.568C77.9486 913.952 77.6606 914.144 77.0846 914.144C76.4766 914.144 75.9326 914.112 75.4526 914.048C74.9726 914.016 74.5086 913.984 74.0606 913.952C73.6446 913.92 73.1486 913.904 72.5726 913.904C72.0286 913.904 71.5326 913.92 71.0846 913.952C70.6366 913.984 70.1886 914.016 69.7406 914.048C69.3246 914.112 68.7966 914.144 68.1566 914.144ZM72.4766 889.616C71.6766 889.616 70.9886 889.344 70.4126 888.8C69.8686 888.224 69.5966 887.536 69.5966 886.736C69.5966 885.904 69.8686 885.216 70.4126 884.672C70.9886 884.096 71.6766 883.808 72.4766 883.808C73.3086 883.808 74.0126 884.096 74.5886 884.672C75.1646 885.216 75.4526 885.904 75.4526 886.736C75.4526 887.536 75.1646 888.224 74.5886 888.8C74.0126 889.344 73.3086 889.616 72.4766 889.616ZM88.926 914.72C87.294 914.72 85.822 914.304 84.51 913.472C83.198 912.608 82.158 911.44 81.39 909.968C80.622 908.496 80.238 906.848 80.238 905.024C80.238 902.944 80.702 901.056 81.63 899.36C82.558 897.664 83.806 896.32 85.374 895.328C86.942 894.336 88.67 893.84 90.558 893.84C92.83 893.84 94.782 894.496 96.414 895.808C96.766 896.128 96.942 896.432 96.942 896.72C96.942 896.944 96.814 897.232 96.558 897.584C96.334 897.904 96.046 898.192 95.694 898.448C95.374 898.672 95.07 898.784 94.782 898.784C94.59 898.784 94.382 898.72 94.158 898.592C93.966 898.464 93.774 898.32 93.582 898.16C92.814 897.552 91.998 897.024 91.134 896.576C90.302 896.096 89.582 895.856 88.974 895.856C87.534 895.856 86.382 896.512 85.518 897.824C84.686 899.104 84.27 900.912 84.27 903.248C84.27 904.784 84.558 906.144 85.134 907.328C85.742 908.512 86.558 909.44 87.582 910.112C88.638 910.784 89.838 911.12 91.182 911.12C92.11 911.12 92.91 910.976 93.582 910.688C94.286 910.368 95.022 909.84 95.79 909.104C95.886 909.04 95.982 908.976 96.078 908.912C96.206 908.848 96.318 908.816 96.414 908.816C96.766 908.816 96.942 909.056 96.942 909.536C96.942 909.696 96.894 909.904 96.798 910.16C96.702 910.384 96.558 910.64 96.366 910.928C95.918 911.568 95.326 912.192 94.59 912.8C93.854 913.376 93.006 913.84 92.046 914.192C91.086 914.544 90.046 914.72 88.926 914.72ZM103.449 914.672C102.777 914.672 102.121 914.448 101.481 914C100.841 913.584 100.313 913.056 99.8966 912.416C99.4806 911.744 99.2726 911.088 99.2726 910.448C99.2726 909.392 99.5606 908.544 100.137 907.904C100.745 907.264 101.673 906.688 102.921 906.176L107.577 904.208C108.217 903.952 108.601 903.728 108.729 903.536C108.857 903.312 108.937 902.88 108.969 902.24L109.065 899.312C109.097 898.448 108.889 897.728 108.441 897.152C107.993 896.576 107.337 896.288 106.473 896.288C106.025 896.288 105.561 896.384 105.081 896.576C104.633 896.736 104.265 896.928 103.977 897.152C103.817 897.28 103.705 897.456 103.641 897.68C103.609 897.904 103.593 898.144 103.593 898.4C103.593 898.56 103.593 898.752 103.593 898.976C103.625 899.168 103.641 899.328 103.641 899.456C103.641 899.648 103.417 899.888 102.969 900.176C102.553 900.432 102.057 900.672 101.481 900.896C100.937 901.12 100.473 901.232 100.089 901.232C99.8966 901.232 99.7366 901.184 99.6086 901.088C99.5126 900.96 99.4646 900.8 99.4646 900.608C99.4646 900.096 99.6246 899.568 99.9446 899.024C100.297 898.448 100.809 897.872 101.481 897.296C102.249 896.624 103.081 896.032 103.977 895.52C104.905 894.976 105.801 894.56 106.665 894.272C107.561 893.984 108.345 893.84 109.017 893.84C110.361 893.84 111.449 894.304 112.281 895.232C113.145 896.128 113.545 897.296 113.481 898.736L113.241 909.584C113.209 910.288 113.353 910.864 113.673 911.312C113.993 911.76 114.393 911.984 114.873 911.984C115.609 911.984 116.185 911.792 116.601 911.408C116.729 911.28 116.841 911.216 116.937 911.216C117.097 911.216 117.225 911.264 117.321 911.36C117.449 911.456 117.513 911.584 117.513 911.744C117.513 912.128 117.289 912.528 116.841 912.944C116.297 913.488 115.705 913.904 115.065 914.192C114.457 914.512 113.865 914.672 113.289 914.672C111.689 914.672 110.409 913.808 109.449 912.08H109.305C108.249 912.976 107.257 913.632 106.329 914.048C105.401 914.464 104.441 914.672 103.449 914.672ZM105.945 912.08C106.489 912.08 106.937 912 107.289 911.84C107.673 911.648 108.009 911.392 108.297 911.072C108.457 910.912 108.569 910.72 108.633 910.496C108.729 910.24 108.793 909.856 108.825 909.344L108.921 906.608C108.953 906.288 108.937 906.064 108.873 905.936C108.809 905.776 108.681 905.696 108.489 905.696C108.425 905.696 108.329 905.712 108.201 905.744C108.073 905.776 107.897 905.84 107.673 905.936C106.233 906.48 105.225 907.056 104.649 907.664C104.073 908.24 103.785 908.88 103.785 909.584C103.785 910.448 104.009 911.088 104.457 911.504C104.937 911.888 105.433 912.08 105.945 912.08ZM119.437 921.344C118.797 921.344 118.477 921.136 118.477 920.72C118.477 920.56 118.541 920.416 118.669 920.288C118.797 920.192 118.989 920.128 119.245 920.096C120.013 919.904 120.733 919.616 121.405 919.232C122.077 918.848 122.621 918.32 123.037 917.648C123.485 917.008 123.709 916.192 123.709 915.2C123.709 914.752 123.517 914.304 123.133 913.856C122.781 913.408 122.333 913.152 121.789 913.088C121.149 912.992 120.621 912.752 120.205 912.368C119.821 911.952 119.629 911.44 119.629 910.832C119.629 910.128 119.917 909.536 120.493 909.056C121.069 908.576 121.741 908.336 122.509 908.336C123.757 908.336 124.781 908.784 125.581 909.68C126.381 910.576 126.781 911.712 126.781 913.088C126.781 914.336 126.541 915.456 126.061 916.448C125.581 917.472 124.957 918.352 124.189 919.088C123.453 919.824 122.653 920.384 121.789 920.768C120.957 921.152 120.173 921.344 119.437 921.344ZM141.719 914.192C141.367 914.192 141.079 914.128 140.855 914C140.631 913.904 140.519 913.76 140.519 913.568C140.519 913.184 140.967 912.896 141.863 912.704C143.047 912.48 143.831 912.128 144.215 911.648C144.599 911.168 144.791 910.384 144.791 909.296V887.552C144.791 886.464 144.647 885.696 144.359 885.248C144.071 884.8 143.335 884.448 142.151 884.192C141.223 884 140.759 883.696 140.759 883.28C140.759 883.088 140.855 882.928 141.047 882.8C141.271 882.672 141.575 882.608 141.959 882.608C142.791 882.608 143.495 882.624 144.071 882.656C144.647 882.688 145.191 882.72 145.703 882.752C146.247 882.784 146.839 882.8 147.479 882.8C148.151 882.8 148.759 882.8 149.303 882.8C149.879 882.768 150.471 882.736 151.079 882.704C151.719 882.672 152.439 882.656 153.239 882.656C154.071 882.656 154.487 882.864 154.487 883.28C154.487 883.536 154.359 883.728 154.103 883.856C153.879 883.984 153.543 884.096 153.095 884.192C151.879 884.48 151.031 884.88 150.551 885.392C150.103 885.904 149.879 886.624 149.879 887.552V896.72C149.879 896.944 149.943 897.088 150.071 897.152C150.231 897.216 150.391 897.248 150.551 897.248H166.583C166.871 897.248 167.015 897.04 167.015 896.624V887.552C167.015 886.656 166.791 885.952 166.343 885.44C165.927 884.896 165.095 884.48 163.847 884.192C163.367 884.096 163.015 883.984 162.791 883.856C162.567 883.728 162.455 883.536 162.455 883.28C162.455 882.864 162.855 882.656 163.655 882.656C164.455 882.656 165.191 882.672 165.863 882.704C166.535 882.736 167.175 882.768 167.783 882.8C168.423 882.8 169.079 882.8 169.751 882.8C170.359 882.8 170.887 882.784 171.335 882.752C171.815 882.72 172.311 882.688 172.823 882.656C173.367 882.624 174.055 882.608 174.887 882.608C175.271 882.608 175.575 882.672 175.799 882.8C176.023 882.928 176.135 883.088 176.135 883.28C176.135 883.696 175.671 884 174.743 884.192C173.559 884.448 172.823 884.832 172.535 885.344C172.247 885.824 172.103 886.544 172.103 887.504V909.248C172.103 910.368 172.263 911.168 172.583 911.648C172.935 912.128 173.687 912.48 174.839 912.704C175.735 912.896 176.183 913.184 176.183 913.568C176.183 913.76 176.055 913.904 175.799 914C175.575 914.128 175.287 914.192 174.935 914.192C174.167 914.192 173.479 914.16 172.871 914.096C172.295 914.064 171.735 914.032 171.191 914C170.647 913.968 170.055 913.952 169.415 913.952C168.743 913.952 168.119 913.968 167.543 914C166.999 914.032 166.407 914.064 165.767 914.096C165.127 914.16 164.407 914.192 163.607 914.192C163.223 914.192 162.919 914.128 162.695 914C162.503 913.904 162.407 913.76 162.407 913.568C162.407 913.312 162.503 913.136 162.695 913.04C162.919 912.912 163.271 912.8 163.751 912.704C164.839 912.48 165.655 912.112 166.199 911.6C166.743 911.088 167.015 910.336 167.015 909.344V900.08C167.015 899.888 166.999 899.728 166.967 899.6C166.935 899.44 166.823 899.36 166.631 899.36H150.263C150.007 899.36 149.879 899.552 149.879 899.936V909.008C149.879 909.968 150.199 910.768 150.839 911.408C151.479 912.048 152.359 912.48 153.479 912.704C153.959 912.8 154.311 912.912 154.535 913.04C154.759 913.136 154.871 913.312 154.871 913.568C154.871 913.76 154.759 913.904 154.535 914C154.311 914.128 154.007 914.192 153.623 914.192C152.823 914.192 152.087 914.16 151.415 914.096C150.743 914.064 150.087 914.032 149.447 914C148.839 913.968 148.183 913.952 147.479 913.952C146.839 913.952 146.231 913.968 145.655 914C145.079 914.032 144.471 914.064 143.831 914.096C143.223 914.16 142.519 914.192 141.719 914.192ZM189.03 914.672C187.206 914.672 185.542 914.256 184.038 913.424C182.566 912.56 181.398 911.392 180.534 909.92C179.67 908.448 179.238 906.768 179.238 904.88C179.238 903.472 179.51 902.112 180.054 900.8C180.598 899.488 181.366 898.304 182.358 897.248C183.35 896.192 184.502 895.36 185.814 894.752C187.126 894.112 188.534 893.792 190.038 893.792C191.926 893.792 193.638 894.256 195.174 895.184C196.71 896.08 197.926 897.264 198.822 898.736C199.718 900.208 200.166 901.824 200.166 903.584C200.166 905.504 199.75 907.312 198.918 909.008C198.086 910.704 196.838 912.08 195.174 913.136C193.542 914.16 191.494 914.672 189.03 914.672ZM190.038 912.992C190.966 912.992 191.798 912.816 192.534 912.464C193.27 912.08 193.846 911.504 194.262 910.736C194.646 910 194.902 909.104 195.03 908.048C195.19 906.96 195.27 905.856 195.27 904.736C195.27 903.136 195.014 901.632 194.502 900.224C193.99 898.816 193.286 897.68 192.39 896.816C191.494 895.952 190.438 895.52 189.222 895.52C188.486 895.52 187.814 895.648 187.206 895.904C186.63 896.128 186.102 896.528 185.622 897.104C185.014 897.84 184.614 898.8 184.422 899.984C184.23 901.136 184.134 902.4 184.134 903.776C184.134 905.312 184.39 906.784 184.902 908.192C185.414 909.6 186.102 910.752 186.966 911.648C187.862 912.544 188.886 912.992 190.038 912.992ZM211.116 914.672C209.356 914.672 207.996 914.176 207.036 913.184C206.108 912.192 205.644 910.736 205.644 908.816V897.68C205.644 897.424 205.532 897.248 205.308 897.152C205.116 897.024 204.716 896.96 204.108 896.96H203.724C203.532 896.96 203.372 896.832 203.244 896.576C203.116 896.288 203.052 896.016 203.052 895.76C203.052 895.696 203.084 895.616 203.148 895.52C203.244 895.392 203.324 895.312 203.388 895.28C204.06 894.864 204.716 894.416 205.356 893.936C206.028 893.424 206.636 892.912 207.18 892.4C207.756 891.888 208.236 891.44 208.62 891.056C208.812 890.896 208.972 890.752 209.1 890.624C209.228 890.496 209.388 890.432 209.58 890.432C209.772 890.432 209.932 890.48 210.06 890.576C210.22 890.672 210.284 890.864 210.252 891.152L209.964 893.504C209.932 893.888 210.012 894.144 210.204 894.272C210.428 894.4 210.732 894.464 211.116 894.464H216.684C216.78 894.464 216.876 894.576 216.972 894.8C217.068 895.024 217.116 895.248 217.116 895.472C217.116 895.824 217.068 896.16 216.972 896.48C216.876 896.8 216.764 896.96 216.636 896.96H211.98C211.18 896.96 210.652 897.04 210.396 897.2C210.172 897.36 210.06 897.728 210.06 898.304V907.616C210.06 908.96 210.332 910 210.876 910.736C211.42 911.44 212.188 911.792 213.18 911.792C214.108 911.792 214.812 911.712 215.292 911.552C215.772 911.392 216.204 911.2 216.588 910.976C216.684 910.912 216.764 910.88 216.828 910.88C216.988 910.88 217.084 910.96 217.116 911.12C217.18 911.28 217.212 911.456 217.212 911.648C217.212 911.84 216.924 912.176 216.348 912.656C215.772 913.136 215.02 913.584 214.092 914C213.164 914.448 212.172 914.672 211.116 914.672ZM227.77 914.72C226.042 914.72 224.506 914.288 223.162 913.424C221.85 912.528 220.81 911.296 220.042 909.728C219.274 908.128 218.89 906.288 218.89 904.208C218.89 902.32 219.322 900.592 220.186 899.024C221.082 897.456 222.266 896.208 223.738 895.28C225.21 894.32 226.826 893.84 228.586 893.84C229.898 893.84 231.066 894.112 232.09 894.656C233.146 895.168 233.962 895.904 234.538 896.864C235.146 897.792 235.45 898.864 235.45 900.08C235.45 901.136 234.954 901.664 233.962 901.664H224.026C223.578 901.664 223.258 901.792 223.066 902.048C222.874 902.304 222.778 902.768 222.778 903.44C222.778 904.848 223.098 906.144 223.738 907.328C224.378 908.48 225.226 909.408 226.282 910.112C227.338 910.816 228.506 911.168 229.786 911.168C230.746 911.168 231.61 910.992 232.378 910.64C233.178 910.256 233.914 909.728 234.586 909.056C234.682 908.928 234.762 908.832 234.826 908.768C234.922 908.704 235.018 908.672 235.114 908.672C235.402 908.672 235.546 908.848 235.546 909.2C235.546 909.712 235.322 910.32 234.874 911.024C234.426 911.696 233.85 912.32 233.146 912.896C232.474 913.44 231.674 913.872 230.746 914.192C229.85 914.544 228.858 914.72 227.77 914.72ZM224.074 900.032H227.914C228.746 900.032 229.402 900.016 229.882 899.984C230.362 899.952 230.81 899.888 231.226 899.792C231.386 899.728 231.498 899.6 231.562 899.408C231.626 899.184 231.658 898.912 231.658 898.592C231.658 897.696 231.29 896.944 230.554 896.336C229.818 895.696 228.938 895.376 227.914 895.376C227.21 895.376 226.506 895.584 225.802 896C225.13 896.416 224.57 896.944 224.122 897.584C223.674 898.192 223.466 898.816 223.498 899.456C223.498 899.84 223.69 900.032 224.074 900.032ZM238.637 914.144C238.413 914.144 238.189 914.112 237.965 914.048C237.773 913.984 237.677 913.84 237.677 913.616C237.677 913.36 237.789 913.184 238.013 913.088C238.237 912.96 238.493 912.832 238.781 912.704C239.261 912.544 239.709 912.368 240.125 912.176C240.541 911.984 240.749 911.552 240.749 910.88V887.12C240.749 886.192 240.589 885.424 240.269 884.816C239.981 884.176 239.437 883.776 238.637 883.616C238.381 883.552 238.253 883.328 238.253 882.944C238.253 882.592 238.365 882.384 238.589 882.32C239.421 882.16 240.205 881.952 240.941 881.696C241.677 881.44 242.365 881.184 243.005 880.928C243.645 880.672 244.221 880.448 244.733 880.256C244.925 880.192 245.069 880.16 245.165 880.16C245.261 880.16 245.325 880.208 245.357 880.304C245.421 880.4 245.453 880.496 245.453 880.592C245.453 880.848 245.405 881.392 245.309 882.224C245.213 883.056 245.165 884.304 245.165 885.968V910.88C245.165 911.52 245.373 911.952 245.789 912.176C246.205 912.368 246.653 912.544 247.133 912.704C247.421 912.8 247.677 912.912 247.901 913.04C248.125 913.168 248.237 913.36 248.237 913.616C248.237 913.808 248.125 913.936 247.901 914C247.709 914.064 247.501 914.096 247.277 914.096C246.669 914.096 246.141 914.08 245.693 914.048C245.245 914.016 244.813 913.984 244.397 913.952C243.981 913.92 243.485 913.904 242.909 913.904C242.365 913.904 241.885 913.92 241.469 913.952C241.053 913.984 240.637 914.016 240.221 914.048C239.805 914.112 239.277 914.144 238.637 914.144ZM261.569 914.192C261.153 914.192 260.817 914.144 260.561 914.048C260.337 913.984 260.225 913.84 260.225 913.616C260.225 913.392 260.353 913.232 260.609 913.136C260.897 913.008 261.281 912.88 261.761 912.752C262.529 912.56 263.169 912.16 263.681 911.552C264.225 910.944 264.577 910.096 264.737 909.008C265.057 906.608 265.345 904.192 265.601 901.76C265.857 899.296 266.081 896.96 266.273 894.752C266.465 892.512 266.593 890.528 266.657 888.8C266.657 888.576 266.657 888.32 266.657 888.032C266.657 887.744 266.641 887.472 266.609 887.216C266.609 886.864 266.545 886.544 266.417 886.256C266.321 885.936 266.097 885.664 265.745 885.44C265.233 885.024 264.721 884.736 264.209 884.576C263.697 884.384 263.121 884.224 262.48 884.096C262.129 884.032 261.841 883.92 261.617 883.76C261.425 883.568 261.329 883.36 261.329 883.136C261.329 882.848 261.473 882.672 261.761 882.608C262.049 882.544 262.417 882.512 262.865 882.512C263.249 882.512 263.777 882.528 264.449 882.56C265.121 882.592 265.857 882.64 266.657 882.704C267.457 882.736 268.209 882.768 268.913 882.8C269.649 882.832 270.257 882.848 270.737 882.848C270.961 882.848 271.169 882.928 271.361 883.088C271.553 883.216 271.681 883.408 271.745 883.664C271.905 884.24 272.065 884.832 272.225 885.44C272.417 886.048 272.625 886.672 272.849 887.312L280.241 905.696C280.337 905.888 280.481 906 280.673 906.032C280.897 906.064 281.057 905.984 281.153 905.792L289.697 887.408C289.889 886.672 290.049 885.968 290.177 885.296C290.337 884.592 290.481 884 290.609 883.52C290.705 883.104 290.897 882.896 291.185 882.896H293.009C294.097 882.896 295.249 882.832 296.465 882.704C297.681 882.544 298.609 882.464 299.249 882.464C299.473 882.464 299.713 882.512 299.969 882.608C300.225 882.672 300.353 882.816 300.353 883.04C300.353 883.296 300.257 883.488 300.065 883.616C299.873 883.744 299.569 883.888 299.153 884.048C298.801 884.176 298.417 884.32 298.001 884.48C297.585 884.64 297.201 884.8 296.849 884.96C296.337 885.184 295.937 885.488 295.649 885.872C295.361 886.224 295.233 886.704 295.265 887.312C295.265 889.584 295.313 891.664 295.409 893.552C295.505 895.408 295.585 897.184 295.649 898.88C295.745 900.576 295.857 902.272 295.985 903.968C296.113 905.664 296.225 907.472 296.321 909.392C296.385 910.32 296.721 911.056 297.329 911.6C297.937 912.112 298.801 912.48 299.921 912.704C300.369 912.8 300.705 912.912 300.929 913.04C301.185 913.168 301.313 913.36 301.313 913.616C301.313 913.808 301.201 913.952 300.977 914.048C300.753 914.144 300.449 914.192 300.065 914.192C299.265 914.192 298.529 914.16 297.857 914.096C297.185 914.064 296.513 914.032 295.841 914C295.201 913.968 294.529 913.952 293.825 913.952C293.185 913.952 292.593 913.968 292.049 914C291.505 914.032 290.929 914.064 290.321 914.096C289.713 914.16 288.993 914.192 288.161 914.192C287.809 914.192 287.505 914.144 287.249 914.048C287.025 913.984 286.913 913.84 286.913 913.616C286.913 913.392 287.025 913.2 287.249 913.04C287.505 912.88 287.857 912.768 288.305 912.704C289.329 912.544 290.033 912.224 290.417 911.744C290.801 911.232 290.993 910.448 290.993 909.392C290.961 907.184 290.913 905.136 290.849 903.248C290.817 901.36 290.753 899.504 290.657 897.68C290.561 895.824 290.465 893.872 290.369 891.824C290.369 891.536 290.289 891.408 290.129 891.44C290.001 891.44 289.857 891.584 289.697 891.872L279.329 914.144C279.233 914.4 279.057 914.512 278.801 914.48C278.545 914.48 278.385 914.368 278.321 914.144C276.945 910.4 275.489 906.72 273.953 903.104C272.449 899.456 270.865 895.648 269.201 891.68C269.105 891.488 268.961 891.408 268.769 891.44C268.609 891.472 268.513 891.6 268.481 891.824C268.257 893.84 268.049 895.792 267.857 897.68C267.697 899.568 267.569 901.44 267.473 903.296C267.409 905.152 267.377 907.072 267.377 909.056C267.377 909.952 267.649 910.736 268.193 911.408C268.769 912.048 269.585 912.48 270.641 912.704C271.121 912.8 271.489 912.912 271.745 913.04C272.033 913.168 272.177 913.36 272.177 913.616C272.177 913.808 272.049 913.952 271.793 914.048C271.537 914.144 271.217 914.192 270.833 914.192C269.969 914.192 269.313 914.16 268.865 914.096C268.417 914.064 268.017 914.032 267.665 914C267.313 914 266.817 914 266.177 914C265.569 914 265.025 914.016 264.545 914.048C264.097 914.08 263.633 914.112 263.153 914.144C262.705 914.176 262.177 914.192 261.569 914.192ZM307.73 914.672C307.058 914.672 306.402 914.448 305.762 914C305.122 913.584 304.594 913.056 304.178 912.416C303.762 911.744 303.554 911.088 303.554 910.448C303.554 909.392 303.842 908.544 304.418 907.904C305.026 907.264 305.954 906.688 307.202 906.176L311.858 904.208C312.498 903.952 312.882 903.728 313.01 903.536C313.138 903.312 313.218 902.88 313.25 902.24L313.346 899.312C313.378 898.448 313.17 897.728 312.722 897.152C312.274 896.576 311.618 896.288 310.754 896.288C310.306 896.288 309.842 896.384 309.362 896.576C308.914 896.736 308.546 896.928 308.258 897.152C308.098 897.28 307.986 897.456 307.922 897.68C307.89 897.904 307.874 898.144 307.874 898.4C307.874 898.56 307.874 898.752 307.874 898.976C307.906 899.168 307.922 899.328 307.922 899.456C307.922 899.648 307.698 899.888 307.25 900.176C306.834 900.432 306.338 900.672 305.762 900.896C305.218 901.12 304.754 901.232 304.37 901.232C304.178 901.232 304.018 901.184 303.89 901.088C303.794 900.96 303.746 900.8 303.746 900.608C303.746 900.096 303.906 899.568 304.226 899.024C304.578 898.448 305.09 897.872 305.762 897.296C306.53 896.624 307.362 896.032 308.258 895.52C309.186 894.976 310.082 894.56 310.946 894.272C311.842 893.984 312.626 893.84 313.298 893.84C314.642 893.84 315.73 894.304 316.562 895.232C317.426 896.128 317.826 897.296 317.762 898.736L317.522 909.584C317.49 910.288 317.634 910.864 317.954 911.312C318.274 911.76 318.674 911.984 319.154 911.984C319.89 911.984 320.466 911.792 320.882 911.408C321.01 911.28 321.122 911.216 321.218 911.216C321.378 911.216 321.506 911.264 321.602 911.36C321.73 911.456 321.794 911.584 321.794 911.744C321.794 912.128 321.57 912.528 321.122 912.944C320.578 913.488 319.986 913.904 319.346 914.192C318.738 914.512 318.146 914.672 317.57 914.672C315.97 914.672 314.69 913.808 313.73 912.08H313.586C312.53 912.976 311.538 913.632 310.61 914.048C309.682 914.464 308.722 914.672 307.73 914.672ZM310.226 912.08C310.77 912.08 311.218 912 311.57 911.84C311.954 911.648 312.29 911.392 312.578 911.072C312.738 910.912 312.85 910.72 312.914 910.496C313.01 910.24 313.074 909.856 313.106 909.344L313.202 906.608C313.234 906.288 313.218 906.064 313.154 905.936C313.09 905.776 312.962 905.696 312.77 905.696C312.706 905.696 312.61 905.712 312.482 905.744C312.354 905.776 312.178 905.84 311.954 905.936C310.514 906.48 309.506 907.056 308.93 907.664C308.354 908.24 308.066 908.88 308.066 909.584C308.066 910.448 308.29 911.088 308.738 911.504C309.218 911.888 309.714 912.08 310.226 912.08ZM331.926 914.72C330.198 914.72 328.662 914.288 327.318 913.424C326.006 912.528 324.966 911.296 324.198 909.728C323.43 908.128 323.046 906.288 323.046 904.208C323.046 902.32 323.478 900.592 324.342 899.024C325.238 897.456 326.422 896.208 327.894 895.28C329.366 894.32 330.982 893.84 332.742 893.84C334.054 893.84 335.222 894.112 336.246 894.656C337.302 895.168 338.118 895.904 338.694 896.864C339.302 897.792 339.606 898.864 339.606 900.08C339.606 901.136 339.11 901.664 338.118 901.664H328.182C327.734 901.664 327.414 901.792 327.222 902.048C327.03 902.304 326.934 902.768 326.934 903.44C326.934 904.848 327.254 906.144 327.894 907.328C328.534 908.48 329.382 909.408 330.438 910.112C331.494 910.816 332.662 911.168 333.942 911.168C334.902 911.168 335.766 910.992 336.534 910.64C337.334 910.256 338.07 909.728 338.742 909.056C338.838 908.928 338.918 908.832 338.982 908.768C339.078 908.704 339.174 908.672 339.27 908.672C339.558 908.672 339.702 908.848 339.702 909.2C339.702 909.712 339.478 910.32 339.03 911.024C338.582 911.696 338.006 912.32 337.302 912.896C336.63 913.44 335.83 913.872 334.902 914.192C334.006 914.544 333.014 914.72 331.926 914.72ZM328.23 900.032H332.07C332.902 900.032 333.558 900.016 334.038 899.984C334.518 899.952 334.966 899.888 335.382 899.792C335.542 899.728 335.654 899.6 335.718 899.408C335.782 899.184 335.814 898.912 335.814 898.592C335.814 897.696 335.446 896.944 334.71 896.336C333.974 895.696 333.094 895.376 332.07 895.376C331.366 895.376 330.662 895.584 329.958 896C329.286 896.416 328.726 896.944 328.278 897.584C327.83 898.192 327.622 898.816 327.654 899.456C327.654 899.84 327.846 900.032 328.23 900.032ZM348.265 914.672C347.241 914.672 346.265 914.528 345.337 914.24C344.441 913.952 343.657 913.536 342.985 912.992C342.761 912.576 342.601 911.92 342.505 911.024C342.409 910.128 342.361 909.312 342.361 908.576C342.361 908.256 342.601 908.096 343.081 908.096C343.273 908.096 343.433 908.144 343.561 908.24C343.721 908.304 343.817 908.4 343.849 908.528C344.329 910.032 345.001 911.168 345.865 911.936C346.729 912.704 347.673 913.088 348.697 913.088C349.593 913.088 350.329 912.8 350.905 912.224C351.481 911.616 351.769 910.896 351.769 910.064C351.769 909.2 351.465 908.48 350.857 907.904C350.249 907.296 349.321 906.608 348.073 905.84C347.049 905.232 346.169 904.64 345.433 904.064C344.697 903.456 344.137 902.8 343.753 902.096C343.369 901.36 343.177 900.528 343.177 899.6C343.177 898.48 343.449 897.488 343.993 896.624C344.569 895.76 345.369 895.072 346.393 894.56C347.417 894.048 348.649 893.792 350.089 893.792C351.113 893.792 351.977 893.904 352.681 894.128C353.417 894.32 353.945 894.528 354.265 894.752C354.521 895.104 354.729 895.68 354.889 896.48C355.081 897.28 355.177 898.08 355.177 898.88C355.177 899.136 354.969 899.264 354.553 899.264C354.361 899.264 354.153 899.216 353.929 899.12C353.737 899.024 353.609 898.896 353.545 898.736C353.129 897.616 352.601 896.768 351.961 896.192C351.353 895.616 350.601 895.328 349.705 895.328C348.937 895.328 348.249 895.568 347.641 896.048C347.033 896.496 346.729 897.152 346.729 898.016C346.729 898.752 346.985 899.408 347.497 899.984C348.041 900.528 348.889 901.12 350.041 901.76C351.961 902.816 353.369 903.824 354.265 904.784C355.193 905.712 355.657 906.96 355.657 908.528C355.657 910.384 354.985 911.872 353.641 912.992C352.329 914.112 350.537 914.672 348.265 914.672ZM366.694 914.672C364.934 914.672 363.574 914.176 362.614 913.184C361.686 912.192 361.222 910.736 361.222 908.816V897.68C361.222 897.424 361.11 897.248 360.886 897.152C360.694 897.024 360.294 896.96 359.686 896.96H359.302C359.11 896.96 358.95 896.832 358.822 896.576C358.694 896.288 358.63 896.016 358.63 895.76C358.63 895.696 358.662 895.616 358.726 895.52C358.822 895.392 358.902 895.312 358.966 895.28C359.638 894.864 360.294 894.416 360.934 893.936C361.606 893.424 362.214 892.912 362.758 892.4C363.334 891.888 363.814 891.44 364.198 891.056C364.39 890.896 364.55 890.752 364.678 890.624C364.806 890.496 364.966 890.432 365.158 890.432C365.35 890.432 365.51 890.48 365.638 890.576C365.798 890.672 365.862 890.864 365.83 891.152L365.542 893.504C365.51 893.888 365.59 894.144 365.782 894.272C366.006 894.4 366.31 894.464 366.694 894.464H372.262C372.358 894.464 372.454 894.576 372.55 894.8C372.646 895.024 372.694 895.248 372.694 895.472C372.694 895.824 372.646 896.16 372.55 896.48C372.454 896.8 372.342 896.96 372.214 896.96H367.558C366.758 896.96 366.23 897.04 365.974 897.2C365.75 897.36 365.638 897.728 365.638 898.304V907.616C365.638 908.96 365.91 910 366.454 910.736C366.998 911.44 367.766 911.792 368.758 911.792C369.686 911.792 370.39 911.712 370.87 911.552C371.35 911.392 371.782 911.2 372.166 910.976C372.262 910.912 372.342 910.88 372.406 910.88C372.566 910.88 372.662 910.96 372.694 911.12C372.758 911.28 372.79 911.456 372.79 911.648C372.79 911.84 372.502 912.176 371.926 912.656C371.35 913.136 370.598 913.584 369.67 914C368.742 914.448 367.75 914.672 366.694 914.672ZM384.452 914.672C382.628 914.672 380.964 914.256 379.46 913.424C377.988 912.56 376.82 911.392 375.956 909.92C375.092 908.448 374.66 906.768 374.66 904.88C374.66 903.472 374.932 902.112 375.476 900.8C376.02 899.488 376.788 898.304 377.78 897.248C378.772 896.192 379.924 895.36 381.236 894.752C382.548 894.112 383.956 893.792 385.46 893.792C387.348 893.792 389.06 894.256 390.596 895.184C392.132 896.08 393.348 897.264 394.244 898.736C395.14 900.208 395.588 901.824 395.588 903.584C395.588 905.504 395.172 907.312 394.34 909.008C393.508 910.704 392.26 912.08 390.596 913.136C388.964 914.16 386.916 914.672 384.452 914.672ZM385.46 912.992C386.388 912.992 387.22 912.816 387.956 912.464C388.692 912.08 389.268 911.504 389.684 910.736C390.068 910 390.324 909.104 390.452 908.048C390.612 906.96 390.692 905.856 390.692 904.736C390.692 903.136 390.436 901.632 389.924 900.224C389.412 898.816 388.708 897.68 387.812 896.816C386.916 895.952 385.86 895.52 384.644 895.52C383.908 895.52 383.236 895.648 382.628 895.904C382.052 896.128 381.524 896.528 381.044 897.104C380.436 897.84 380.036 898.8 379.844 899.984C379.652 901.136 379.556 902.4 379.556 903.776C379.556 905.312 379.812 906.784 380.324 908.192C380.836 909.6 381.524 910.752 382.388 911.648C383.284 912.544 384.308 912.992 385.46 912.992ZM404.374 914.672C403.35 914.672 402.374 914.528 401.446 914.24C400.55 913.952 399.766 913.536 399.094 912.992C398.87 912.576 398.71 911.92 398.614 911.024C398.518 910.128 398.47 909.312 398.47 908.576C398.47 908.256 398.71 908.096 399.19 908.096C399.382 908.096 399.542 908.144 399.67 908.24C399.83 908.304 399.926 908.4 399.958 908.528C400.438 910.032 401.11 911.168 401.974 911.936C402.838 912.704 403.782 913.088 404.806 913.088C405.702 913.088 406.438 912.8 407.014 912.224C407.59 911.616 407.878 910.896 407.878 910.064C407.878 909.2 407.574 908.48 406.966 907.904C406.358 907.296 405.43 906.608 404.182 905.84C403.158 905.232 402.278 904.64 401.542 904.064C400.806 903.456 400.246 902.8 399.862 902.096C399.478 901.36 399.286 900.528 399.286 899.6C399.286 898.48 399.558 897.488 400.102 896.624C400.678 895.76 401.478 895.072 402.502 894.56C403.526 894.048 404.758 893.792 406.198 893.792C407.222 893.792 408.086 893.904 408.79 894.128C409.526 894.32 410.054 894.528 410.374 894.752C410.63 895.104 410.838 895.68 410.998 896.48C411.19 897.28 411.286 898.08 411.286 898.88C411.286 899.136 411.078 899.264 410.662 899.264C410.47 899.264 410.262 899.216 410.038 899.12C409.846 899.024 409.718 898.896 409.654 898.736C409.238 897.616 408.71 896.768 408.07 896.192C407.462 895.616 406.71 895.328 405.814 895.328C405.046 895.328 404.358 895.568 403.75 896.048C403.142 896.496 402.838 897.152 402.838 898.016C402.838 898.752 403.094 899.408 403.606 899.984C404.15 900.528 404.998 901.12 406.15 901.76C408.07 902.816 409.478 903.824 410.374 904.784C411.302 905.712 411.766 906.96 411.766 908.528C411.766 910.384 411.094 911.872 409.75 912.992C408.438 914.112 406.646 914.672 404.374 914.672ZM424.483 914.672C422.659 914.672 420.995 914.256 419.491 913.424C418.019 912.56 416.851 911.392 415.987 909.92C415.123 908.448 414.691 906.768 414.691 904.88C414.691 903.472 414.963 902.112 415.507 900.8C416.051 899.488 416.819 898.304 417.811 897.248C418.803 896.192 419.955 895.36 421.267 894.752C422.579 894.112 423.987 893.792 425.491 893.792C427.379 893.792 429.091 894.256 430.627 895.184C432.163 896.08 433.379 897.264 434.275 898.736C435.171 900.208 435.619 901.824 435.619 903.584C435.619 905.504 435.203 907.312 434.371 909.008C433.539 910.704 432.291 912.08 430.627 913.136C428.995 914.16 426.947 914.672 424.483 914.672ZM425.491 912.992C426.419 912.992 427.251 912.816 427.987 912.464C428.723 912.08 429.299 911.504 429.715 910.736C430.099 910 430.355 909.104 430.483 908.048C430.643 906.96 430.723 905.856 430.723 904.736C430.723 903.136 430.467 901.632 429.955 900.224C429.443 898.816 428.739 897.68 427.843 896.816C426.947 895.952 425.891 895.52 424.675 895.52C423.939 895.52 423.267 895.648 422.659 895.904C422.083 896.128 421.555 896.528 421.075 897.104C420.467 897.84 420.067 898.8 419.875 899.984C419.683 901.136 419.587 902.4 419.587 903.776C419.587 905.312 419.843 906.784 420.355 908.192C420.867 909.6 421.555 910.752 422.419 911.648C423.315 912.544 424.339 912.992 425.491 912.992Z" fill="white"/>
    <path d="M62.5205 517.744C73.7571 517.744 82.0849 522.759 86.9375 531.978V520.091H111.597V600.962C111.597 625.466 95.1045 638 70.1211 638C43.6032 638 30.1821 626.274 29.8604 608.4H54.8398C55.4063 616.409 61.549 620.612 70.2822 620.612C81.0363 620.612 86.6933 614.062 86.6934 602.983V596.755C86.6934 594.734 88.071 593.198 90.0078 593.198H94.5381C99.5479 593.198 103.671 589.719 103.671 584.627C103.671 579.451 100.195 575.891 95.1045 575.891C90.0913 575.891 87.0989 579.451 85.8857 584.543C84.8334 588.589 83.2182 591.984 81.1172 594.572C77.0722 599.423 71.0901 601.769 62.3604 601.77C41.0165 601.77 28.0001 584.788 28 560.042C28 535.212 41.0963 517.744 62.5205 517.744ZM1016.68 517.744C1027.92 517.744 1036.25 522.759 1041.1 531.978V520.091H1065.76V600.962C1065.76 625.466 1049.27 638 1024.28 638C997.764 638 984.346 626.274 984.021 608.4H1009C1009.57 616.409 1015.71 620.612 1024.45 620.612C1035.2 620.612 1040.86 614.062 1040.86 602.983V596.755C1040.86 594.734 1042.23 593.198 1044.17 593.198H1048.7C1053.71 593.198 1057.83 589.718 1057.83 584.627C1057.83 579.451 1054.36 575.891 1049.27 575.891C1044.25 575.891 1041.26 579.451 1040.05 584.543C1039 588.589 1037.38 591.984 1035.28 594.572C1031.24 599.423 1025.25 601.77 1016.52 601.77C995.177 601.77 982.16 584.788 982.16 560.042C982.16 535.212 995.257 517.744 1016.68 517.744ZM168.237 517.744C191.927 517.744 208.82 533.191 208.82 561.577C208.82 564.085 208.82 566.512 208.743 568.774H158.616C153.603 568.774 150.208 565.539 150.208 560.85C150.208 556.076 153.603 552.841 158.616 552.841H183.76C182.949 540.388 177.453 534.971 168.237 534.971C159.665 534.971 153.442 540.468 151.582 549.771C151.177 551.792 150.127 552.6 147.862 552.6H146.327C141.478 552.6 137.839 555.835 137.839 560.688C137.839 565.459 141.478 568.693 146.327 568.693H148.106C150.047 568.693 151.099 569.582 151.26 571.688C152.148 583.735 158.777 590.285 168.72 590.285C177.048 590.285 182.547 585.595 183.76 577.185H208.419C206.073 596.188 191.2 607.753 168.237 607.753C142.771 607.753 125.469 593.117 125.469 562.79C125.469 534.079 143.74 517.744 168.237 517.744ZM261.325 517.744C286.791 517.744 303.531 535.051 303.531 562.71C303.531 590.365 286.791 607.753 261.325 607.753C235.776 607.753 219.043 590.365 219.043 562.71C219.043 535.051 235.776 517.744 261.325 517.744ZM398.266 517.744C423.735 517.744 440.468 535.051 440.468 562.71C440.468 590.365 423.735 607.753 398.266 607.753C372.72 607.753 355.983 590.365 355.983 562.71C355.983 535.051 372.719 517.744 398.266 517.744ZM489.043 517.744C513.782 517.744 525.991 530.442 526.802 545.725H501.573C501.332 538.527 496.563 534.243 488.638 534.243C481.282 534.243 476.353 537.8 476.353 543.056C476.353 547.263 479.341 549.69 485.974 550.984L502.062 554.055C520.333 557.534 528.256 565.62 528.256 579.045C528.256 598.454 511.52 607.753 490.096 607.753C465.518 607.753 450.236 597.321 449.67 578.64H475.38C475.625 586.568 481.607 591.097 490.421 591.097C498.343 591.097 503.192 587.777 503.192 582.199C503.192 577.345 499.797 575.163 492.519 573.708L477.24 570.715C459.05 567.158 451.288 558.989 451.288 546.13C451.288 529.634 465.032 517.744 489.043 517.744ZM836.451 517.744C861.917 517.744 878.653 535.051 878.653 562.71C878.653 590.365 861.917 607.753 836.451 607.753C810.905 607.753 794.169 590.365 794.169 562.71C794.169 535.051 810.905 517.744 836.451 517.744ZM1186.21 517.744C1209.9 517.744 1226.8 533.191 1226.8 561.577C1226.8 564.085 1226.8 566.512 1226.72 568.774H1176.59C1171.58 568.774 1168.18 565.539 1168.18 560.85C1168.18 556.076 1171.58 552.841 1176.59 552.841H1201.74C1200.93 540.388 1195.43 534.971 1186.21 534.971C1177.64 534.971 1171.42 540.468 1169.56 549.771C1169.15 551.792 1168.1 552.6 1165.84 552.6H1164.3C1159.45 552.6 1155.81 555.835 1155.81 560.688C1155.81 565.459 1159.45 568.693 1164.3 568.693H1166.08C1168.02 568.693 1169.07 569.582 1169.24 571.688C1170.12 583.735 1176.75 590.285 1186.7 590.285C1195.02 590.285 1200.52 585.595 1201.74 577.185H1226.39C1224.05 596.188 1209.17 607.753 1186.21 607.753C1160.75 607.753 1143.44 593.117 1143.44 562.79C1143.44 534.079 1161.72 517.744 1186.21 517.744ZM1275.79 517.744C1300.53 517.744 1312.74 530.442 1313.55 545.725H1288.32C1288.08 538.527 1283.31 534.243 1275.38 534.243C1268.03 534.243 1263.1 537.8 1263.1 543.056C1263.1 547.263 1266.09 549.69 1272.72 550.984L1288.81 554.055C1307.08 557.534 1315 565.62 1315 579.045C1315 598.454 1298.26 607.753 1276.84 607.753C1252.26 607.753 1236.98 597.321 1236.42 578.64H1262.13C1262.37 586.568 1268.35 591.097 1277.17 591.097C1285.09 591.097 1289.94 587.777 1289.94 582.199C1289.94 577.345 1286.54 575.163 1279.27 573.708L1263.99 570.715C1245.79 567.158 1238.03 558.989 1238.03 546.13C1238.03 529.634 1251.78 517.744 1275.79 517.744ZM341.897 605.41H317.4V489.438H341.897V605.41ZM566.966 541.843C566.966 543.703 565.591 545.161 563.731 545.161H560.903C555.404 545.161 551.442 549.285 551.442 554.3C551.443 559.395 555.404 563.112 560.417 563.112C565.025 563.112 568.986 559.23 568.986 554.135V551.064C568.986 548.312 570.119 546.455 572.301 544.028L593.563 520.09H623.4L592.19 553.572L625.823 605.41H597.039L576.101 570.876L566.965 580.661V605.41H542.468V489.438H566.966V541.843ZM658.788 605.41H634.294V520.09H658.788V605.41ZM735.976 541.843C735.975 543.703 734.602 545.161 732.742 545.161H729.913C724.414 545.161 720.453 549.285 720.453 554.3C720.453 559.395 724.414 563.112 729.428 563.112C734.036 563.112 737.997 559.23 737.997 554.135V551.064C737.997 548.312 739.129 546.455 741.311 544.028L762.574 520.09H792.407L761.2 553.572L794.833 605.41H766.053L745.111 570.876L735.976 580.661V605.41H711.479V489.438H735.976V541.843ZM941.682 517.744C958.823 517.744 968.928 529.715 968.928 547.585V605.41H944.43V549.525C944.43 541.279 940.308 536.506 932.386 536.506C922.684 536.506 917.104 543.948 917.104 557.454V605.41H892.606V520.09H914.517V527.854C914.517 529.955 913.223 531.169 911.202 531.169H906.515C901.501 531.169 897.54 534.81 897.54 539.821C897.54 544.675 901.095 548.477 906.028 548.477C910.797 548.477 913.71 545.322 914.923 539.821C918.237 525.833 926.32 517.744 941.682 517.744ZM1132.13 518.636C1133.75 518.636 1135.36 518.797 1136.49 519.038V542.734C1134.31 542.168 1132.05 541.927 1129.62 541.927C1117.98 541.927 1108.12 549.606 1108.12 565.944V605.41H1083.62V520.09H1105.69V527.935C1105.69 529.715 1104.32 531.169 1102.38 531.169H1098.49C1093.65 531.169 1089.44 534.565 1089.44 539.821C1089.44 544.675 1093.08 548.476 1097.93 548.477C1102.7 548.477 1105.45 545.077 1106.58 539.821C1107.39 535.94 1108.76 532.544 1110.62 529.715C1115.15 522.598 1122.51 518.636 1132.13 518.636ZM261.325 536.506C250.736 536.506 244.268 545.322 244.268 562.71C244.268 580.098 250.736 588.991 261.325 588.991C271.918 588.991 278.303 580.178 278.303 562.71C278.303 545.242 271.919 536.506 261.325 536.506ZM398.266 536.506C387.676 536.506 381.208 545.322 381.208 562.71C381.208 580.098 387.676 588.991 398.266 588.991C408.855 588.991 415.247 580.178 415.247 562.71C415.247 545.242 408.855 536.506 398.266 536.506ZM836.451 536.506C825.862 536.506 819.394 545.322 819.394 562.71C819.394 580.098 825.862 588.991 836.451 588.991C847.044 588.991 853.429 580.178 853.429 562.71C853.429 545.242 847.044 536.506 836.451 536.506ZM70.1211 536.426C59.2869 536.426 53.546 545.724 53.5459 559.877C53.5459 573.949 59.2868 583.333 70.1211 583.333C80.9521 583.333 86.8545 573.949 86.8545 559.877C86.8544 545.724 80.9521 536.426 70.1211 536.426ZM1024.28 536.426C1013.45 536.426 1007.71 545.724 1007.71 559.877C1007.71 573.949 1013.45 583.333 1024.28 583.333C1035.12 583.333 1041.02 573.949 1041.02 559.877C1041.02 545.724 1035.12 536.426 1024.28 536.426ZM231.895 554.135C227.126 554.135 223.329 558.017 223.329 562.79C223.329 567.56 227.126 571.362 231.895 571.362C236.586 571.362 240.548 567.56 240.548 562.79C240.548 558.017 236.586 554.135 231.895 554.135ZM290.672 554.135C285.903 554.135 282.104 558.017 282.104 562.79C282.104 567.56 285.903 571.362 290.672 571.362C295.444 571.362 299.245 567.56 299.245 562.79C299.245 558.017 295.444 554.135 290.672 554.135ZM368.839 554.135C364.067 554.135 360.267 558.017 360.267 562.79C360.267 567.56 364.067 571.362 368.839 571.362C373.527 571.362 377.488 567.56 377.488 562.79C377.488 558.017 373.527 554.135 368.839 554.135ZM427.616 554.135C422.844 554.135 419.044 558.017 419.044 562.79C419.044 567.56 422.844 571.362 427.616 571.362C432.385 571.362 436.186 567.56 436.186 562.79C436.185 558.017 432.385 554.135 427.616 554.135ZM807.024 554.135C802.252 554.135 798.452 558.017 798.452 562.79C798.452 567.56 802.252 571.362 807.024 571.362C811.713 571.362 815.674 567.56 815.674 562.79C815.674 558.017 811.713 554.135 807.024 554.135ZM865.798 554.135C861.029 554.135 857.23 558.017 857.229 562.79C857.229 567.56 861.029 571.362 865.798 571.362C870.57 571.362 874.371 567.56 874.371 562.79C874.371 558.017 870.57 554.135 865.798 554.135ZM490.176 554.782C485.974 554.782 482.659 558.101 482.659 562.224C482.659 566.347 486.051 569.662 490.257 569.662C494.302 569.662 497.616 566.347 497.616 562.224C497.616 558.101 494.217 554.782 490.176 554.782ZM1276.92 554.782C1272.72 554.782 1269.4 558.101 1269.4 562.224C1269.4 566.347 1272.8 569.662 1277 569.662C1281.05 569.662 1284.36 566.347 1284.36 562.224C1284.36 558.101 1280.97 554.782 1276.92 554.782ZM489.529 498.254L498.099 486.608H520.575L500.686 511.435H478.453L458.242 486.608H480.8L489.529 498.254ZM659.438 509.738H633.728V488.228H659.438V509.738ZM434.699 362.52C459.438 362.52 471.647 375.214 472.458 390.5H447.229C446.988 383.303 442.22 379.016 434.294 379.016C426.938 379.016 422.008 382.576 422.008 387.832C422.008 392.035 424.998 394.462 431.63 395.756L447.719 398.83C465.99 402.306 473.912 410.395 473.912 423.817C473.912 443.226 457.176 452.529 435.752 452.529C411.174 452.529 395.893 442.097 395.326 423.415H421.036C421.281 431.34 427.263 435.868 436.077 435.868C443.999 435.868 448.849 432.553 448.849 426.972C448.849 422.121 445.454 419.935 438.175 418.48L422.896 415.49C404.706 411.93 396.944 403.761 396.944 390.905C396.945 374.406 410.688 362.52 434.699 362.52ZM568.71 362.52C594.179 362.52 610.912 379.824 610.912 407.482C610.912 435.141 594.179 452.529 568.71 452.529C543.164 452.529 526.428 435.141 526.428 407.482C526.428 379.824 543.164 362.52 568.71 362.52ZM745.922 362.52C769.612 362.52 786.509 377.967 786.509 406.35C786.509 408.857 786.509 411.284 786.429 413.55H736.301C731.288 413.55 727.893 410.315 727.893 405.622C727.893 400.852 731.287 397.617 736.301 397.617H761.445C760.638 385.164 755.138 379.743 745.922 379.743C737.353 379.743 731.127 385.244 729.267 394.543C728.861 396.564 727.812 397.375 725.547 397.375H724.012C719.163 397.375 715.523 400.611 715.523 405.461C715.523 410.231 719.163 413.466 724.012 413.466H725.792C727.732 413.466 728.781 414.358 728.945 416.459C729.833 428.51 736.462 435.06 746.408 435.061C754.733 435.061 760.232 430.371 761.445 421.96H786.104C783.758 440.963 768.882 452.529 745.923 452.529C720.457 452.529 703.154 437.89 703.154 407.562C703.154 378.855 721.425 362.52 745.922 362.52ZM929.449 362.52C954.188 362.52 966.396 375.214 967.204 390.5H941.979C941.738 383.303 936.965 379.016 929.043 379.016C921.687 379.016 916.754 382.576 916.754 387.832C916.754 392.035 919.747 394.462 926.376 395.756L942.465 398.83C960.736 402.306 968.658 410.395 968.658 423.817C968.658 443.226 951.922 452.529 930.498 452.529C905.92 452.529 890.642 442.097 890.075 423.415H915.786C916.027 431.34 922.009 435.868 930.823 435.868C938.745 435.868 943.598 432.553 943.598 426.972C943.598 422.121 940.199 419.935 932.924 418.48L917.646 415.49C899.452 411.93 891.69 403.761 891.69 390.905C891.691 374.406 905.438 362.52 929.449 362.52ZM325.977 357.826C308.678 373.84 289.435 403.198 288.222 450.183H261.944C263.479 408.29 279.652 382.25 293.231 365.026C295.577 361.953 298.406 359.365 302.286 359.365H305.601C311.02 359.365 315.222 355.158 315.222 349.821C315.222 344.404 311.1 340.358 305.601 340.358C300.35 340.358 296.224 344.565 296.224 349.901V350.874C296.224 354.27 294.689 355.886 290.645 355.886H244.726V334.214H325.977V357.826ZM349.673 450.183H324.609V424.709H349.673V450.183ZM512.342 450.183H487.844V334.214H512.342V450.183ZM654.285 414.196C654.61 415.165 654.77 415.973 654.771 416.7C654.771 417.994 654.369 418.967 653.316 420.02L650.81 422.523C648.869 424.464 647.978 426.891 647.978 429.318C647.978 434.655 652.184 438.942 657.438 438.942C662.774 438.942 666.899 434.655 666.899 429.318C666.899 426.972 666.011 424.464 664.067 422.523L661.563 420.02C660.592 419.047 660.187 418.159 660.187 416.945C660.187 416.137 660.432 415.165 660.673 414.357L675.227 364.862H700.532L671.263 450.183H643.209L613.136 364.862H639.168L654.285 414.196ZM849.957 362.52C867.099 362.52 877.202 374.487 877.202 392.36V450.183H852.705V394.302C852.705 386.052 848.583 381.281 840.661 381.281C830.959 381.281 825.379 388.72 825.379 402.226V450.183H800.882V364.862H822.792V372.626C822.792 374.731 821.498 375.941 819.478 375.941H814.789C809.776 375.942 805.815 379.582 805.814 384.597C805.814 389.447 809.371 393.249 814.304 393.249C819.072 393.249 821.984 390.094 823.197 384.597C826.512 370.605 834.595 362.52 849.957 362.52ZM1006.92 386.618C1006.92 388.479 1005.55 389.934 1003.69 389.934H1000.86C995.362 389.934 991.401 394.057 991.4 399.071C991.4 404.167 995.362 407.888 1000.38 407.888C1004.98 407.888 1008.94 404.006 1008.94 398.911V395.837C1008.94 393.088 1010.08 391.228 1012.26 388.801L1033.52 364.862H1063.35L1032.15 398.344L1065.78 450.183H1037L1016.06 415.651L1006.92 425.437V450.183H982.426V334.214H1006.92V386.618ZM1098.75 450.183H1074.25V364.862H1098.75V450.183ZM568.71 381.281C558.12 381.281 551.652 390.095 551.652 407.482C551.652 424.87 558.12 433.767 568.71 433.767C579.3 433.767 585.69 424.95 585.69 407.482C585.69 390.014 579.3 381.281 568.71 381.281ZM539.283 398.911C534.511 398.911 530.71 402.792 530.71 407.562C530.71 412.336 534.511 416.138 539.283 416.138C543.971 416.138 547.933 412.336 547.933 407.562C547.933 402.793 543.971 398.911 539.283 398.911ZM598.06 398.911C593.288 398.911 589.487 402.793 589.487 407.562C589.487 412.336 593.288 416.137 598.06 416.138C602.828 416.138 606.629 412.336 606.629 407.562C606.629 402.792 602.828 398.911 598.06 398.911ZM435.832 399.558C431.63 399.558 428.315 402.873 428.315 406.996C428.315 411.123 431.706 414.438 435.912 414.438C439.957 414.438 443.271 411.123 443.271 406.996C443.271 402.873 439.874 399.558 435.832 399.558ZM930.582 399.558C926.376 399.558 923.062 402.873 923.062 406.996C923.062 411.123 926.456 414.438 930.662 414.438C934.704 414.438 938.018 411.123 938.018 406.996C938.018 402.873 934.623 399.558 930.582 399.558ZM1099.4 354.511H1073.69V333H1099.4V354.511Z" fill="white"/>
</svg>
