<svg width="1288" height="307" viewBox="0 0 1288 307" fill="none" xmlns="http://www.w3.org/2000/svg">
    <path fill-rule="evenodd" clip-rule="evenodd" d="M34.5605 185.985C45.8135 185.985 54.1504 191.006 59.0078 200.231V188.332H83.6943V269.276C83.6943 293.803 67.1811 306.348 42.1719 306.348C15.6212 306.348 2.1844 294.613 1.86133 276.725H26.874C27.4401 284.734 33.5921 288.946 42.3311 288.946C53.0979 288.946 58.7646 282.387 58.7646 271.301V265.068C58.7648 263.044 60.1398 261.506 62.084 261.506H66.6152C71.6323 261.506 75.7607 258.024 75.7607 252.927C75.7607 247.746 72.2811 244.185 67.1807 244.185C62.1637 244.185 59.1679 247.747 57.9561 252.844C56.904 256.892 55.2818 260.291 53.1777 262.881C49.1327 267.738 43.1405 270.086 34.4014 270.086C13.0309 270.086 3.43382e-05 253.087 0 228.32C0 203.471 13.1104 185.986 34.5605 185.985ZM988.819 185.985C1000.07 185.985 1008.41 191.006 1013.27 200.231V188.332H1037.95V269.276C1037.95 293.803 1021.44 306.348 996.431 306.348C969.88 306.348 956.442 294.613 956.119 276.725H981.132C981.698 284.735 987.851 288.946 996.59 288.946C1007.36 288.946 1013.02 282.387 1013.02 271.301V265.068C1013.02 263.044 1014.4 261.506 1016.34 261.506H1020.87C1025.89 261.506 1030.02 258.024 1030.02 252.927C1030.02 247.746 1026.54 244.185 1021.44 244.185C1016.42 244.185 1013.43 247.747 1012.21 252.844C1011.16 256.892 1009.54 260.291 1007.44 262.881C1003.39 267.738 997.399 270.086 988.66 270.086C967.29 270.086 954.259 253.087 954.259 228.32C954.259 203.471 967.369 185.985 988.819 185.985ZM140.285 185.985C164.003 185.985 180.919 201.447 180.919 229.858C180.919 232.365 180.919 234.796 180.839 237.06H130.653C125.636 237.06 122.237 233.823 122.237 229.129C122.237 224.352 125.636 221.116 130.653 221.116H155.826C155.017 208.652 149.514 203.228 140.285 203.228C131.706 203.228 125.473 208.731 123.612 218.039C123.206 220.063 122.154 220.873 119.887 220.873H118.349C113.495 220.873 109.853 224.109 109.853 228.966C109.853 233.743 113.495 236.979 118.349 236.979H120.13C122.074 236.98 123.126 237.872 123.289 239.976C124.178 252.034 130.816 258.593 140.771 258.593C149.107 258.593 154.611 253.896 155.826 245.479H180.513C178.166 264.499 163.273 276.075 140.285 276.075C114.79 276.075 97.4678 261.423 97.4678 231.07C97.4678 202.335 115.758 185.985 140.285 185.985ZM233.381 185.985C258.88 185.985 275.633 203.307 275.633 230.99C275.633 258.673 258.88 276.075 233.381 276.075C207.806 276.075 191.05 258.673 191.05 230.99C191.05 203.308 207.806 185.985 233.381 185.985ZM370.273 185.985C395.772 185.985 412.525 203.307 412.525 230.99C412.525 258.673 395.772 276.075 370.273 276.075C344.698 276.075 327.941 258.673 327.941 230.99C327.941 203.307 344.698 185.985 370.273 185.985ZM461.072 185.985C485.839 185.985 498.064 198.693 498.873 213.991H473.617C473.374 206.79 468.6 202.499 460.666 202.499C453.302 202.499 448.364 206.061 448.364 211.321C448.364 215.529 451.358 217.96 457.996 219.255L474.103 222.331C492.397 225.81 500.327 233.903 500.327 247.34C500.327 266.766 483.574 276.075 462.124 276.075C437.518 276.075 422.22 265.635 421.654 246.938H447.393C447.636 254.868 453.625 259.402 462.447 259.402C470.381 259.402 475.238 256.083 475.238 250.496C475.238 245.642 471.836 243.455 464.552 242L449.254 239.004C431.043 235.442 423.272 227.268 423.271 214.397C423.271 197.884 437.032 185.985 461.072 185.985ZM808.594 185.985C834.092 185.985 850.845 203.308 850.845 230.99C850.845 258.673 834.092 276.075 808.594 276.075C783.018 276.075 766.262 258.673 766.262 230.99C766.262 203.307 783.018 185.985 808.594 185.985ZM1158.31 185.985C1182.03 185.985 1198.94 201.447 1198.94 229.858C1198.94 232.365 1198.94 234.796 1198.86 237.06H1148.68C1143.66 237.059 1140.26 233.823 1140.26 229.129C1140.26 224.352 1143.66 221.116 1148.68 221.116H1173.85C1173.04 208.651 1167.54 203.228 1158.31 203.228C1149.73 203.228 1143.5 208.731 1141.64 218.039C1141.23 220.063 1140.18 220.873 1137.91 220.873H1136.38C1131.52 220.873 1127.88 224.109 1127.88 228.966C1127.88 233.743 1131.52 236.979 1136.38 236.979H1138.15C1140.1 236.979 1141.15 237.872 1141.31 239.976C1142.2 252.034 1148.84 258.593 1158.79 258.593C1167.13 258.593 1172.64 253.896 1173.85 245.479H1198.54C1196.19 264.499 1181.3 276.075 1158.31 276.075C1132.81 276.075 1115.49 261.423 1115.49 231.07C1115.49 202.336 1133.79 185.985 1158.31 185.985ZM1247.89 185.985C1272.66 185.985 1284.88 198.693 1285.69 213.991H1260.44C1260.19 206.79 1255.42 202.499 1247.49 202.499C1240.12 202.499 1235.18 206.061 1235.18 211.321C1235.18 215.529 1238.18 217.96 1244.82 219.255L1260.92 222.331C1279.22 225.81 1287.15 233.903 1287.15 247.34C1287.15 266.766 1270.39 276.075 1248.94 276.075C1224.34 276.075 1209.04 265.635 1208.47 246.938H1234.21C1234.46 254.868 1240.45 259.402 1249.27 259.402C1257.2 259.402 1262.06 256.083 1262.06 250.496C1262.06 245.642 1258.66 243.455 1251.37 242L1236.07 239.004C1217.86 235.442 1210.09 227.268 1210.09 214.397C1210.09 197.884 1223.85 185.985 1247.89 185.985ZM630.817 273.729H606.291V188.333H630.817V273.729ZM313.933 273.728H289.405V157.657H313.933V273.728ZM538.987 210.105C538.987 211.97 537.608 213.425 535.747 213.425H532.914C527.411 213.425 523.446 217.553 523.446 222.57C523.446 227.671 527.411 231.396 532.429 231.396C537.043 231.396 541.011 227.511 541.011 222.411V219.335C541.011 216.582 542.143 214.72 544.327 212.293L565.617 188.333H595.484L564.239 221.845L597.911 273.728H569.097L548.133 239.167L538.987 248.958V273.728H514.46V157.657H538.987V210.105ZM708.106 210.105C708.106 211.97 706.728 213.425 704.867 213.425H702.034C696.531 213.425 692.566 217.553 692.565 222.57C692.565 227.671 696.531 231.396 701.548 231.396C706.162 231.396 710.131 227.511 710.131 222.411V219.335C710.131 216.582 711.262 214.72 713.446 212.293L734.737 188.333H764.604L733.359 221.845L767.031 273.728H738.217L717.252 239.167L708.106 248.958V273.728H683.58V157.657H708.106V210.105ZM913.835 185.985C930.994 185.985 941.111 197.967 941.111 215.855V273.728H916.585V217.797C916.585 209.54 912.456 204.766 904.526 204.766C894.812 204.766 889.229 212.21 889.229 225.73V273.728H864.701V188.333H886.638V196.103C886.638 198.207 885.343 199.422 883.318 199.422H878.624C873.604 199.422 869.639 203.065 869.639 208.085C869.639 212.939 873.201 216.744 878.139 216.744C882.913 216.744 885.829 213.588 887.041 208.085C890.36 194.079 898.454 185.985 913.835 185.985ZM1104.29 186.878C1105.9 186.878 1107.52 187.037 1108.66 187.28V210.998C1106.47 210.432 1104.2 210.189 1101.77 210.189C1090.12 210.19 1080.24 217.876 1080.24 234.229V273.728H1055.72V188.333H1077.81V196.187C1077.81 197.968 1076.44 199.422 1074.5 199.422H1070.61C1065.76 199.422 1061.55 202.822 1061.55 208.085C1061.55 212.939 1065.19 216.744 1070.04 216.744C1074.82 216.744 1077.57 213.345 1078.71 208.085C1079.52 204.2 1080.89 200.798 1082.75 197.968C1087.29 190.843 1094.65 186.878 1104.29 186.878ZM233.381 204.766C222.777 204.766 216.302 213.588 216.302 230.99C216.302 248.392 222.777 257.298 233.381 257.298C243.985 257.298 250.38 248.472 250.38 230.99C250.38 213.508 243.985 204.766 233.381 204.766ZM370.273 204.766C359.67 204.766 353.194 213.588 353.194 230.99C353.194 248.392 359.67 257.298 370.273 257.298C380.877 257.298 387.272 248.472 387.272 230.99C387.272 213.508 380.877 204.766 370.273 204.766ZM808.594 204.766C797.99 204.766 791.515 213.588 791.515 230.99C791.515 248.392 797.99 257.298 808.594 257.298C819.197 257.298 825.593 248.472 825.593 230.99C825.593 213.508 819.197 204.766 808.594 204.766ZM42.1719 204.683C31.3252 204.683 25.5791 213.991 25.5791 228.157C25.5791 242.24 31.3252 251.632 42.1719 251.632C53.0151 251.632 58.9248 242.24 58.9248 228.157C58.9248 213.991 53.0152 204.683 42.1719 204.683ZM996.431 204.683C985.584 204.683 979.837 213.991 979.837 228.157C979.837 242.24 985.584 251.632 996.431 251.632C1007.27 251.632 1013.18 242.24 1013.18 228.157C1013.18 213.991 1007.27 204.683 996.431 204.683ZM203.92 222.411C199.143 222.411 195.338 226.296 195.338 231.07C195.338 235.848 199.143 239.649 203.92 239.649C208.614 239.649 212.58 235.848 212.58 231.07C212.58 226.296 208.614 222.411 203.92 222.411ZM262.765 222.411C257.987 222.411 254.186 226.296 254.186 231.07C254.186 235.848 257.987 239.649 262.765 239.649C267.539 239.649 271.345 235.848 271.345 231.07C271.345 226.296 267.539 222.411 262.765 222.411ZM340.812 222.411C336.035 222.411 332.229 226.296 332.229 231.07C332.23 235.848 336.035 239.649 340.812 239.649C345.507 239.649 349.473 235.848 349.473 231.07C349.473 226.296 345.507 222.411 340.812 222.411ZM399.657 222.411C394.88 222.411 391.078 226.296 391.078 231.07C391.078 235.848 394.88 239.649 399.657 239.649C404.431 239.649 408.237 235.848 408.237 231.07C408.237 226.296 404.431 222.411 399.657 222.411ZM779.133 222.411C774.355 222.411 770.55 226.296 770.55 231.07C770.55 235.848 774.355 239.649 779.133 239.649C783.827 239.649 787.792 235.848 787.792 231.07C787.792 226.296 783.827 222.411 779.133 222.411ZM837.978 222.411C833.2 222.411 829.398 226.296 829.398 231.07C829.398 235.848 833.2 239.649 837.978 239.649C842.752 239.649 846.557 235.848 846.557 231.07C846.557 226.296 842.752 222.411 837.978 222.411ZM462.204 223.057C457.996 223.057 454.677 226.376 454.677 230.504C454.677 234.632 458.076 237.952 462.287 237.952C466.332 237.952 469.651 234.632 469.651 230.504C469.651 226.376 466.252 223.057 462.204 223.057ZM1249.02 223.057C1244.82 223.057 1241.5 226.376 1241.5 230.504C1241.5 234.632 1244.9 237.952 1249.11 237.952C1253.15 237.952 1256.47 234.632 1256.47 230.504C1256.47 226.376 1253.07 223.057 1249.02 223.057ZM461.559 166.479L470.138 154.823H492.641L472.728 179.673H450.469L430.233 154.823H452.815L461.559 166.479ZM631.464 177.972H605.726V156.441H631.464V177.972ZM407.188 0C434.059 0.000111282 449.357 15.2179 450.329 35.0469H424.507C424.184 26.3875 418.115 19.9121 406.459 19.9121C396.584 19.9121 389.057 25.3354 389.057 33.6719C389.057 40.1472 393.345 44.1958 404.191 46.543L421.351 50.2646C438.996 54.07 452.189 63.0559 452.189 83.1279C452.189 106.682 435.437 120.686 408.24 120.686C380.315 120.686 361.534 106.846 361.131 81.9131H387.192C387.679 93.0826 395.613 100.45 408.644 100.45C419.087 100.45 426.288 95.3494 426.288 86.3672C426.288 79.3226 422.402 75.6002 412.125 73.333L396.016 69.7715C373.517 64.8342 363.072 54.7994 363.072 35.8594C363.072 15.0548 380.558 0 407.188 0ZM547.982 30.5957C573.481 30.5957 590.234 47.9178 590.234 75.6006C590.234 103.283 573.481 120.686 547.982 120.686C522.407 120.686 505.651 103.283 505.651 75.6006C505.651 47.9178 522.407 30.5957 547.982 30.5957ZM725.166 30.5957C748.883 30.5959 765.799 46.057 765.799 74.4688C765.799 76.9756 765.8 79.4061 765.72 81.6699H715.534C710.517 81.6699 707.114 78.4335 707.114 73.7393C707.114 68.9619 710.517 65.7256 715.534 65.7256H740.707C739.898 53.2613 734.394 47.8381 725.166 47.8379C716.587 47.8379 710.353 53.3409 708.492 62.6494C708.086 64.6735 707.035 65.4833 704.768 65.4834H703.232C698.375 65.4834 694.732 68.7189 694.732 73.5762C694.732 78.3536 698.375 81.5898 703.232 81.5898H705.01C706.954 81.5898 708.007 82.482 708.17 84.5859C709.059 96.6444 715.697 103.203 725.651 103.203C733.988 103.203 739.494 98.506 740.706 90.0898H765.396C763.046 109.11 748.154 120.685 725.166 120.686C699.671 120.686 682.348 106.033 682.348 75.6807C682.348 46.9458 700.643 30.5957 725.166 30.5957ZM908.675 30.5957C933.444 30.5958 945.666 43.3037 946.475 58.6016H921.219C920.976 51.4005 916.202 47.1085 908.269 47.1084C900.904 47.1084 895.967 50.6714 895.967 55.9316C895.967 60.1396 898.96 62.5702 905.599 63.8652L921.705 66.9414C939.999 70.4205 947.93 78.5135 947.93 91.9502C947.93 111.376 931.177 120.686 909.727 120.686C885.12 120.686 869.822 110.245 869.256 91.5479H894.994C895.237 99.478 901.227 104.013 910.05 104.013C917.983 104.013 922.841 100.693 922.841 95.1064C922.841 90.2526 919.438 88.0652 912.153 86.6104L896.855 83.6143C878.645 80.052 870.874 71.8786 870.874 59.0078C870.874 42.4947 884.634 30.5957 908.675 30.5957ZM291.03 25.9014C273.708 41.9284 254.442 71.3091 253.23 118.338H226.922C228.46 76.4094 244.647 50.3477 258.247 33.1055C260.594 30.0294 263.427 27.4396 267.312 27.4395H270.632C276.055 27.4395 280.264 23.2311 280.264 17.8877C280.264 12.4644 276.135 8.41895 270.632 8.41895C265.368 8.41906 261.243 12.6277 261.243 17.9678V18.9395C261.243 22.3386 259.705 23.9599 255.657 23.96H209.684V2.2666H291.03V25.9014ZM314.599 118.338H289.506V92.8428H314.599V118.338ZM491.642 118.338H467.115V2.2666H491.642V118.338ZM633.558 82.3193C633.884 83.2913 634.044 84.1001 634.044 84.8291C634.044 86.1242 633.641 87.0935 632.589 88.1455L630.079 90.6553C628.135 92.5996 627.245 95.0271 627.245 97.4541C627.245 102.797 631.454 107.089 636.717 107.089C642.057 107.089 646.185 102.797 646.186 97.4541C646.186 95.107 645.297 92.5996 643.353 90.6553L640.842 88.1455C639.873 87.1767 639.467 86.2841 639.467 85.0723C639.467 84.26 639.71 83.2913 639.953 82.4824L654.522 32.9424H679.857L650.557 118.338H622.472L592.358 32.9424H618.423L633.558 82.3193ZM829.225 30.5957C846.384 30.5957 856.502 42.5777 856.502 60.4658V118.338H831.975V62.4062C831.974 54.1499 827.846 49.376 819.916 49.376C810.202 49.3761 804.618 56.8202 804.618 70.3398V118.338H780.092V32.9424H802.028V40.7129C802.028 42.817 800.733 44.0322 798.709 44.0322H794.015C788.994 44.0323 785.029 47.6748 785.029 52.6953C785.029 57.5492 788.591 61.3543 793.528 61.3545C798.302 61.3545 801.219 58.1984 802.431 52.6953C805.75 38.6892 813.844 30.5958 829.225 30.5957ZM986.123 54.7158C986.123 56.5801 984.748 58.035 982.884 58.0352H980.051C974.548 58.0352 970.582 62.1635 970.582 67.1807C970.582 72.281 974.547 76.0067 979.567 76.0068C984.178 76.0068 988.147 72.1217 988.147 67.0215V63.9443C988.148 61.1913 989.279 59.3302 991.463 56.9033L1012.75 32.9424H1042.62L1011.38 66.4551L1045.05 118.338H1016.23L995.269 83.7773L986.123 93.5684V118.338H961.597V2.2666H986.123V54.7158ZM1077.95 118.338H1053.43V32.9424H1077.95V118.338ZM547.982 49.376C537.379 49.3761 530.903 58.1986 530.903 75.6006C530.903 93.0025 537.379 101.908 547.982 101.908C558.586 101.908 564.981 93.0825 564.981 75.6006C564.981 58.1187 558.586 49.376 547.982 49.376ZM518.521 67.0215C513.744 67.0217 509.939 70.9067 509.939 75.6807C509.94 80.4579 513.744 84.2595 518.521 84.2598C523.216 84.2598 527.182 80.4581 527.182 75.6807C527.182 70.9065 523.216 67.0215 518.521 67.0215ZM577.366 67.0215C572.589 67.0217 568.787 70.9067 568.787 75.6807C568.787 80.4579 572.589 84.2596 577.366 84.2598C582.14 84.2598 585.946 80.4581 585.946 75.6807C585.946 70.9065 582.14 67.0215 577.366 67.0215ZM909.807 67.667C905.599 67.667 902.279 70.9861 902.279 75.1143C902.279 79.2425 905.678 82.5615 909.89 82.5615C913.935 82.5615 917.254 79.2425 917.254 75.1143C917.254 70.9862 913.855 67.6672 909.807 67.667ZM407.997 50.2646C402.817 50.2647 398.606 54.3931 398.605 59.7363C398.605 64.9965 402.817 69.205 407.997 69.2051C413.257 69.2051 417.386 64.9965 417.386 59.7363C417.386 54.4729 413.177 50.2646 407.997 50.2646ZM1078.6 22.582H1052.86V1.05176H1078.6V22.582Z" fill="white"/>
</svg>
