<svg width="135" height="72" viewBox="0 0 135 72" fill="none" xmlns="http://www.w3.org/2000/svg">
    <path d="M13.9414 18.5947L9.25977 35.7881C8.43064 38.878 7.54101 42.1385 7.23242 45.2422C6.84733 49.7496 7.24498 52.93 8.3252 56.7451C9.50186 60.9006 13.8277 69.2456 24.4268 70.4453C28.0057 70.7165 30.0361 70.4024 31.5654 69.915C31.3479 70.2663 29.1482 72 24.666 72C9.57713 71.9998 0 59.4446 0 44.3428C6.57151e-05 34.3077 4.42044 21.8044 12.7598 7.06055L13.9414 18.5947ZM41.0322 24.6035C43.0574 29.1212 44.3105 33.5819 44.3105 37.7793C44.3104 49.8823 35.8326 59.6027 25.0186 58.333C17.8392 57.49 15.2059 51.6682 15.3975 47.2822C15.6343 41.8622 19.5738 38.6707 24.5146 38.9805C29.1069 39.2685 31.3603 43.213 30.8145 46.5137C30.2785 49.7537 27.7383 51.5013 24.7061 51.2324C21.8451 50.9787 20.5557 48.4003 20.9248 46.3027C21.2984 44.1814 23.22 43.3736 24.7891 44.0645C23.2847 44.0646 21.9453 44.9692 21.7754 46.4639C21.5631 48.3323 22.906 50.0192 24.7744 50.2314C27.1097 50.4966 29.2178 48.8186 29.4834 46.4834C29.8152 43.5639 27.7172 40.9274 24.7979 40.5957C21.1486 40.1811 17.854 42.8038 17.4395 46.4531C16.921 51.0147 20.1479 55.2754 24.7607 55.6514C30.4805 56.1173 35.6107 52.202 36.2588 46.5C36.8607 41.2024 34.1761 36.3016 29.8359 33.7959H28.1885L25.7871 37.5371V32.3281L36.6133 22.1943L41.0322 24.6035ZM76.6699 51.9014C76.6699 52.3141 76.8169 52.6568 77.1113 52.9287C77.4045 53.2009 77.7805 53.3369 78.2373 53.3369C78.7018 53.3369 79.0778 53.2023 79.3633 52.9346C79.6486 52.6668 79.791 52.3225 79.791 51.9014V45.7773H81.8184V51.9404C81.8184 52.5375 81.6792 53.0653 81.3975 53.5215C81.117 53.9779 80.7169 54.3284 80.1992 54.5742C79.6816 54.8197 79.0841 54.9433 78.4092 54.9434H78.0391C77.3628 54.9433 76.7688 54.8197 76.2549 54.5742C75.7412 54.3284 75.3438 53.9777 75.0635 53.5215C74.7817 53.0653 74.6426 52.5375 74.6426 51.9404V45.7773H76.6699V51.9014ZM87.5215 45.6455C88.5302 45.6455 89.3553 45.8675 89.9961 46.3105C90.637 46.7541 90.958 47.4151 90.958 48.293V48.4512H89.0488V48.332C89.0487 47.9986 88.9179 47.7375 88.6543 47.5488C88.3904 47.3601 88.0258 47.2657 87.5615 47.2656C87.0782 47.2656 86.7023 47.3427 86.4346 47.4961C86.1668 47.6496 86.0332 47.854 86.0332 48.1084C86.0332 48.3279 86.117 48.5103 86.2832 48.6553C86.4495 48.7999 86.663 48.916 86.9219 49.0039C87.1807 49.0918 87.5346 49.1886 87.9824 49.2939C88.6411 49.4519 89.1833 49.6144 89.6084 49.7812C90.0347 49.9481 90.3989 50.2074 90.7021 50.5586C91.004 50.9097 91.1562 51.3792 91.1562 51.9668C91.1562 52.9941 90.8236 53.7472 90.1611 54.2256C89.4987 54.7039 88.5873 54.9434 87.4287 54.9434C86.3756 54.9433 85.5035 54.7129 84.8145 54.252C84.1255 53.791 83.7803 53.091 83.7803 52.1514L83.7949 51.8613H85.7168L85.7041 52.0723C85.7041 52.4587 85.8494 52.7633 86.1387 52.9873C86.428 53.2113 86.8366 53.3232 87.3633 53.3232C87.9774 53.3232 88.4188 53.2264 88.6865 53.0332C88.9543 52.8403 89.0879 52.5944 89.0879 52.2959C89.0878 52.068 89.0061 51.8809 88.8438 51.7363C88.6814 51.5915 88.4754 51.4779 88.2256 51.3945C87.9756 51.3111 87.6264 51.2166 87.1787 51.1113C86.5113 50.9448 85.9672 50.7772 85.5459 50.6104C85.1246 50.4435 84.7602 50.1762 84.4531 49.8076C84.1448 49.4387 83.9912 48.9427 83.9912 48.3193C83.9912 47.74 84.1498 47.2476 84.4658 46.8438C84.7818 46.4403 85.206 46.14 85.7363 45.9424C86.268 45.7448 86.863 45.6455 87.5215 45.6455ZM114.123 45.6455C114.869 45.6456 115.548 45.8042 116.158 46.1201C116.767 46.4361 117.252 46.897 117.612 47.5029C117.973 48.1086 118.153 48.8242 118.153 49.6494V50.9395C118.153 51.7649 117.973 52.4803 117.612 53.0859C117.252 53.6919 116.767 54.1537 116.158 54.4697C115.548 54.7856 114.869 54.9433 114.123 54.9434C113.377 54.9434 112.698 54.7857 112.088 54.4697C111.478 54.1537 110.993 53.6918 110.633 53.0859C110.274 52.4803 110.094 51.7649 110.094 50.9395V49.6494C110.094 48.8243 110.274 48.1086 110.633 47.5029C110.993 46.8971 111.478 46.4361 112.088 46.1201C112.698 45.8041 113.377 45.6455 114.123 45.6455ZM69.374 45.7773C70.2344 45.7773 70.9572 45.9538 71.541 46.3047C72.1244 46.6562 72.416 47.2265 72.416 48.0166C72.416 48.3325 72.3459 48.6438 72.2051 48.9512C72.0655 49.2586 71.8701 49.522 71.6201 49.7412C71.3689 49.9607 71.0951 50.0968 70.7969 50.1494V50.2158C71.1826 50.3389 71.5212 50.6021 71.8105 51.0059C72.0999 51.4097 72.2451 51.9499 72.2451 52.626C72.2452 53.5916 72.47 54.1446 72.918 54.2852V54.7324C72.6274 54.8463 72.2499 54.9043 71.7842 54.9043C71.3362 54.9043 70.9719 54.7938 70.6914 54.5742C70.4099 54.3547 70.2706 53.9865 70.2705 53.4688C70.2705 52.7143 70.1715 52.1254 69.9736 51.7041C69.7769 51.2828 69.4047 51.0713 68.8604 51.0713H67.334V54.8115H65.3311V45.7773H69.374ZM59.0635 45.7773C59.8095 45.7774 60.4873 45.936 61.0977 46.252C61.7079 46.5683 62.1924 47.0289 62.5527 47.6348C62.9131 48.2404 63.0928 48.9561 63.0928 49.7812V50.8086C63.0927 51.6339 62.9131 52.3495 62.5527 52.9551C62.1924 53.5608 61.7079 54.0216 61.0977 54.3379C60.4873 54.6538 59.8095 54.8115 59.0635 54.8115H55.6387V45.7773H59.0635ZM99.5713 47.4102H97.0166V54.8115H95.002V47.4102H92.4326V45.7773H99.5713V47.4102ZM104.615 52.2305H104.681L106.748 45.7773H108.697L105.722 54.8115H103.391L100.427 45.7773H102.561L104.615 52.2305ZM114.123 47.2656C113.561 47.2656 113.104 47.4483 112.753 47.8125C112.402 48.177 112.227 48.6927 112.227 49.3594V51.2295C112.227 51.8967 112.401 52.4131 112.753 52.7773C113.104 53.1419 113.561 53.3232 114.123 53.3232C114.685 53.3232 115.142 53.1417 115.492 52.7773C115.844 52.4131 116.02 51.8967 116.02 51.2295V49.3594C116.02 48.6927 115.844 48.177 115.492 47.8125C115.142 47.4484 114.685 47.2657 114.123 47.2656ZM57.6797 53.1914H59.0635C59.6255 53.1913 60.0812 53.0096 60.4326 52.6455C60.7841 52.2813 60.959 51.7648 60.959 51.0977V49.4912C60.9589 48.8244 60.7839 48.3088 60.4326 47.9443C60.0812 47.5802 59.6255 47.3976 59.0635 47.3975H57.6797V53.1914ZM67.334 49.4785H69.3086C69.5989 49.4784 69.846 49.3815 70.0527 49.1885C70.2583 48.9953 70.3613 48.7624 70.3613 48.4902V48.3984C70.3613 48.1088 70.2634 47.8694 70.0654 47.6807C69.8676 47.4921 69.6155 47.3975 69.3086 47.3975H67.334V49.4785ZM87.5215 44.1182L88.627 43.0254H89.9961L88.1934 44.9346H86.8369L85.0195 43.0254H86.4023L87.5215 44.1182ZM59.458 31.3516C60.1166 31.3516 60.7184 31.4893 61.2627 31.7656C61.8071 32.0423 62.2367 32.4337 62.5527 32.9385C62.8687 33.4433 63.0264 34.0291 63.0264 34.6963H61.1035C61.1035 34.1259 60.9373 33.6953 60.6035 33.4053C60.2698 33.1158 59.8485 32.9717 59.3398 32.9717C58.7866 32.9717 58.3349 33.1535 57.9834 33.5176C57.6319 33.882 57.4561 34.3978 57.4561 35.0645V36.9355C57.4561 37.6024 57.6376 38.1183 58.0029 38.4824C58.3671 38.8469 58.8256 39.0293 59.3789 39.0293C59.9233 39.0293 60.3488 38.8669 60.6572 38.542C60.9643 38.2172 61.1181 37.7297 61.1182 37.0801H59.0762V35.6045H63.0264V38.7266C63.0264 39.1653 63.038 39.5512 63.0596 39.8848C63.0824 40.2179 63.0975 40.4288 63.1064 40.5166H61.9873C61.8731 40.2007 61.7673 39.8629 61.6709 39.5029C61.3892 39.863 61.0221 40.1439 60.5703 40.3457C60.1186 40.5477 59.6377 40.6484 59.1289 40.6484H59.0635C58.3439 40.6484 57.6998 40.486 57.1338 40.1611C56.5667 39.8366 56.1235 39.3715 55.8037 38.7656C55.4827 38.1601 55.3233 37.4534 55.3232 36.6455V35.3545C55.3233 34.5469 55.4895 33.8399 55.8232 33.2344C56.157 32.6285 56.6241 32.1637 57.2256 31.8389C57.827 31.514 58.5096 31.3516 59.2734 31.3516H59.458ZM77.75 31.3516C78.4961 31.3516 79.1738 31.5092 79.7842 31.8252C80.3946 32.1412 80.8798 32.6021 81.2402 33.208C81.5993 33.8136 81.7793 34.5294 81.7793 35.3545V36.6455C81.7792 37.4709 81.5993 38.1864 81.2402 38.792C80.8798 39.3979 80.3946 39.8588 79.7842 40.1748C79.1738 40.4908 78.4961 40.6484 77.75 40.6484C77.004 40.6484 76.3252 40.4907 75.7148 40.1748C75.1057 39.8588 74.6189 39.3979 74.2598 38.792C73.8994 38.1864 73.7198 37.4709 73.7197 36.6455V35.3545C73.7198 34.5294 73.8994 33.8136 74.2598 33.208C74.6189 32.602 75.1057 32.1412 75.7148 31.8252C76.3252 31.5093 77.0039 31.3516 77.75 31.3516ZM94.8428 31.3516C95.589 31.3516 96.2685 31.5092 96.8789 31.8252C97.4879 32.1412 97.9726 32.6022 98.333 33.208C98.6934 33.8136 98.874 34.5294 98.874 35.3545V36.6455C98.874 37.4709 98.6934 38.1864 98.333 38.792C97.9726 39.3978 97.4879 39.8588 96.8789 40.1748C96.2685 40.4908 95.589 40.6484 94.8428 40.6484C94.0967 40.6484 93.4189 40.4908 92.8086 40.1748C92.1983 39.8589 91.7139 39.3978 91.3535 38.792C90.9944 38.1864 90.8135 37.4709 90.8135 36.6455V35.3545C90.8135 34.5294 90.9944 33.8136 91.3535 33.208C91.7139 32.6022 92.1983 32.1411 92.8086 31.8252C93.4189 31.5092 94.0967 31.3516 94.8428 31.3516ZM104.364 31.3516C105.374 31.3516 106.2 31.5734 106.841 32.0166C107.481 32.4601 107.803 33.1204 107.803 33.998V34.1562H105.893V34.0381C105.893 33.7043 105.761 33.4427 105.498 33.2539C105.234 33.0652 104.87 32.9717 104.404 32.9717C103.922 32.9717 103.546 33.0476 103.278 33.2012C103.011 33.3546 102.876 33.5592 102.876 33.8135C102.876 34.033 102.96 34.2154 103.128 34.3604C103.294 34.5049 103.507 34.6221 103.766 34.71C104.024 34.7978 104.377 34.8937 104.825 34.999C105.484 35.157 106.026 35.3195 106.452 35.4863C106.877 35.6532 107.242 35.9124 107.545 36.2637C107.848 36.6149 107.999 37.085 107.999 37.6729C107.999 38.6998 107.668 39.4523 107.006 39.9307C106.342 40.409 105.432 40.6484 104.272 40.6484C103.219 40.6484 102.348 40.418 101.659 39.957C100.969 39.496 100.625 38.7961 100.625 37.8564L100.638 37.5674H102.561L102.548 37.7773C102.548 38.1638 102.692 38.4694 102.981 38.6934C103.272 38.9173 103.679 39.0292 104.207 39.0293C104.821 39.0293 105.261 38.9323 105.529 38.7393C105.797 38.5464 105.932 38.3004 105.932 38.002C105.932 37.7739 105.851 37.587 105.688 37.4424C105.526 37.2974 105.319 37.1831 105.069 37.0996C104.819 37.0162 104.47 36.9217 104.022 36.8164C103.355 36.6498 102.811 36.4833 102.389 36.3164C101.967 36.1495 101.603 35.8814 101.296 35.5127C100.989 35.1437 100.836 34.6477 100.836 34.0244C100.836 33.4452 100.995 32.9536 101.311 32.5498C101.626 32.1464 102.048 31.8451 102.58 31.6475C103.11 31.4498 103.706 31.3516 104.364 31.3516ZM123.196 31.3516C123.942 31.3516 124.622 31.5092 125.232 31.8252C125.841 32.1412 126.326 32.6022 126.687 33.208C127.047 33.8136 127.227 34.5294 127.227 35.3545V36.6455C127.227 37.4709 127.047 38.1864 126.687 38.792C126.326 39.3978 125.841 39.8588 125.232 40.1748C124.622 40.4908 123.942 40.6484 123.196 40.6484C122.45 40.6484 121.772 40.4908 121.162 40.1748C120.552 39.8589 120.067 39.3978 119.707 38.792C119.348 38.1864 119.167 37.4709 119.167 36.6455V35.3545C119.167 34.5294 119.348 33.8136 119.707 33.208C120.067 32.6022 120.552 32.1411 121.162 31.8252C121.772 31.5092 122.45 31.3516 123.196 31.3516ZM71.6396 33.1025H67.5049V35.0781H71.3633V36.6982H67.5049V38.8975H71.6787L71.9033 40.5166H65.502V31.4834H71.8643L71.6396 33.1025ZM86.0596 38.8311H89.7734L89.998 40.5166H84.0176V31.4834H86.0596V38.8311ZM112.121 35.6182L115.374 31.4834H117.652L114.61 35.2891C115.356 36.5351 115.786 37.255 115.9 37.4482L117.744 40.5166H115.44L113.293 36.8564L112.121 38.1602V40.5166H110.133V31.4834H112.121V35.6182ZM24.8906 15.3965L9.01074 40.4971L14.8945 18.8779L16.709 12.1035L21.2324 7.43652L24.8906 15.3965ZM19.7842 32.1611L17.0889 35.3467L15.3916 40.3584V32.2275L25.8105 15.7578L30.7959 11.8145L19.7842 32.1611ZM77.75 32.9717C77.1879 32.9717 76.7311 33.1534 76.3809 33.5176C76.0294 33.882 75.8526 34.3978 75.8525 35.0645V36.9355C75.8526 37.6026 76.0294 38.1183 76.3809 38.4824C76.7311 38.8469 77.1879 39.0293 77.75 39.0293C78.3109 39.0293 78.7676 38.8469 79.1191 38.4824C79.4706 38.1183 79.6464 37.6026 79.6465 36.9355V35.0645C79.6464 34.3978 79.4706 33.882 79.1191 33.5176C78.7676 33.1534 78.3109 32.9717 77.75 32.9717ZM94.8428 32.9717C94.2807 32.9717 93.8251 33.1534 93.4736 33.5176C93.1222 33.882 92.9473 34.3978 92.9473 35.0645V36.9355C92.9473 37.6025 93.1222 38.1183 93.4736 38.4824C93.8251 38.8469 94.2807 39.0292 94.8428 39.0293C95.4048 39.0293 95.8617 38.8468 96.2119 38.4824C96.5634 38.1183 96.7402 37.6026 96.7402 36.9355V35.0645C96.7402 34.3978 96.5634 33.882 96.2119 33.5176C95.8617 33.1535 95.4048 32.9717 94.8428 32.9717ZM123.196 32.9717C122.634 32.9717 122.179 33.1534 121.827 33.5176C121.476 33.882 121.301 34.3978 121.301 35.0645V36.9355C121.301 37.6026 121.476 38.1183 121.827 38.4824C122.179 38.8469 122.634 39.0293 123.196 39.0293C123.758 39.0293 124.215 38.8468 124.565 38.4824C124.917 38.1183 125.094 37.6026 125.094 36.9355V35.0645C125.094 34.3978 124.917 33.882 124.565 33.5176C124.215 33.1535 123.758 32.9717 123.196 32.9717ZM35.9443 21.4824L24.4824 32.2031L23.1943 34.5977C23.1944 33.1198 23.4524 30.2306 21.9346 30.2305L32.2725 11.1211L35.9443 21.4824ZM104.365 29.8232L105.472 28.7305H106.841L105.036 30.6406H103.68L101.862 28.7305H103.245L104.365 29.8232ZM58.8916 17.0566C59.9016 17.0566 60.7263 17.2786 61.3672 17.7217C62.008 18.1651 62.329 18.8255 62.3291 19.7031V19.8613H60.4199V19.7432C60.4199 19.4096 60.2878 19.1487 60.0254 18.96C59.7614 18.7712 59.3964 18.6768 58.9307 18.6768C58.4487 18.6768 58.0734 18.7537 57.8057 18.9072C57.5379 19.0608 57.4033 19.2651 57.4033 19.5195C57.4034 19.739 57.4869 19.9215 57.6543 20.0664C57.8205 20.211 58.0342 20.3272 58.293 20.415C58.5518 20.5029 58.9047 20.5998 59.3525 20.7051C60.0111 20.863 60.5531 21.0255 60.9795 21.1924C61.4045 21.3593 61.769 21.6176 62.0723 21.9688C62.3755 22.32 62.5264 22.7901 62.5264 23.3779C62.5264 24.4052 62.1947 25.1583 61.5322 25.6367C60.8685 26.115 59.9585 26.3545 58.7988 26.3545C57.7458 26.3545 56.8755 26.1238 56.1865 25.6631C55.4962 25.2022 55.1514 24.5021 55.1514 23.5625L55.1641 23.2725H57.0869L57.0742 23.4834C57.0743 23.8697 57.2195 24.1745 57.5088 24.3984C57.7994 24.6223 58.2066 24.7344 58.7344 24.7344C59.3486 24.7344 59.7889 24.6375 60.0566 24.4443C60.3244 24.2514 60.459 24.0056 60.459 23.707C60.459 23.479 60.3773 23.2921 60.2148 23.1475C60.0524 23.0026 59.8456 22.8891 59.5957 22.8057C59.3457 22.7222 58.9967 22.6268 58.5488 22.5215C57.8816 22.355 57.3385 22.1883 56.916 22.0215C56.4947 21.8546 56.1304 21.5864 55.8232 21.2178C55.5162 20.8488 55.3623 20.3528 55.3623 19.7295C55.3624 19.1504 55.521 18.6586 55.8369 18.2549C56.1529 17.8514 56.5757 17.5502 57.1074 17.3525C57.6378 17.1549 58.2331 17.0566 58.8916 17.0566ZM75.4844 17.0566C76.2306 17.0566 76.9101 17.2143 77.5205 17.5303C78.1297 17.8463 78.6142 18.3081 78.9746 18.9141C79.3349 19.5196 79.5156 20.2355 79.5156 21.0605V22.3506C79.5156 23.1761 79.335 23.8914 78.9746 24.4971C78.6143 25.103 78.1295 25.5639 77.5205 25.8799C76.9101 26.1959 76.2306 26.3545 75.4844 26.3545C74.7383 26.3544 74.0605 26.1958 73.4502 25.8799C72.8399 25.5639 72.3555 25.1029 71.9951 24.4971C71.636 23.8914 71.4551 23.1761 71.4551 22.3506V21.0605C71.4551 20.2355 71.636 19.5197 71.9951 18.9141C72.3555 18.3081 72.8398 17.8463 73.4502 17.5303C74.0605 17.2143 74.7383 17.0567 75.4844 17.0566ZM112.03 17.0566C113.039 17.0567 113.864 17.2785 114.505 17.7217C115.145 18.1651 115.467 18.8256 115.467 19.7031V19.8613H113.557V19.7432C113.557 19.4096 113.426 19.1487 113.162 18.96C112.898 18.7712 112.534 18.6768 112.069 18.6768C111.586 18.6768 111.21 18.7537 110.942 18.9072C110.675 19.0608 110.541 19.2651 110.541 19.5195C110.541 19.739 110.625 19.9215 110.791 20.0664C110.957 20.2111 111.171 20.3272 111.43 20.415C111.689 20.5029 112.042 20.5998 112.49 20.7051C113.149 20.8631 113.691 21.0255 114.116 21.1924C114.542 21.3592 114.907 21.6177 115.21 21.9688C115.512 22.3199 115.665 22.79 115.665 23.3779C115.665 24.4051 115.332 25.1583 114.67 25.6367C114.007 26.1151 113.096 26.3545 111.938 26.3545C110.884 26.3545 110.012 26.1239 109.323 25.6631C108.634 25.2022 108.289 24.5021 108.289 23.5625L108.303 23.2725H110.226L110.213 23.4834C110.213 23.8697 110.357 24.1745 110.646 24.3984C110.936 24.6224 111.344 24.7344 111.871 24.7344C112.485 24.7344 112.928 24.6375 113.195 24.4443C113.463 24.2515 113.596 24.0054 113.596 23.707C113.596 23.479 113.515 23.2921 113.353 23.1475C113.19 23.0025 112.984 22.8891 112.734 22.8057C112.484 22.7222 112.135 22.6268 111.688 22.5215C111.02 22.3549 110.475 22.1884 110.054 22.0215C109.632 21.8546 109.268 21.5864 108.961 21.2178C108.653 20.8488 108.499 20.3527 108.499 19.7295C108.499 19.1504 108.658 18.6586 108.974 18.2549C109.29 17.8513 109.714 17.5502 110.244 17.3525C110.776 17.1549 111.372 17.0566 112.03 17.0566ZM130.861 17.0566C131.607 17.0566 132.285 17.2144 132.896 17.5303C133.506 17.8463 133.991 18.3081 134.352 18.9141C134.711 19.5196 134.891 20.2355 134.891 21.0605V22.3506C134.891 23.1761 134.711 23.8914 134.352 24.4971C133.991 25.103 133.506 25.5639 132.896 25.8799C132.285 26.1958 131.607 26.3545 130.861 26.3545C130.115 26.3545 129.437 26.1958 128.826 25.8799C128.217 25.5639 127.731 25.103 127.372 24.4971C127.012 23.8914 126.831 23.1761 126.831 22.3506V21.0605C126.831 20.2354 127.012 19.5197 127.372 18.9141C127.731 18.3081 128.217 17.8463 128.826 17.5303C129.436 17.2144 130.115 17.0567 130.861 17.0566ZM66.7012 24.5371H70.415L70.6396 26.2227H64.6592V17.1885H66.7012V24.5371ZM84.6904 23.6416H84.7568L86.8242 17.1885H88.7734L85.7969 26.2227H83.4658L80.5029 17.1885H82.6357L84.6904 23.6416ZM96.6211 18.8086H92.4863V20.7832H96.3447V22.4033H92.4863V24.6025H96.6602L96.8848 26.2227H90.4834V17.1885H96.8457L96.6211 18.8086ZM103.588 21.376L103.982 21.9951C104.123 22.2409 104.233 22.4209 104.312 22.5352L104.353 22.4951V17.1885H106.209V26.2227H104.482L101.651 22.0605C101.555 21.9203 101.423 21.7117 101.257 21.4355C101.091 21.1589 100.98 20.9766 100.928 20.8887L100.875 20.9287V26.2227H99.0186V17.1885H100.743L103.588 21.376ZM119.785 21.3232L123.039 17.1885H125.317L122.275 20.9941C123.022 22.241 123.451 22.9614 123.565 23.1543L125.408 26.2227H123.104L120.958 22.5615L119.785 23.8652V26.2227H117.797V17.1885H119.785V21.3232ZM75.4844 18.6768C74.9224 18.6768 74.4667 18.8586 74.1152 19.2227C73.7637 19.5872 73.5889 20.1036 73.5889 20.7705V22.6406C73.5889 23.3076 73.7639 23.8233 74.1152 24.1875C74.4667 24.552 74.9223 24.7343 75.4844 24.7344C76.0466 24.7344 76.5042 24.552 76.8545 24.1875C77.2058 23.8233 77.3818 23.3075 77.3818 22.6406V20.7705C77.3818 20.1036 77.206 19.5872 76.8545 19.2227C76.5042 18.8584 76.0466 18.6768 75.4844 18.6768ZM130.861 18.6768C130.299 18.6768 129.842 18.8586 129.492 19.2227C129.141 19.5872 128.964 20.1036 128.964 20.7705V22.6406C128.964 23.3077 129.141 23.8233 129.492 24.1875C129.842 24.552 130.299 24.7343 130.861 24.7344C131.422 24.7344 131.879 24.552 132.23 24.1875C132.582 23.8233 132.758 23.3078 132.758 22.6406V20.7705C132.758 20.1036 132.582 19.5872 132.23 19.2227C131.879 18.8587 131.422 18.6768 130.861 18.6768ZM33.3809 11.3457C35.862 14.9422 38.359 18.986 40.3477 23.126L36.8887 21.2432L33.3809 11.3457ZM14.6904 8.33789L15.7773 11.8164L14.6553 15.9697L13.7637 7.26172L14.6904 8.33789ZM29.4639 11.6416L25.623 14.6719L21.8447 6.41016L22.5107 0L29.4639 11.6416ZM20.8721 6.39844L16.5107 10.8857L16.1719 9.80371L21.4844 0.410156L20.8721 6.39844Z" fill="white"/>
</svg>
