<svg width="190" height="56" viewBox="0 0 190 56" fill="none" xmlns="http://www.w3.org/2000/svg">
    <path d="M81.3786 2.58749H75.1329V0.24476H83.9241V2.74484C82.0346 4.51061 79.9702 7.68377 79.8478 12.7801H77.0048C77.2148 7.86736 79.2354 4.53685 81.3786 2.58749ZM84.1921 10.0265H86.9038V12.7801H84.1921V10.0265ZM92.6501 8.8464H95.4668C95.5193 10.0527 96.3765 10.8482 97.7849 10.8482C98.9133 10.8482 99.6918 10.2975 99.6918 9.32718C99.6918 8.55792 99.272 8.14707 98.161 7.90231L96.4203 7.51769C93.9885 6.98445 92.86 5.90926 92.86 3.87248C92.86 1.62593 94.7495 0 97.6274 0C100.532 0 102.185 1.64341 102.29 3.78507H99.4994C99.4644 2.84973 98.8083 2.1504 97.5487 2.1504C96.4815 2.1504 95.668 2.73607 95.668 3.63646C95.668 4.34453 96.1316 4.79035 97.3038 5.04385L99.1582 5.44596C101.065 5.8568 102.491 6.81836 102.491 8.97753C102.491 11.5213 100.68 13.0336 97.7411 13.0336C94.7233 13.0336 92.6938 11.5388 92.6501 8.8464ZM104.748 0.24476H107.495V10.4199H112.726V12.7801H104.748V0.24476ZM113.85 6.51241C113.85 2.43888 116.072 0 119.545 0C123.044 0 125.248 2.44762 125.248 6.51241C125.248 10.5859 123.044 13.0336 119.545 13.0336C116.011 13.0336 113.85 10.5859 113.85 6.51241ZM119.545 10.7346C121.355 10.7346 122.414 9.2485 122.414 6.51243C122.414 3.78509 121.347 2.2903 119.545 2.2903C117.76 2.2903 116.684 3.78509 116.684 6.51243C116.684 9.23977 117.743 10.7346 119.545 10.7346ZM126.002 0.24476H128.88L131.6 9.85165L134.391 0.24476H137.155L133.192 12.7801H129.964L126.002 0.24476ZM138.885 0.24476H147.545V2.50882H141.632V5.34106H147.047V7.52645H141.632V10.5073H147.554V12.7801H138.885V0.24476ZM150.035 0.24476H153.718L158.1 9.01248V0.24476H160.69V12.7801H157.366L152.633 3.45288V12.7801H150.035L150.035 0.24476ZM162.929 8.8464H165.746C165.798 10.0527 166.655 10.8482 168.064 10.8482C169.192 10.8482 169.971 10.2975 169.971 9.32718C169.971 8.55792 169.551 8.14707 168.44 7.90231L166.699 7.51769C164.267 6.98445 163.139 5.90926 163.139 3.87248C163.139 1.62593 165.028 0 167.906 0C170.81 0 172.464 1.64341 172.569 3.78507H169.778C169.743 2.84973 169.087 2.1504 167.828 2.1504C166.76 2.1504 165.947 2.73607 165.947 3.63646C165.947 4.34453 166.41 4.79035 167.583 5.04385L169.437 5.44596C171.344 5.8568 172.77 6.81836 172.77 8.97753C172.77 11.5213 170.959 13.0336 168.02 13.0336C165.002 13.0336 162.973 11.5388 162.929 8.8464ZM175.027 0.24476H177.765V5.74315L182.165 0.24476H185.471L181.211 5.31483L185.629 12.7801H182.445L179.409 7.45649L177.765 9.41459V12.7801H175.027L175.027 0.24476ZM187.253 0.24476H190V12.7801H187.253V0.24476ZM75.5353 28.092C75.5353 23.9747 77.8271 21.4834 81.501 21.4834C84.4927 21.4834 86.6795 23.1443 86.8195 26.0465H83.9678C83.8454 24.5954 82.8569 23.765 81.4748 23.765C79.5241 23.765 78.3695 25.2423 78.3695 27.9958C78.3695 30.7673 79.5329 32.2359 81.4748 32.2359C83.0144 32.2359 83.9853 31.2743 84.1253 29.6567H81.501V27.6025H86.7933V34.2639H84.4577V32.7341C83.7404 33.9142 82.577 34.5174 80.915 34.5174C77.6522 34.5174 75.5353 32.2446 75.5353 28.092ZM89.466 21.7282H98.126V23.9922H92.2127V26.8245H97.6274V29.0099H92.2127V31.9911H98.1348V34.2639H89.466V21.7282ZM99.8938 27.9958C99.8938 23.9223 102.116 21.4834 105.588 21.4834C109.087 21.4834 111.292 23.931 111.292 27.9958C111.292 32.0698 109.087 34.5174 105.588 34.5174C102.054 34.5174 99.8938 32.0697 99.8938 27.9958ZM105.588 32.2184C107.399 32.2184 108.458 30.7323 108.458 27.9958C108.458 25.2685 107.39 23.7737 105.588 23.7737C103.804 23.7737 102.728 25.2685 102.728 27.9958C102.728 30.7236 103.786 32.2184 105.588 32.2184ZM113.563 21.7282H116.31V31.9037H121.541V34.2639H113.563V21.7282ZM122.665 27.9958C122.665 23.9223 124.887 21.4834 128.36 21.4834C131.859 21.4834 134.063 23.931 134.063 27.9958C134.063 32.0698 131.859 34.5174 128.36 34.5174C124.826 34.5174 122.665 32.0697 122.665 27.9958ZM128.36 32.2184C130.17 32.2184 131.229 30.7323 131.229 27.9958C131.229 25.2685 130.162 23.7737 128.36 23.7737C126.575 23.7737 125.499 25.2685 125.499 27.9958C125.499 30.7236 126.558 32.2184 128.36 32.2184ZM135.669 30.3302H138.486C138.539 31.5365 139.396 32.332 140.804 32.332C141.933 32.332 142.711 31.7813 142.711 30.811C142.711 30.0413 142.291 29.6305 141.18 29.3857L139.44 29.0011C137.008 28.4678 135.879 27.3927 135.879 25.3559C135.879 23.1093 137.769 21.4834 140.647 21.4834C143.551 21.4834 145.204 23.1268 145.309 25.2685H142.519C142.484 24.3331 141.828 23.6338 140.568 23.6338C139.501 23.6338 138.687 24.2195 138.687 25.1199C138.687 25.8279 139.151 26.2737 140.323 26.5272L142.178 26.9294C144.085 27.3402 145.51 28.3018 145.51 30.4613C145.51 33.0051 143.7 34.5174 140.76 34.5174C137.743 34.5174 135.713 33.0226 135.669 30.3302ZM139.781 18.1092L140.725 19.368L141.653 18.1092H144.085L141.933 20.7928H139.527L137.34 18.1092H139.781ZM147.767 21.7282H150.505V27.2266L154.905 21.7282H158.212L153.952 26.7982L158.369 34.2639H155.185L152.15 28.9399L150.505 30.8984V34.2639H147.767L147.767 21.7282ZM159.995 21.7282H162.741V34.2639H159.995V21.7282ZM76.0601 43.2112H78.7981V48.7096L83.1981 43.2112H86.5046L82.2446 48.2812L86.6621 55.7465H83.478L80.4426 50.4229L78.7981 52.381V55.7465H76.0601L76.0601 43.2112ZM87.1368 49.4788C87.1368 45.4053 89.3587 42.9664 92.8314 42.9664C96.3304 42.9664 98.5348 45.414 98.5348 49.4788C98.5348 53.5524 96.3304 56 92.8314 56C89.2974 56 87.1368 53.5524 87.1368 49.4788ZM92.8314 53.701C94.6421 53.701 95.7006 52.2149 95.7006 49.4789C95.7006 46.7515 94.6334 45.2567 92.8314 45.2567C91.0469 45.2567 89.971 46.7515 89.971 49.4789C89.971 52.2062 91.0294 53.701 92.8314 53.701ZM100.806 43.2112H104.489L108.871 51.9789V43.2112H111.46V55.7465H108.136L103.404 46.4193V55.7465H100.806L100.806 43.2112ZM113.763 49.575C113.763 45.4578 116.055 42.9664 119.729 42.9664C122.721 42.9664 124.908 44.6273 125.048 47.5295H122.196C122.073 46.0784 121.085 45.248 119.703 45.248C117.752 45.248 116.598 46.7253 116.598 49.4789C116.598 52.2499 117.761 53.7185 119.703 53.7185C121.242 53.7185 122.213 52.7569 122.353 51.1397H119.729V49.0855H125.021V55.7465H122.686V54.2167C121.968 55.3969 120.805 56 119.143 56C115.88 56 113.763 53.7272 113.763 49.575ZM127.695 43.2112H133.276C135.786 43.2112 137.37 44.5049 137.37 46.6029C137.37 48.4036 136.407 49.5662 134.772 50.0295C136.206 50.2656 136.993 51.1135 137.221 52.7744L137.632 55.7465H134.833L134.535 53.2377C134.369 51.8303 133.757 51.2446 132.287 51.2446H130.442V55.7465H127.695V43.2112ZM132.445 49.0243C133.774 49.0243 134.64 48.3337 134.64 47.1274C134.64 46.0172 133.914 45.449 132.663 45.449H130.442V49.0243H132.445ZM139.906 43.2112H148.566V45.4752H142.653V48.3075H148.068V50.4929H142.653V53.4737H148.575V55.7465H139.906V43.2112ZM150.3 51.8128H153.117C153.169 53.0191 154.026 53.8146 155.435 53.8146C156.563 53.8146 157.342 53.2639 157.342 52.2936C157.342 51.5243 156.922 51.1135 155.811 50.8687L154.07 50.4841C151.638 49.9509 150.51 48.8757 150.51 46.8389C150.51 44.5924 152.399 42.9664 155.277 42.9664C158.181 42.9664 159.835 44.6098 159.94 46.7515H157.149C157.114 45.8162 156.458 45.1168 155.199 45.1168C154.131 45.1168 153.318 45.7025 153.318 46.6029C153.318 47.3109 153.781 47.7568 154.954 48.0103L156.808 48.4124C158.715 48.8232 160.141 49.7848 160.141 51.944C160.141 54.4877 158.33 56 155.391 56C152.373 56 150.344 54.5052 150.3 51.8128ZM36.3636 55.6815H1.3209C3.29658 51.3714 5.5322 47.2822 7.99925 43.3685C13.1685 35.1992 18.0976 29.7934 27.1139 29.7934H29.3982C36.0099 29.7934 41.1793 24.8677 41.1793 18.0199C41.1793 11.1725 36.2502 6.24682 29.3982 6.24682C22.5457 6.24682 17.3764 11.6527 17.3764 18.2604V19.942C17.3764 26.1891 15.092 28.1113 7.99927 28.1113H0V0.191489H56.6386V27.8949C48.8368 35.021 41.6326 43.8428 36.3636 55.6815ZM57.4256 44.6215C56.201 42.7445 54.1158 41.5425 51.6497 41.5425C47.6208 41.5425 44.6072 44.6494 44.6072 48.6755C44.6072 52.6379 47.6208 55.6816 51.6497 55.6816C54.1158 55.6816 56.201 54.504 57.4256 52.6608C58.1702 51.5402 58.5971 50.1738 58.5971 48.6756C58.5971 47.1532 58.1702 45.7628 57.4256 44.6215Z" fill="white"/>
</svg>
