<svg width="212" height="64" viewBox="0 0 212 64" fill="none" xmlns="http://www.w3.org/2000/svg">
    <path d="M59.6484 15.9999C56.7415 14.8124 53.6677 14.0312 50.4947 13.6993C50.1903 10.5024 49.4303 7.40255 48.2621 4.47206C52.9731 7.2716 56.9038 11.2497 59.6484 15.9999ZM13.2716 47.2031C13.2716 41.9833 14.451 36.9464 16.6814 32.3926C14.2503 27.6808 12.9604 22.4226 12.9604 16.9657C12.9604 16.3042 12.9829 15.6473 13.019 14.9925C9.59344 15.4034 6.33699 16.3584 3.33087 17.765C1.19976 22.0523 0 26.8861 0 31.9998C0 36.9397 1.11857 41.6153 3.11437 45.7921C6.26031 47.3138 9.69039 48.3365 13.3077 48.7519C13.2851 48.2372 13.2716 47.7201 13.2716 47.2031ZM16.8546 13.0698C22.3301 13.0698 27.6049 14.3725 32.3317 16.8267C36.8262 14.6593 41.7875 13.5101 46.9271 13.5101C47.5472 13.5101 48.1651 13.5304 48.7785 13.562C48.3907 9.87294 47.3713 6.37125 45.8378 3.1653C41.641 1.13789 36.9345 0 31.9618 0C26.8291 0 21.9783 1.21463 17.68 3.3685C16.2592 6.39157 15.2963 9.67653 14.8836 13.1286C15.5376 13.0902 16.1938 13.0698 16.8546 13.0698ZM50.6512 16.9668C50.6512 22.277 49.4312 27.3974 47.1287 32.0099C49.3387 36.5479 50.5091 41.5645 50.5091 46.7617C50.5091 47.4232 50.4888 48.0802 50.4505 48.735C54.1693 48.2902 57.6895 47.2042 60.9031 45.5945C62.8403 41.4697 63.925 36.8617 63.925 32.0009C63.925 27.1468 62.8448 22.5479 60.9144 18.4276C57.7392 16.8788 54.2707 15.838 50.6151 15.418C50.6377 15.9328 50.6512 16.4498 50.6512 16.9668ZM15.2514 4.71928C10.9396 7.3721 7.30651 11.0205 4.66797 15.344C7.37866 14.2919 10.2269 13.5898 13.1631 13.2715C13.4834 10.3161 14.1892 7.4466 15.2514 4.71928ZM40.7942 40.7906C38.645 42.9422 36.2568 44.7664 33.6882 46.2384C37.6415 47.9904 42.0142 48.9657 46.617 48.9657C47.3319 48.9657 48.0422 48.9386 48.7458 48.8935C48.7909 48.1891 48.818 47.4779 48.818 46.7622C48.818 42.1791 47.8528 37.8217 46.1186 33.8775C44.6685 36.3723 42.8869 38.6955 40.7942 40.7906ZM4.40997 48.2241C7.12968 52.8456 10.977 56.7221 15.573 59.4742C14.4544 56.6092 13.726 53.5861 13.4283 50.4727C10.3049 50.1454 7.27627 49.38 4.40997 48.2241ZM17.7005 34.2324C15.9415 38.197 14.9627 42.5859 14.9627 47.2029C14.9627 47.7741 14.9785 48.3408 15.0078 48.903C15.6663 48.9436 16.3294 48.9662 16.9969 48.9662C21.5974 48.9662 25.9701 47.9909 29.9234 46.2389C27.357 44.7669 24.9666 42.9427 22.8197 40.7911C20.8239 38.7953 19.1122 36.5917 17.7005 34.2324ZM59.6139 48.0588C56.6641 49.2938 53.5362 50.1065 50.3068 50.4565C49.9596 53.6737 49.1545 56.7848 47.9299 59.7244C52.7695 56.9271 56.8062 52.8948 59.6139 48.0588ZM46.1389 30.1293C47.952 26.1151 48.9601 21.6584 48.9601 16.9669C48.9601 16.3957 48.9443 15.8312 48.915 15.2668C48.2565 15.2262 47.5935 15.2059 46.9259 15.2059C42.3908 15.2059 38.079 16.1518 34.1708 17.8564C36.5026 19.2629 38.6788 20.9607 40.6521 22.9362C42.8238 25.1104 44.6595 27.5284 46.1389 30.1293ZM23.1289 23.3794C25.3412 21.1646 27.8083 19.2975 30.4626 17.8029C26.3334 15.8545 21.7217 14.764 16.855 14.764C16.1401 14.764 15.4298 14.7888 14.7262 14.8363C14.6788 15.5407 14.654 16.2496 14.654 16.9675C14.654 21.8171 15.7342 26.416 17.6624 30.5341C19.1395 27.949 20.9684 25.5423 23.1289 23.3794ZM46.6161 50.6592C41.3954 50.6592 36.3596 49.4762 31.8065 47.2388C27.2533 49.4762 22.2176 50.6592 16.9969 50.6592C16.3767 50.6592 15.7588 50.6412 15.1432 50.6073C15.5243 54.2106 16.503 57.6355 17.9779 60.7805C22.2018 62.8418 26.9466 64 31.9621 64C36.7971 64 41.3773 62.9231 45.484 60.9995C47.0761 57.8003 48.145 54.2964 48.5871 50.6005C47.9331 50.6389 47.2768 50.6592 46.6161 50.6592ZM207.271 41.3198C206.276 41.909 205.056 42.2026 203.611 42.2026C201.683 42.2026 200.158 41.9136 199.04 41.3356C197.921 40.7554 197.125 39.92 196.654 38.8295C196.18 37.7391 195.946 36.4319 195.946 34.9056V24.9153L194.006 24.6534V22.0774H201.789V24.6241L199.734 24.9424V34.8469C199.734 36.2964 200.018 37.3778 200.587 38.0913C201.157 38.8047 202.165 39.1614 203.611 39.1614C204.382 39.1614 205.038 39.0124 205.577 38.7144C206.116 38.4141 206.531 37.9423 206.822 37.2943C207.111 36.6486 207.255 35.8223 207.255 34.8176V24.886L205.404 24.6241V22.0774H212V24.7121L210.293 25.0891V34.9056C210.293 36.3912 210.036 37.6848 209.526 38.7866C209.014 39.8861 208.263 40.7305 207.271 41.3198ZM178.502 42.0874L177.952 39.8004L187.701 25.1162H181.307L180.759 28.3019H178.502V22.0774H191.81L192.387 24.7685L183.073 39.0463H189.293L189.812 35.8606H192.128V42.0874L178.502 42.0874ZM165.774 32.7338H169.274L167.743 26.1887L165.774 32.7338ZM159.41 42.0874L159.035 39.8274L160.625 39.3082L166.353 22.0774H169.939L175.755 39.3082L177.086 39.8274L176.795 42.0874H169.274V39.9155L171.59 39.3082L170.548 35.7749H164.879L163.778 39.4233L166.324 39.8862V42.0874H159.41ZM153.438 41.8842C152.579 42.0964 151.715 42.2026 150.849 42.2026C149.731 42.2026 148.66 42.0626 147.638 41.7826C146.614 41.5027 145.719 41.2092 144.948 40.8999L145.525 35.3098L147.956 35.513L148.188 38.728C148.438 38.7867 148.781 38.8725 149.214 38.9899C149.647 39.105 150.134 39.1615 150.676 39.1615C151.291 39.1615 151.855 39.0802 152.367 38.9154C152.879 38.7528 153.294 38.4954 153.612 38.15C153.93 37.8023 154.088 37.3485 154.088 36.7886C154.088 36.2671 153.952 35.8381 153.684 35.4995C153.413 35.1608 153.012 34.8425 152.482 34.5444C151.952 34.2442 151.273 33.9123 150.443 33.5443C149.692 33.1966 148.998 32.8444 148.362 32.4877C147.724 32.1309 147.169 31.7291 146.698 31.2866C146.224 30.8418 145.854 30.3158 145.583 29.7062C145.313 29.0989 145.18 28.3606 145.18 27.4914C145.18 26.3716 145.482 25.4075 146.091 24.5948C146.698 23.7842 147.516 23.1589 148.549 22.7141C149.58 22.2693 150.714 22.0481 151.947 22.0481C152.951 22.0481 153.93 22.1248 154.884 22.2783C155.838 22.4341 156.692 22.617 157.443 22.8292L157.879 28.3312H155.447L154.031 25.263C153.779 25.2224 153.47 25.184 153.104 25.1456C152.739 25.1072 152.392 25.0892 152.063 25.0892C151.388 25.0892 150.833 25.1885 150.4 25.3917C149.965 25.5949 149.643 25.8613 149.431 26.1887C149.219 26.5161 149.113 26.8841 149.113 27.2882C149.113 27.6765 149.232 28.0174 149.474 28.3177C149.715 28.6157 150.033 28.8866 150.43 29.1282C150.824 29.3698 151.248 29.591 151.702 29.7942C152.155 29.9974 152.592 30.2051 153.019 30.4174C154.155 30.9569 155.096 31.4988 155.838 32.0384C156.58 32.5802 157.134 33.1876 157.502 33.8626C157.867 34.5399 158.052 35.3392 158.052 36.2671C158.052 37.3485 157.845 38.2651 157.43 39.017C157.015 39.771 156.46 40.3829 155.765 40.857C155.071 41.3311 154.295 41.672 153.438 41.8842ZM132.828 41.9136C132.075 42.1055 131.313 42.2026 130.542 42.2026C129.249 42.2026 128.016 42.0016 126.839 41.5952C125.664 41.1889 124.622 40.577 123.715 39.7552C122.809 38.9357 122.096 37.9129 121.575 36.687C121.054 35.4611 120.795 34.0364 120.795 32.4154C120.795 30.7154 121.063 29.2253 121.604 27.9407C122.143 26.656 122.872 25.5813 123.787 24.7121C124.703 23.8429 125.731 23.1859 126.868 22.7434C128.007 22.2987 129.164 22.0774 130.341 22.0774C131.631 22.0774 132.693 22.1677 133.523 22.3506C134.351 22.5357 134.919 22.6757 135.228 22.7705L135.807 28.767H133.464L131.757 25.175C131.622 25.1569 131.477 25.1411 131.324 25.1321C131.169 25.123 130.936 25.1163 130.63 25.1163C129.567 25.1163 128.589 25.3962 127.693 25.9561C126.796 26.516 126.079 27.3085 125.537 28.3312C124.998 29.3563 124.708 30.5799 124.669 32.009C124.689 33.3998 124.949 34.6302 125.452 35.7026C125.952 36.7728 126.651 37.6172 127.549 38.2358C128.444 38.8544 129.491 39.1615 130.686 39.1615C131.477 39.1615 132.274 39.017 133.074 38.728C133.872 38.439 134.544 38.0146 135.083 37.4547L136.299 40.0307C135.952 40.4371 135.474 40.8028 134.867 41.1325C134.26 41.4599 133.579 41.7217 132.828 41.9136ZM109.165 32.298H110.119C111.258 32.298 112.178 32.14 112.882 31.8216C113.585 31.5033 114.102 31.0676 114.431 30.519C114.758 29.9681 114.922 29.3563 114.922 28.6789C114.922 27.9452 114.762 27.3175 114.444 26.796C114.126 26.2745 113.576 25.8749 112.796 25.5949C112.016 25.315 110.92 25.166 109.512 25.1456H109.165L109.165 32.298ZM103.64 42.0874L103.381 39.6265L105.376 39.2201V24.9153L103.41 24.7121V22.0774H110.496C112.385 22.0774 113.948 22.3574 115.182 22.9173C116.415 23.4772 117.333 24.2448 117.931 25.2179C118.528 26.1932 118.826 27.3175 118.826 28.5931C118.826 30.002 118.47 31.194 117.757 32.1693C117.042 33.1447 116.059 33.892 114.805 34.4135L117.351 39.2789L119.173 39.5679V42.0875H114.286L111.278 35.2827C110.949 35.3008 110.606 35.3211 110.25 35.3392C109.893 35.3595 109.533 35.3685 109.165 35.3685V39.3353L110.669 39.5679V42.0875L103.64 42.0874ZM87.3825 42.0874L86.8345 39.8004L96.5813 25.1162H90.1902L89.6399 28.3019H87.3825V22.0774H100.69L101.267 24.7685L91.9537 39.0463H98.1734L98.6943 35.8606H101.008V42.0874L87.3825 42.0874ZM31.9616 35.5683C34.0071 35.5683 35.6623 33.9089 35.6623 31.8634C35.6623 29.8179 34.0071 28.1585 31.9616 28.1585C29.9185 28.1585 28.2632 29.8179 28.2632 31.8634C28.2632 33.9089 29.9185 35.5683 31.9616 35.5683ZM32.3022 18.7439C37.8025 21.7895 42.3105 26.4111 45.2174 31.9989C42.191 37.6815 37.5048 42.3391 31.806 45.3283C26.2335 42.4046 21.6285 37.8869 18.5976 32.3759C21.6511 26.5397 26.45 21.7624 32.3022 18.7439Z" fill="white"/>
</svg>
