<?xml version="1.0" encoding="utf-8"?>
<!-- Generator: Adobe Illustrator 27.7.0, SVG Export Plug-In . SVG Version: 6.00 Build 0)  -->
<svg version="1.1" xmlns="http://www.w3.org/2000/svg" xmlns:xlink="http://www.w3.org/1999/xlink" x="0px" y="0px"
	 viewBox="0 0 133.2 40.2" style="enable-background:new 0 0 133.2 40.2;" xml:space="preserve">
<style type="text/css">
	.st0{fill:#0072B6;}
	.st1{fill:#FFFFFF;}
	.st2{fill:#3870B5;}
	.st3{fill:#0071B8;}
	.st4{fill:#81C3B9;}
	.st5{fill:#E66644;}
	.st6{fill:#DCDD3D;}
	.st7{fill:#B6B6B6;}
	.st8{fill:#636362;}
	.st9{fill:#6F6F6E;}
	.st10{fill:none;stroke:#34363E;stroke-width:0.3719;stroke-miterlimit:10;}
	.st11{fill:#D1091E;}
	.st12{fill:#575756;}
	.st13{fill:#1D1D1B;}
	.st14{fill:none;stroke:#1D1D1B;stroke-width:0.4685;stroke-miterlimit:10;}
	.st15{fill:#002C5A;}
</style>
<g id="Layer_2">
</g>
<g id="Layer_1">
	<g>
		<path class="st15" d="M37.5,10c-1.7-3-4.2-5.5-7.2-7.2c0.7,1.8,1.2,3.8,1.4,5.8C33.7,8.8,35.6,9.3,37.5,10"/>
		<path class="st15" d="M8.3,29.6c0-3.3,0.7-6.4,2.1-9.3c-1.5-3-2.3-6.3-2.3-9.7c0-0.4,0-0.8,0-1.2C6,9.7,4,10.3,2.1,11.1
			C0.8,13.8,0,16.9,0,20.1c0,3.1,0.7,6,2,8.7c2,1,4.1,1.6,6.4,1.9C8.3,30.3,8.3,29.9,8.3,29.6"/>
		<path class="st15" d="M10.6,8.2c3.4,0,6.8,0.8,9.7,2.4c2.8-1.4,5.9-2.1,9.2-2.1c0.4,0,0.8,0,1.2,0C30.4,6.2,29.8,4,28.8,2
			c-2.6-1.3-5.6-2-8.7-2c-3.2,0-6.3,0.8-9,2.1c-0.9,1.9-1.5,4-1.8,6.1C9.8,8.2,10.2,8.2,10.6,8.2"/>
		<path class="st15" d="M31.8,10.6c0,3.3-0.8,6.5-2.2,9.4c1.4,2.8,2.1,6,2.1,9.3c0,0.4,0,0.8,0,1.2c2.3-0.3,4.5-1,6.6-2
			c1.2-2.6,1.9-5.5,1.9-8.5c0-3-0.7-5.9-1.9-8.5c-2-1-4.2-1.6-6.5-1.9C31.8,10,31.8,10.3,31.8,10.6"/>
		<path class="st15" d="M9.6,3c-2.7,1.7-5,4-6.6,6.7C4.6,9,6.4,8.5,8.3,8.3C8.5,6.5,8.9,4.7,9.6,3"/>
		<path class="st15" d="M25.6,25.6c-1.4,1.4-2.9,2.5-4.5,3.4c2.5,1.1,5.2,1.7,8.1,1.7c0.4,0,0.9,0,1.3,0c0-0.4,0-0.9,0-1.3
			c0-2.9-0.6-5.6-1.7-8.1C28.1,22.8,26.9,24.3,25.6,25.6"/>
		<path class="st15" d="M2.8,30.3c1.7,2.9,4.1,5.3,7,7.1c-0.7-1.8-1.2-3.7-1.3-5.6C6.5,31.5,4.6,31,2.8,30.3"/>
		<path class="st15" d="M11.1,21.5C10,24,9.4,26.7,9.4,29.6c0,0.4,0,0.7,0,1.1c0.4,0,0.8,0,1.2,0c2.9,0,5.6-0.6,8.1-1.7
			c-1.6-0.9-3.1-2.1-4.5-3.4C13.1,24.3,12,23,11.1,21.5"/>
		<path class="st15" d="M37.5,30.2c-1.9,0.8-3.8,1.3-5.8,1.5c-0.2,2-0.7,4-1.5,5.8C33.2,35.7,35.7,33.2,37.5,30.2"/>
		<path class="st15" d="M29,18.9c1.1-2.5,1.8-5.3,1.8-8.3c0-0.4,0-0.7,0-1.1c-0.4,0-0.8,0-1.2,0c-2.8,0-5.6,0.6-8,1.7
			c1.5,0.9,2.8,1.9,4.1,3.2C26.9,15.8,28.1,17.3,29,18.9"/>
		<path class="st15" d="M14.5,14.7c1.4-1.4,2.9-2.6,4.6-3.5c-2.6-1.2-5.5-1.9-8.5-1.9c-0.4,0-0.9,0-1.3,0c0,0.4,0,0.9,0,1.3
			c0,3,0.7,5.9,1.9,8.5C12,17.5,13.2,16,14.5,14.7"/>
		<path class="st15" d="M29.3,31.8c-3.3,0-6.4-0.7-9.3-2.1c-2.9,1.4-6,2.1-9.3,2.1c-0.4,0-0.8,0-1.2,0c0.2,2.3,0.9,4.4,1.8,6.4
			c2.7,1.3,5.6,2,8.8,2c3,0,5.9-0.7,8.5-1.9c1-2,1.7-4.2,1.9-6.5C30.1,31.8,29.7,31.8,29.3,31.8"/>
		<path class="st15" d="M130.2,25.9c0.6-0.4,1.1-0.9,1.4-1.6c0.3-0.7,0.5-1.5,0.5-2.4v-6.2l1.1-0.2v-1.7H129v1.6l1.2,0.2v6.2
			c0,0.6-0.1,1.1-0.3,1.6c-0.2,0.4-0.4,0.7-0.8,0.9c-0.3,0.2-0.8,0.3-1.2,0.3c-0.9,0-1.5-0.2-1.9-0.7c-0.4-0.4-0.5-1.1-0.5-2v-6.2
			l1.3-0.2v-1.6h-4.9v1.6l1.2,0.2v6.3c0,1,0.1,1.8,0.4,2.5c0.3,0.7,0.8,1.2,1.5,1.6c0.7,0.4,1.7,0.5,2.9,0.5
			C128.8,26.5,129.6,26.3,130.2,25.9 M120.7,26.4v-3.9h-1.5l-0.3,2H115l5.9-9l-0.4-1.7h-8.4v3.9h1.4l0.3-2h4l-6.1,9.2l0.3,1.4H120.7
			z M105.4,16.4l1,4.1h-2.2L105.4,16.4z M104.5,26.4V25l-1.6-0.3l0.7-2.3h3.6l0.7,2.2l-1.5,0.4v1.4h4.7l0.2-1.4l-0.8-0.3l-3.7-10.8
			h-2.3l-3.6,10.8l-1,0.3l0.2,1.4H104.5z M96.4,26.3c0.5-0.1,1-0.3,1.5-0.6s0.8-0.7,1-1.2c0.3-0.5,0.4-1,0.4-1.7
			c0-0.6-0.1-1.1-0.3-1.5c-0.2-0.4-0.6-0.8-1-1.1c-0.5-0.3-1.1-0.7-1.8-1c-0.3-0.1-0.5-0.3-0.8-0.4c-0.3-0.1-0.6-0.3-0.8-0.4
			c-0.2-0.2-0.4-0.3-0.6-0.5c-0.2-0.2-0.2-0.4-0.2-0.6c0-0.3,0.1-0.5,0.2-0.7c0.1-0.2,0.3-0.4,0.6-0.5c0.3-0.1,0.6-0.2,1-0.2
			c0.2,0,0.4,0,0.7,0c0.2,0,0.4,0,0.6,0.1l0.9,1.9h1.5l-0.3-3.5c-0.5-0.1-1-0.2-1.6-0.3c-0.6-0.1-1.2-0.1-1.8-0.1
			c-0.8,0-1.5,0.1-2.1,0.4c-0.6,0.3-1.2,0.7-1.5,1.2c-0.4,0.5-0.6,1.1-0.6,1.8c0,0.5,0.1,1,0.3,1.4c0.2,0.4,0.4,0.7,0.7,1
			c0.3,0.3,0.6,0.5,1,0.8c0.4,0.2,0.8,0.4,1.3,0.7c0.5,0.2,0.9,0.4,1.3,0.6c0.3,0.2,0.6,0.4,0.8,0.6c0.2,0.2,0.3,0.5,0.3,0.8
			c0,0.4-0.1,0.6-0.3,0.9c-0.2,0.2-0.5,0.4-0.8,0.5c-0.3,0.1-0.7,0.2-1.1,0.2c-0.3,0-0.6,0-0.9-0.1c-0.3-0.1-0.5-0.1-0.6-0.2l-0.1-2
			l-1.5-0.1l-0.4,3.5c0.5,0.2,1,0.4,1.7,0.6c0.6,0.2,1.3,0.3,2,0.3C95.3,26.5,95.9,26.4,96.4,26.3 M83.4,26.3
			c0.5-0.1,0.9-0.3,1.3-0.5c0.4-0.2,0.7-0.4,0.9-0.7l-0.8-1.6c-0.3,0.4-0.8,0.6-1.3,0.8c-0.5,0.2-1,0.3-1.5,0.3
			c-0.8,0-1.4-0.2-2-0.6c-0.6-0.4-1-0.9-1.3-1.6c-0.3-0.7-0.5-1.4-0.5-2.3c0-0.9,0.2-1.7,0.5-2.3c0.3-0.6,0.8-1.1,1.4-1.5
			c0.6-0.4,1.2-0.5,1.8-0.5c0.2,0,0.3,0,0.4,0c0.1,0,0.2,0,0.3,0l1.1,2.3h1.5L85,14.3c-0.2-0.1-0.6-0.1-1.1-0.3
			c-0.5-0.1-1.2-0.2-2-0.2c-0.7,0-1.5,0.1-2.2,0.4c-0.7,0.3-1.4,0.7-1.9,1.2c-0.6,0.5-1,1.2-1.4,2c-0.3,0.8-0.5,1.7-0.5,2.8
			c0,1,0.2,1.9,0.5,2.7c0.3,0.8,0.8,1.4,1.3,1.9c0.6,0.5,1.2,0.9,2,1.2c0.7,0.3,1.5,0.4,2.3,0.4C82.5,26.5,83,26.4,83.4,26.3
			 M68.6,15.8h0.2c0.9,0,1.6,0.1,2.1,0.3c0.5,0.2,0.8,0.4,1,0.8c0.2,0.3,0.3,0.7,0.3,1.2c0,0.4-0.1,0.8-0.3,1.2
			c-0.2,0.3-0.5,0.6-1,0.8c-0.4,0.2-1,0.3-1.7,0.3h-0.6V15.8z M69.5,26.4v-1.6l-0.9-0.1v-2.5c0.2,0,0.5,0,0.7,0c0.2,0,0.4,0,0.6,0
			l1.9,4.3h3.1v-1.6l-1.1-0.2l-1.6-3.1c0.8-0.3,1.4-0.8,1.9-1.4c0.4-0.6,0.7-1.4,0.7-2.2c0-0.8-0.2-1.5-0.6-2.1
			c-0.4-0.6-1-1.1-1.7-1.4c-0.8-0.4-1.8-0.5-2.9-0.5H65v1.7l1.2,0.1v9l-1.3,0.3l0.2,1.5H69.5z M63.5,26.4v-3.9H62l-0.3,2h-3.9l5.9-9
			l-0.4-1.7h-8.4v3.9h1.4l0.3-2h4L54.6,25l0.3,1.4H63.5z"/>
		<path class="st15" d="M20.1,22.3c-1.3,0-2.3-1-2.3-2.3c0-1.3,1-2.3,2.3-2.3c1.3,0,2.3,1,2.3,2.3C22.4,21.3,21.4,22.3,20.1,22.3
			 M20.3,11.8c-3.7,1.9-6.7,4.9-8.6,8.6c1.9,3.5,4.8,6.3,8.3,8.1c3.6-1.9,6.5-4.8,8.4-8.4C26.6,16.6,23.7,13.7,20.3,11.8"/>
	</g>
</g>
</svg>
